<?xml version="1.0" encoding="UTF-8"?>
<svg width="48px" height="48px" viewBox="0 0 48 48" version="1.1" xmlns="http://www.w3.org/2000/svg" xmlns:xlink="http://www.w3.org/1999/xlink">
    <!-- Generator: Sketch 63.1 (92452) - https://sketch.com -->
    <title>Icons/icons-food/apple</title>
    <desc>Created with Sketch.</desc>
    <g id="Icons/icons-food/apple" stroke="none" stroke-width="1" fill="none" fill-rule="evenodd">
        <g id="icon-apple" transform="translate(5.000000, 4.000000)" fill="#545454">
            <path d="M9.28409091,0.000473160418 C8.77805355,0.00708731084 8.47443182,0.0533897504 8.47443182,0.0533897504 L6.69318182,0.21213952 L6.90909091,1.95838699 C6.90909091,1.95838699 7.33416236,5.82791221 10.1477273,8.67879392 C4.43963155,9.54530351 0,14.1622751 0,19.7912778 C0,25.8634574 2.75958764,30.6788671 5.99147727,33.9200074 C7.60404873,35.5405775 9.31782627,36.7642749 10.9573864,37.6241687 C12.5969465,38.4840641 14.1015634,39 15.5454545,39 C16.4900568,39 17.4076705,38.8412502 18.2443182,38.5766673 C18.7503555,38.4179175 19.2496445,38.4179175 19.7556818,38.5766673 C20.5923295,38.8412502 21.5099432,39 22.4545455,39 C24.0198864,39 25.5245033,38.3517726 27.1505682,37.3595857 C28.7766331,36.3674005 30.4701705,34.9915692 32.0625,33.2850083 C35.2471591,29.8785024 38,25.1490834 38,19.7912778 C38,13.5405061 32.5145601,8.52004415 25.9090909,8.52004415 C24.1345876,8.52004415 22.4950293,8.94337687 20.9971591,9.63129254 C20.9904124,9.5849901 20.956677,9.50561522 20.9431818,9.41962618 C21.8270601,4.90187189 25.0454545,3.22838515 25.0454545,3.22838515 L23.3181818,0.26505611 C23.3181818,0.26505611 20.8824578,1.70041819 19.1079545,4.76296626 C18.5479399,3.92291497 17.8057533,3.09609368 16.8948864,2.38171971 C14.1555406,0.238597815 10.7954545,-0.0127551404 9.28409091,0.000473160418 Z M10.9573864,3.59880128 C12.1516331,3.7773952 13.6292614,4.16103963 14.7357955,5.02754921 C15.8625715,5.9072871 16.6182533,7.1971294 17.0568182,8.30837779 C15.8558247,8.13639972 14.3512078,7.70645116 13.2244318,6.82671327 C12.111151,5.95358954 11.3959513,4.70343552 10.9573864,3.59880128 Z M12.0909091,11.9067059 C14.3377126,11.9067059 16.3348717,12.7070689 17.8664773,13.9704529 L19,14.870035 L20.1335227,13.9704529 C21.6651283,12.7070689 23.6622874,11.9067059 25.9090909,11.9067059 C30.753552,11.9067059 34.5454545,15.4851899 34.5454545,19.7912778 C34.5454545,23.9915326 32.298651,28.0462659 29.5255682,31.0095949 C28.142401,32.4912594 26.6377841,33.6488103 25.3153409,34.4491733 C23.9928977,35.2495363 22.7919043,35.6133382 22.4545455,35.6133382 C21.8877841,35.6133382 21.3547581,35.5141192 20.8352273,35.3487553 C19.6477273,34.971725 18.3522727,34.971725 17.1647727,35.3487553 C16.6452419,35.5141192 16.1122159,35.6133382 15.5454545,35.6133382 C15.079901,35.6133382 13.8856543,35.3487553 12.5767045,34.6608396 C11.2677565,33.9729239 9.78338155,32.907978 8.42045455,31.5387608 C5.69460227,28.8003281 3.45454545,24.8712705 3.45454545,19.7912778 C3.45454545,15.4851899 7.24644973,11.9067059 12.0909091,11.9067059 Z" id="Shape"></path>
        </g>
    </g>
</svg>