<?xml version="1.0" encoding="UTF-8"?>
<svg width="48px" height="48px" viewBox="0 0 48 48" version="1.1" xmlns="http://www.w3.org/2000/svg" xmlns:xlink="http://www.w3.org/1999/xlink">
    <!-- Generator: Sketch 63.1 (92452) - https://sketch.com -->
    <title>Icons/icons-food/eggplant</title>
    <desc>Created with Sketch.</desc>
    <g id="Icons/icons-food/eggplant" stroke="none" stroke-width="1" fill="none" fill-rule="evenodd">
        <g id="icon-eggplant" transform="translate(6.000000, 6.537109)" fill="#545454">
            <path d="M31.4453125,0 C31.4453125,0 29.6936031,2.77099687 27.5390625,5.6640625 C27.2155766,5.9021 26.8737797,5.97534219 26.4648438,6.00585938 C25.8850094,6.0546875 25.1586922,5.92041094 24.4628906,5.6640625 C23.0651859,5.14526406 21.875,4.24804688 21.875,4.24804688 L19.9707031,6.68945312 C19.9707031,6.68945312 21.3867188,7.87353594 23.3398438,8.59375 C23.8037109,8.76464844 24.3225094,8.92944375 24.8535156,9.03320312 C24.3530281,9.59472656 23.87085,10.0952156 23.3886719,10.546875 C22.5097656,11.37085 21.9787594,12.2131344 21.5820312,13.1835938 L24.4628906,14.3554688 C24.7741703,13.5925297 24.9023438,13.3850094 25.5371094,12.7929688 C26.1230469,12.2436531 26.7639156,11.676025 27.34375,11.0351562 C28.0151375,12.9516609 29.3518063,14.6301266 30.859375,16.0644531 L33.0078125,13.8183594 C31.7443844,12.6159672 30.7495125,11.2304688 30.3222656,10.0097656 C29.8950203,8.7890625 29.9133297,7.86743125 30.6640625,6.8359375 C32.6965328,4.0588375 34.1308594,1.66015625 34.1308594,1.66015625 L31.4453125,0 Z M19.2871094,8.15429688 C18.2739266,8.89892656 17.4621578,9.77172813 16.6992188,10.6445312 C15.8752438,11.5844734 15.0085453,12.5732422 13.9160156,13.3300781 C11.9934078,14.6667484 9.9182125,15.3076172 7.91015625,15.9179688 C4.01000937,17.1020516 0,18.3349609 0,24.7070312 C0,29.1259766 3.72314531,33.8378906 9.27734375,33.8378906 C15.4174813,33.8378906 22.4060062,30.2001953 26.6601562,24.8046875 C28.4423828,22.5402828 29.6142578,20.1049812 30.1757812,17.6269531 C29.0771484,16.7175297 28.125,15.6494141 27.3925781,14.5507812 C27.34375,18.0053719 25.7690437,20.9289547 24.21875,22.9003906 C20.5871578,27.5085453 14.4287109,30.7128906 9.27734375,30.7128906 C5.65185625,30.7128906 3.125,27.5573734 3.125,24.7070312 C3.125,20.8129891 4.87670937,20.0988766 8.83789062,18.8964844 C10.9741219,18.2495125 13.3972172,17.5292969 15.7226562,15.9179688 C17.1325687,14.9414062 18.1396484,13.7756344 19.0429688,12.7441406 C20.2270516,11.4013672 21.1730953,10.3759766 22.6074219,9.9609375 C21.4294438,9.52148438 20.2880859,8.89892656 19.2871094,8.15429688 Z" id="Shape"></path>
        </g>
    </g>
</svg>