<?xml version="1.0" encoding="UTF-8"?>
<svg width="48px" height="48px" viewBox="0 0 48 48" version="1.1" xmlns="http://www.w3.org/2000/svg" xmlns:xlink="http://www.w3.org/1999/xlink">
    <!-- Generator: Sketch 63.1 (92452) - https://sketch.com -->
    <title>Icons/icons-food/food-bar</title>
    <desc>Created with Sketch.</desc>
    <g id="Icons/icons-food/food-bar" stroke="none" stroke-width="1" fill="none" fill-rule="evenodd">
        <g id="icon-food-bar" transform="translate(2.000000, 3.000000)" fill="#545454">
            <path d="M37.5,0 L37.5,4.6875 L40.625,4.6875 L40.625,0 L37.5,0 Z M31.25,1.5625 L31.25,4.6875 L34.375,4.6875 L34.375,1.5625 L31.25,1.5625 Z M15.625,7.8125 C13.3090444,7.8125 11.5382903,9.26582672 10.4644775,11.1511231 C10.0980656,11.0817828 9.76417391,10.9375 9.375,10.9375 C5.94166578,10.9375 3.125,13.7541656 3.125,17.1875 L3.125,18.75 L0,18.75 L0,20.3125 C0,26.5625 4.6875,34.375 15.625,34.375 L24.2797844,34.375 C23.4704094,33.471875 22.8353266,32.415625 22.4212641,31.25 L15.625,31.25 C6.978125,31.25 3.89677734,25.778125 3.25927734,21.875 L21.875,21.875 L21.875,18.75 L6.25,18.75 L6.25,17.1875 C6.25,15.4427094 7.63020922,14.0625 9.375,14.0625 C9.77857984,14.0625 10.1646308,14.1445453 10.5377197,14.2944344 L12.1673584,14.9505609 L12.6281737,13.2507328 C12.9887806,11.9170092 14.170925,10.9375 15.625,10.9375 C16.4264578,10.9375 17.1345125,11.2402439 17.7032469,11.7523194 L18.75,12.6953125 L19.7967531,11.7523194 C20.3654875,11.2402439 21.0735422,10.9375 21.875,10.9375 L21.875,7.8125 C20.7098578,7.8125 19.6773812,8.22084125 18.75,8.77685547 C17.8226187,8.22084125 16.7901422,7.8125 15.625,7.8125 Z M25,7.8125 L25,28.125 C25,31.5583344 27.8166656,34.375 31.25,34.375 L40.625,34.375 C44.0583344,34.375 46.875,31.5583344 46.875,28.125 L46.875,7.8125 L45.3125,7.8125 L25,7.8125 Z M28.125,10.9375 L43.75,10.9375 L43.75,28.125 C43.75,29.8697906 42.3697906,31.25 40.625,31.25 L31.25,31.25 C29.5052094,31.25 28.125,29.8697906 28.125,28.125 L28.125,10.9375 Z M0,37.5 L0,40.625 L46.875,40.625 L46.875,37.5 L0,37.5 Z" id="Shape"></path>
        </g>
    </g>
</svg>