<?xml version="1.0" encoding="UTF-8"?>
<svg width="48px" height="48px" viewBox="0 0 48 48" version="1.1" xmlns="http://www.w3.org/2000/svg" xmlns:xlink="http://www.w3.org/1999/xlink">
    <!-- Generator: Sketch 63.1 (92452) - https://sketch.com -->
    <title>Icons/icons-food/hamburger</title>
    <desc>Created with Sketch.</desc>
    <g id="Icons/icons-food/hamburger" stroke="none" stroke-width="1" fill="none" fill-rule="evenodd">
        <g id="icon-hamburger" transform="translate(5.367188, 8.000000)" fill="#545454">
            <path d="M11.1328125,0 C5.97534219,0 1.7578125,4.21752969 1.7578125,9.375 L1.7578125,9.765625 L0,12.109375 C0.555420313,12.5244141 1.13525469,12.7990719 1.7578125,12.9882812 L1.7578125,16.8457031 C0.805664062,17.7062984 0.1953125,18.9392094 0.1953125,20.3125 C0.1953125,21.6857906 0.805664062,22.9187016 1.7578125,23.7792969 L1.7578125,28.125 C1.7578125,29.8339844 3.17382812,31.25 4.8828125,31.25 L33.0078125,31.25 C34.7167969,31.25 36.1328125,29.8339844 36.1328125,28.125 L36.1328125,23.7792969 C37.0849609,22.9187016 37.6953125,21.6857906 37.6953125,20.3125 C37.6953125,18.9392094 37.0849609,17.7062984 36.1328125,16.8457031 L36.1328125,12.9882812 C36.7553719,12.7990719 37.3352047,12.5244141 37.890625,12.109375 L36.1328125,9.71679688 L36.1328125,9.375 C36.1328125,4.21752969 31.9152828,0 26.7578125,0 L11.1328125,0 Z M11.1328125,3.125 L12.6953125,3.125 C12.6953125,3.98559531 13.3972172,4.6875 14.2578125,4.6875 C15.1184078,4.6875 15.8203125,3.98559531 15.8203125,3.125 L26.7578125,3.125 C30.2246094,3.125 33.0078125,5.90820312 33.0078125,9.375 L33.0078125,10.15625 C32.6049812,10.0463875 32.2326656,9.83276406 31.8847656,9.5703125 L31.0546875,8.984375 L30.1269531,9.52148438 L28.9550781,10.2050781 C27.8625484,10.8581547 26.5319828,10.8581547 25.4394531,10.2050781 L24.2675781,9.52148438 L23.5351562,9.08203125 L22.7539062,9.42382812 L20.5078125,10.5957031 C19.5373531,11.0778812 18.4021,11.0778812 17.4316406,10.5957031 L15.1367188,9.42382812 L14.3554688,9.08203125 L13.6230469,9.52148438 L12.4511719,10.2050781 C11.3586422,10.8581547 10.0280766,10.8581547 8.93554688,10.2050781 L7.76367188,9.52148438 L6.8359375,8.984375 L6.00585938,9.5703125 C5.65795938,9.83276406 5.27954062,10.0463875 4.8828125,10.15625 L4.8828125,9.375 C4.8828125,5.90820312 7.66601562,3.125 11.1328125,3.125 Z M11.1328125,4.6875 C10.2722172,4.6875 9.5703125,5.38940469 9.5703125,6.25 C9.5703125,7.11059531 10.2722172,7.8125 11.1328125,7.8125 C11.9934078,7.8125 12.6953125,7.11059531 12.6953125,6.25 C12.6953125,5.38940469 11.9934078,4.6875 11.1328125,4.6875 Z M17.3828125,4.6875 C16.5222172,4.6875 15.8203125,5.38940469 15.8203125,6.25 C15.8203125,7.11059531 16.5222172,7.8125 17.3828125,7.8125 C18.2434078,7.8125 18.9453125,7.11059531 18.9453125,6.25 C18.9453125,5.38940469 18.2434078,4.6875 17.3828125,4.6875 Z M6.68945312,12.5 L7.32421875,12.890625 C9.39941406,14.1357422 11.9873047,14.1357422 14.0625,12.890625 L14.5019531,12.5976562 L16.015625,13.3789062 C17.8588875,14.3005375 20.0317391,14.3005375 21.875,13.3789062 L23.3886719,12.5976562 L23.828125,12.890625 C25.9033203,14.1357422 28.4912109,14.1357422 30.5664062,12.890625 L31.2011719,12.5 C31.7871094,12.7807625 32.3852547,12.9577641 33.0078125,13.0859375 L33.0078125,15.625 L4.8828125,15.625 L4.8828125,13.0859375 C5.50537187,12.9577641 6.10351562,12.7807625 6.68945312,12.5 Z M4.8828125,18.75 L33.0078125,18.75 C33.8928219,18.75 34.5703125,19.4274906 34.5703125,20.3125 C34.5703125,21.1975094 33.8928219,21.875 33.0078125,21.875 L4.8828125,21.875 C3.99780313,21.875 3.3203125,21.1975094 3.3203125,20.3125 C3.3203125,19.4274906 3.99780313,18.75 4.8828125,18.75 Z M4.8828125,25 L33.0078125,25 L33.0078125,28.125 L4.8828125,28.125 L4.8828125,25 Z" id="Shape"></path>
        </g>
    </g>
</svg>