<?xml version="1.0" encoding="UTF-8"?>
<svg width="48px" height="48px" viewBox="0 0 48 48" version="1.1" xmlns="http://www.w3.org/2000/svg" xmlns:xlink="http://www.w3.org/1999/xlink">
    <!-- Generator: Sketch 63.1 (92452) - https://sketch.com -->
    <title>Icons/icons-category/bag-lady</title>
    <desc>Created with Sketch.</desc>
    <g id="Icons/icons-category/bag-lady" stroke="none" stroke-width="1" fill="none" fill-rule="evenodd">
        <g id="icon-red-purse" transform="translate(7.000000, 5.000000)" fill="#FFFFFF">
            <path d="M17.1875,0 C12.8913813,0 9.375,3.51638109 9.375,7.8125 L9.375,9.375 L3.50952156,9.375 L3.18603516,10.5072022 C3.18603516,10.5072022 0,21.6435188 0,35.9375 L0,37.5 L34.375,37.5 L34.375,35.9375 C34.375,21.6435188 31.1889656,10.5072022 31.1889656,10.5072022 L30.8654781,9.375 L25,9.375 L25,7.8125 C25,3.51638109 21.4836188,0 17.1875,0 Z M17.1875,3.125 C19.7945062,3.125 21.875,5.20549391 21.875,7.8125 L21.875,9.375 L12.5,9.375 L12.5,7.8125 C12.5,5.20549391 14.5804938,3.125 17.1875,3.125 Z M5.94482422,12.5 L28.430175,12.5 C28.5302922,12.8703969 28.7432563,13.7011453 29.0069578,14.9108891 L17.1875,20.1660156 L5.36804203,14.9108891 C5.63174422,13.7011453 5.84470766,12.8703969 5.94482422,12.5 Z M4.77600094,18.0694578 L15.625,22.8881844 L15.625,26.5625 L18.75,26.5625 L18.75,22.8881844 L29.5989984,18.0694578 C30.2993922,21.9696359 31.0530438,27.4815531 31.1737063,34.375 L3.20129391,34.375 C3.32195625,27.4815531 4.07560828,21.9696359 4.77600094,18.0694578 Z" id="Shape"></path>
        </g>
    </g>
</svg>