<?xml version="1.0" encoding="UTF-8"?>
<svg width="48px" height="48px" viewBox="0 0 48 48" version="1.1" xmlns="http://www.w3.org/2000/svg" xmlns:xlink="http://www.w3.org/1999/xlink">
    <!-- Generator: Sketch 63.1 (92452) - https://sketch.com -->
    <title>Icons/icons-category/bar</title>
    <desc>Created with Sketch.</desc>
    <g id="Icons/icons-category/bar" stroke="none" stroke-width="1" fill="none" fill-rule="evenodd">
        <g id="icon-hair-dryer" transform="translate(2.000000, 4.000000)" fill="#FFFFFF">
            <path d="M12.5,0 C5.61523438,0 0,5.61523438 0,12.5 C0,16.2841797 1.67236406,19.6777344 4.34570312,21.9726562 L1.5625,36.1816406 L1.5625,36.328125 C1.37329063,38.6047359 3.18603594,40.625 5.46875,40.625 L15.625,40.625 L15.625,37.5 L12.8417969,37.5 L15.3808594,24.8046875 C21.3134766,24.1271969 27.9541016,21.6613766 33.203125,20.2636719 L34.375,19.9707031 L34.375,6.640625 L33.203125,6.29882812 C30.1513672,5.46875 26.6113281,3.948975 23.046875,2.58789062 C19.4824219,1.22680625 15.9057625,0 12.5,0 Z M12.5,3.125 C15.1306156,3.125 18.4570312,4.1442875 21.9238281,5.46875 C25.0061031,6.64672813 28.1982422,7.94677813 31.25,8.88671875 L31.25,17.578125 C25.0671391,19.2993172 17.7062984,21.875 12.5,21.875 C7.30590781,21.875 3.125,17.6940922 3.125,12.5 C3.125,7.30590781 7.30590781,3.125 12.5,3.125 Z M12.5,6.25 C9.06372031,6.25 6.25,9.06372031 6.25,12.5 C6.25,15.9362797 9.06372031,18.75 12.5,18.75 C15.9362797,18.75 18.75,15.9362797 18.75,12.5 C18.75,9.06372031 15.9362797,6.25 12.5,6.25 Z M37.5,7.8125 L37.5,10.9375 L45.3125,10.9375 L45.3125,7.8125 L37.5,7.8125 Z M12.5,9.375 C14.2456063,9.375 15.625,10.7543953 15.625,12.5 C15.625,14.2456063 14.2456063,15.625 12.5,15.625 C10.7543953,15.625 9.375,14.2456063 9.375,12.5 C9.375,10.7543953 10.7543953,9.375 12.5,9.375 Z M37.5,12.5 L37.5,15.625 L45.3125,15.625 L45.3125,12.5 L37.5,12.5 Z M37.5,17.1875 L37.5,20.3125 L45.3125,20.3125 L45.3125,17.1875 L37.5,17.1875 Z M7.17773437,23.7792969 C8.70361406,24.5056156 10.3759766,24.9511719 12.1582031,25 L9.66796875,37.5 L5.46875,37.5 C4.96215781,37.5 4.644775,37.1276859 4.6875,36.6210938 L7.17773437,23.7792969 Z" id="Shape"></path>
        </g>
    </g>
</svg>