<?xml version="1.0" encoding="UTF-8"?>
<svg width="48px" height="48px" viewBox="0 0 48 48" version="1.1" xmlns="http://www.w3.org/2000/svg" xmlns:xlink="http://www.w3.org/1999/xlink">
    <!-- Generator: Sketch 63.1 (92452) - https://sketch.com -->
    <title>Icons/icons-category/car</title>
    <desc>Created with Sketch.</desc>
    <g id="Icons/icons-category/car" stroke="none" stroke-width="1" fill="none" fill-rule="evenodd">
        <g id="icon-suv" transform="translate(0.000000, 9.000000)" fill="#FFFFFF">
            <path d="M9.890625,0.75 C7.8867195,0.75 6.035157,1.7519535 4.921875,3.421875 L0.75,9.65625 C0.2578125,10.394532 0,11.25 0,12.140625 L0,22.078125 C0,23.4492195 0.9199215,24.650391 2.25,24.984375 L6.140625,25.96875 C6.703125,28.693359 9.1171875,30.75 12,30.75 C14.7773445,30.75 17.097657,28.828125 17.765625,26.25 L31.734375,26.25 C32.4023445,28.828125 34.722657,30.75 37.5,30.75 C40.2773445,30.75 42.597657,28.828125 43.265625,26.25 L45,26.25 C46.640625,26.25 48,24.890625 48,23.25 L48,17.765625 C48,15.0175785 46.119141,12.615234 43.453125,11.953125 L35.34375,9.890625 L29.484375,2.90625 C28.3417965,1.541016 26.671875,0.75 24.890625,0.75 L9.890625,0.75 Z M9.890625,3.75 L16.5,3.75 L16.5,9.75 L4.3125,9.75 L7.40625,5.109375 L7.40625,5.0625 C7.962891,4.224609 8.8828125,3.75 9.890625,3.75 Z M19.5,3.75 L24.890625,3.75 C25.78125,3.75 26.619141,4.1425785 27.1875,4.828125 L31.3125,9.75 L19.5,9.75 L19.5,3.75 Z M3,12.75 L34.3125,12.75 L42.75,14.859375 C44.0917965,15.193359 45,16.3828125 45,17.765625 L45,23.25 L43.265625,23.25 C42.597657,20.671875 40.2773445,18.75 37.5,18.75 C34.722657,18.75 32.4023445,20.671875 31.734375,23.25 L17.765625,23.25 C17.097657,20.671875 14.7773445,18.75 12,18.75 C9.3398445,18.75 7.1074215,20.5078125 6.328125,22.921875 L3,22.078125 L3,12.75 Z M12,21.75 C13.675782,21.75 15,23.0742195 15,24.75 C15,26.425782 13.675782,27.75 12,27.75 C10.3242195,27.75 9,26.425782 9,24.75 C9,23.0742195 10.3242195,21.75 12,21.75 Z M37.5,21.75 C39.175782,21.75 40.5,23.0742195 40.5,24.75 C40.5,26.425782 39.175782,27.75 37.5,27.75 C35.8242195,27.75 34.5,26.425782 34.5,24.75 C34.5,23.0742195 35.8242195,21.75 37.5,21.75 Z" id="Shape"></path>
        </g>
    </g>
</svg>