<?xml version="1.0" encoding="UTF-8"?>
<svg width="48px" height="48px" viewBox="0 0 48 48" version="1.1" xmlns="http://www.w3.org/2000/svg" xmlns:xlink="http://www.w3.org/1999/xlink">
    <!-- Generator: Sketch 63.1 (92452) - https://sketch.com -->
    <title>Icons/icons-category/check</title>
    <desc>Created with Sketch.</desc>
    <g id="Icons/icons-category/check" stroke="none" stroke-width="1" fill="none" fill-rule="evenodd">
        <g id="icon-verified-account" transform="translate(5.000000, 5.000000)" fill="#FFFFFF">
            <path d="M18.75,0 C16.1376953,0 13.8366703,1.29394531 12.4206547,3.27148438 C11.9262703,3.17382812 11.4318844,3.125 10.9375,3.125 C8.93554688,3.125 6.93969688,3.88793906 5.41381875,5.41381875 C3.50952188,7.31811562 2.79541094,9.9609375 3.26538125,12.4206547 C1.29394531,13.8366703 0,16.1376953 0,18.75 C0,21.3623047 1.29394531,23.6633297 3.27148438,25.0793453 C2.79541094,27.5390625 3.50952188,30.1818844 5.41381875,32.0861813 C6.93969688,33.6120609 8.93554688,34.375 10.9375,34.375 C11.4318844,34.375 11.9323734,34.3261719 12.4206547,34.2285156 C13.8366703,36.2060547 16.1376953,37.5 18.75,37.5 C21.3623047,37.5 23.6633297,36.2060547 25.0793453,34.2285156 C25.5737312,34.3261719 26.0681156,34.375 26.5625,34.375 C28.5644531,34.375 30.5603031,33.6120609 32.0861813,32.0861813 C33.9904781,30.1818844 34.7045906,27.5390625 34.2346188,25.0793453 C36.2060547,23.6633297 37.5,21.3623047 37.5,18.75 C37.5,16.1376953 36.2060547,13.8366703 34.2285156,12.4206547 C34.7045906,9.9609375 33.9904781,7.31811562 32.0861813,5.41381875 C30.5603031,3.88793906 28.5644531,3.125 26.5625,3.125 C26.0681156,3.125 25.5676266,3.17382812 25.0793453,3.27148438 C23.6633297,1.29394531 21.3623047,0 18.75,0 Z M18.75,3.125 C20.2636719,3.125 21.6491703,3.84521562 22.5463875,5.09033281 L23.7121578,6.71386719 L25.6713875,6.33545 C25.9643562,6.28051719 26.2695312,6.25 26.5625,6.25 C27.819825,6.25 28.9917,6.73828125 29.8767094,7.62329063 C30.9753422,8.72192344 31.4575203,10.2966312 31.1645516,11.8286141 L30.7861328,13.7939453 L32.4096687,14.9597172 C33.6608891,15.8569344 34.375,17.2363281 34.375,18.75 C34.375,20.2636719 33.6547859,21.6491703 32.4035641,22.5463875 L30.7861328,23.7121578 L31.1645516,25.6713875 C31.4575203,27.2033688 30.9753422,28.7780766 29.8767094,29.8767094 C28.9917,30.7617188 27.819825,31.25 26.5625,31.25 C26.2695312,31.25 25.9643562,31.2194828 25.6713875,31.1645516 L23.7121578,30.7861328 L22.5463875,32.4096687 C21.6491703,33.6608891 20.2636719,34.375 18.75,34.375 C17.2363281,34.375 15.8508297,33.6547859 14.9536141,32.4035641 L13.7878422,30.7861328 L11.8286141,31.1645516 C11.5356453,31.2194828 11.2304688,31.25 10.9375,31.25 C9.68017656,31.25 8.50830156,30.7617188 7.62329063,29.8767094 C6.52465781,28.7780766 6.04248125,27.2033688 6.33545,25.6713875 L6.71386719,23.7060547 L5.09033281,22.5402828 C3.84521562,21.6430672 3.125,20.2636719 3.125,18.75 C3.125,17.2363281 3.84521562,15.8508297 5.09033281,14.9536141 L6.71386719,13.7878422 L6.33545,11.8286141 C6.04248125,10.2966312 6.52465781,8.72192344 7.62329063,7.62329063 C8.50830156,6.73828125 9.68017656,6.25 10.9375,6.25 C11.2304688,6.25 11.5356453,6.28051719 11.8286141,6.33545 L13.7878422,6.71386719 L14.9536141,5.09033281 C15.8508297,3.83911094 17.2363281,3.125 18.75,3.125 Z M24.3164062,14.0625 L17.1875,21.1914062 L13.1835938,17.1875 L10.9375,19.4335938 L16.0644531,24.5605469 L17.1875,25.6347656 L18.3105469,24.5605469 L26.5625,16.3085938 L24.3164062,14.0625 Z" id="Shape"></path>
        </g>
    </g>
</svg>