<?xml version="1.0" encoding="UTF-8"?>
<svg width="48px" height="48px" viewBox="0 0 48 48" version="1.1" xmlns="http://www.w3.org/2000/svg" xmlns:xlink="http://www.w3.org/1999/xlink">
    <!-- Generator: Sketch 63.1 (92452) - https://sketch.com -->
    <title>Icons/icons-category/homeitem</title>
    <desc>Created with Sketch.</desc>
    <g id="Icons/icons-category/homeitem" stroke="none" stroke-width="1" fill="none" fill-rule="evenodd">
        <g id="icon-washing-machine" transform="translate(8.000000, 5.000000)" fill="#FFFFFF">
            <path d="M0,0 L0,37.5 L31.25,37.5 L31.25,0 L0,0 Z M3.125,3.125 L28.125,3.125 L28.125,34.375 L3.125,34.375 L3.125,3.125 Z M18.75,6.25 C17.8894047,6.25 17.1875,6.95190469 17.1875,7.8125 C17.1875,8.67309531 17.8894047,9.375 18.75,9.375 C19.6105953,9.375 20.3125,8.67309531 20.3125,7.8125 C20.3125,6.95190469 19.6105953,6.25 18.75,6.25 Z M23.4375,6.25 C22.5769047,6.25 21.875,6.95190469 21.875,7.8125 C21.875,8.67309531 22.5769047,9.375 23.4375,9.375 C24.2980953,9.375 25,8.67309531 25,7.8125 C25,6.95190469 24.2980953,6.25 23.4375,6.25 Z M15.625,12.5 C10.4675297,12.5 6.25,16.7175297 6.25,21.875 C6.25,27.0324703 10.4675297,31.25 15.625,31.25 C20.7824703,31.25 25,27.0324703 25,21.875 C25,16.7175297 20.7824703,12.5 15.625,12.5 Z M15.625,15.625 C18.8781734,15.625 21.4599609,18.0786141 21.7773438,21.2402344 C21.1792,21.6674812 20.6298828,21.7163094 19.8730469,21.6308594 C18.8903812,21.5209969 17.6269531,21.0449219 16.2597656,20.4589844 C14.8925781,19.8730469 13.4216312,19.1772469 11.7675781,18.9941406 C11.2121578,18.9331062 10.6506344,18.9941406 10.0585938,19.0917969 C11.0778812,17.0410156 13.1591797,15.625 15.625,15.625 Z M10.6933594,22.0703125 C10.9008797,22.0581062 11.1328125,22.0947266 11.3769531,22.1191406 C12.3596188,22.2290047 13.6230469,22.7050781 14.9902344,23.2910156 C16.3574219,23.8769531 17.8283688,24.5727547 19.4824219,24.7558594 C20.0378422,24.8168953 20.5993656,24.7558594 21.1914062,24.6582031 C20.1721188,26.7089844 18.0908203,28.125 15.625,28.125 C12.3718266,28.125 9.79003906,25.6713875 9.47265625,22.5097656 C9.87548906,22.2229 10.2600094,22.0886234 10.6933594,22.0703125 Z" id="Shape"></path>
        </g>
    </g>
</svg>