<?xml version="1.0" encoding="UTF-8"?>
<svg width="48px" height="48px" viewBox="0 0 48 48" version="1.1" xmlns="http://www.w3.org/2000/svg" xmlns:xlink="http://www.w3.org/1999/xlink">
    <!-- Generator: Sketch 63.1 (92452) - https://sketch.com -->
    <title>Icons/icons-category/med</title>
    <desc>Created with Sketch.</desc>
    <g id="Icons/icons-category/med" stroke="none" stroke-width="1" fill="none" fill-rule="evenodd">
        <g id="icon-stethoscope" transform="translate(2.000000, 3.000000)" fill="#FFFFFF">
            <path d="M6.25,0 C5.01709062,0 3.97338906,0.720215625 3.46679688,1.7578125 C1.48925781,2.30712969 0,4.10766562 0,6.25 L0,20.8984375 L0.390625,21.3378906 C0.390625,21.3378906 4.07104531,25.6469734 9.375,26.4160156 L9.375,29.6875 C9.375,34.8449703 13.5925297,39.0625 18.75,39.0625 C23.9074703,39.0625 28.125,34.8449703 28.125,29.6875 L28.125,21.875 C28.125,20.1293953 29.5043953,18.75 31.25,18.75 C32.9956062,18.75 34.375,20.1293953 34.375,21.875 L34.375,22.1679688 C32.5683594,22.8210453 31.25,24.5422359 31.25,26.5625 C31.25,29.1320797 33.3679203,31.25 35.9375,31.25 C38.5070797,31.25 40.625,29.1320797 40.625,26.5625 C40.625,24.5422359 39.3066406,22.8210453 37.5,22.1679688 L37.5,21.875 C37.5,18.4387203 34.6862797,15.625 31.25,15.625 C27.8137203,15.625 25,18.4387203 25,21.875 L25,29.6875 C25,33.1542969 22.2167969,35.9375 18.75,35.9375 C15.2832031,35.9375 12.5,33.1542969 12.5,29.6875 L12.5,26.4160156 C17.8039547,25.6469734 21.484375,21.3378906 21.484375,21.3378906 L21.875,20.8984375 L21.875,6.25 C21.875,4.10766562 20.3857422,2.30712969 18.4082031,1.7578125 C17.9016109,0.720215625 16.8579109,0 15.625,0 C13.8977047,0 12.5,1.39770469 12.5,3.125 C12.5,4.85229531 13.8977047,6.25 15.625,6.25 C16.6503906,6.25 17.5476078,5.7495125 18.1152344,4.98046875 C18.5058594,5.26123125 18.75,5.71899375 18.75,6.25 L18.75,19.6289062 C18.1884766,20.1965328 14.8620609,23.4375 10.9375,23.4375 C7.01293906,23.4375 3.68652344,20.1965328 3.125,19.6289062 L3.125,6.25 C3.125,5.71899375 3.36914062,5.26123125 3.75976562,4.98046875 C4.32739219,5.7495125 5.22460937,6.25 6.25,6.25 C7.97729531,6.25 9.375,4.85229531 9.375,3.125 C9.375,1.39770469 7.97729531,0 6.25,0 Z M35.9375,25 C36.8164062,25 37.5,25.6835938 37.5,26.5625 C37.5,27.4414062 36.8164062,28.125 35.9375,28.125 C35.0585938,28.125 34.375,27.4414062 34.375,26.5625 C34.375,25.6835938 35.0585938,25 35.9375,25 Z" id="Shape"></path>
        </g>
    </g>
</svg>