<?xml version="1.0" encoding="UTF-8"?>
<svg width="48px" height="48px" viewBox="0 0 48 48" version="1.1" xmlns="http://www.w3.org/2000/svg" xmlns:xlink="http://www.w3.org/1999/xlink">
    <!-- Generator: Sketch 63.1 (92452) - https://sketch.com -->
    <title>Icons/icons-category/painting</title>
    <desc>Created with Sketch.</desc>
    <g id="Icons/icons-category/painting" stroke="none" stroke-width="1" fill="none" fill-rule="evenodd">
        <g id="icon-paint-palette" transform="translate(3.515969, 3.506818)" fill="#FFFFFF">
            <path d="M19.7242655,0.00685418337 C18.8941874,0.0312682459 18.0396952,0.122821371 17.185203,0.250994808 L17.1363749,0.250994808 C8.81728266,1.61207918 2.07900141,8.16725418 0.388327977,16.4619323 C-0.11826421,18.8239932 -0.0877454601,21.027362 0.241843602,23.2002136 C0.254051415,23.2063167 0.241843602,23.2368354 0.241843602,23.2490417 C0.754538915,26.9172542 5.5152811,28.5224792 8.20082798,25.8369323 C10.1234358,23.9143245 12.9676733,23.9143245 14.8902811,25.8369323 C16.8128889,27.7595401 16.8128889,30.6037776 14.8902811,32.5263854 C12.2047342,35.2119323 13.8099592,39.9726745 17.4781717,40.4853698 C17.4903795,40.4853698 17.5208967,40.4731636 17.5269999,40.4853698 C19.6815405,40.8149604 21.872703,40.8332698 24.216453,40.3388854 C24.2347639,40.3388854 24.2469702,40.3388854 24.2652811,40.3388854 C32.5843733,38.7885932 39.1212389,31.8916198 40.4762186,23.5908386 L40.4762186,23.5420104 C42.2462389,11.6035339 33.5182108,1.17872918 22.1656717,0.104510433 C21.3539045,0.0251651209 20.5543436,-0.0175598791 19.7242655,0.00685418337 Z M19.7730936,3.13185418 C20.4811014,3.10744012 21.1830061,3.11964793 21.872703,3.18068231 C31.5528795,4.06569168 38.9137186,12.8913761 37.4000467,23.1025573 C36.2586889,30.097187 30.6495592,35.9809761 23.6793436,37.2627136 L23.6305155,37.2627136 C21.6346655,37.6899604 19.7914045,37.6960636 17.9176249,37.4091979 C16.6358874,37.2505073 16.0438452,35.8161807 17.0875467,34.7724792 C20.1637186,31.6963073 20.1637186,26.7158386 17.0875467,23.6396667 C14.0113749,20.5634948 9.0309061,20.5634948 5.95473423,23.6396667 C4.91103266,24.6833682 3.47670766,24.0913276 3.31801548,22.8095886 C3.03114985,20.9358089 3.03725454,19.0925479 3.46449985,17.0966979 C4.89882641,10.0837589 10.630028,4.4685245 17.6246561,3.32716668 C18.357078,3.21730418 19.0650858,3.15626825 19.7730936,3.13185418 Z M17.2340311,6.30568231 C15.5067358,6.30568231 14.1090311,7.703387 14.1090311,9.43068231 C14.1090311,11.1579776 15.5067358,12.5556823 17.2340311,12.5556823 C18.9613264,12.5556823 20.3590311,11.1579776 20.3590311,9.43068231 C20.3590311,7.703387 18.9613264,6.30568231 17.2340311,6.30568231 Z M28.1715311,9.43068231 C26.4442358,9.43068231 25.0465311,10.828387 25.0465311,12.5556823 C25.0465311,14.2829776 26.4442358,15.6806823 28.1715311,15.6806823 C29.8988264,15.6806823 31.2965311,14.2829776 31.2965311,12.5556823 C31.2965311,10.828387 29.8988264,9.43068231 28.1715311,9.43068231 Z M9.4215311,12.5556823 C7.69423579,12.5556823 6.2965311,13.953387 6.2965311,15.6806823 C6.2965311,17.4079776 7.69423579,18.8056823 9.4215311,18.8056823 C11.1488264,18.8056823 12.5465311,17.4079776 12.5465311,15.6806823 C12.5465311,13.953387 11.1488264,12.5556823 9.4215311,12.5556823 Z M31.2965311,20.3681823 C29.5692358,20.3681823 28.1715311,21.765887 28.1715311,23.4931823 C28.1715311,25.2204776 29.5692358,26.6181823 31.2965311,26.6181823 C33.0238264,26.6181823 34.4215311,25.2204776 34.4215311,23.4931823 C34.4215311,21.765887 33.0238264,20.3681823 31.2965311,20.3681823 Z M25.0465311,28.1806823 C23.3192358,28.1806823 21.9215311,29.578387 21.9215311,31.3056823 C21.9215311,33.0329776 23.3192358,34.4306823 25.0465311,34.4306823 C26.7738264,34.4306823 28.1715311,33.0329776 28.1715311,31.3056823 C28.1715311,29.578387 26.7738264,28.1806823 25.0465311,28.1806823 Z" id="Shape"></path>
        </g>
    </g>
</svg>