<?xml version="1.0" encoding="UTF-8"?>
<svg width="48px" height="48px" viewBox="0 0 48 48" version="1.1" xmlns="http://www.w3.org/2000/svg" xmlns:xlink="http://www.w3.org/1999/xlink">
    <!-- Generator: Sketch 63.1 (92452) - https://sketch.com -->
    <title>Icons/icons-category/pants</title>
    <desc>Created with Sketch.</desc>
    <g id="Icons/icons-category/pants" stroke="none" stroke-width="1" fill="none" fill-rule="evenodd">
        <g id="icon-skirt" transform="translate(3.000000, 5.000000)" fill="#FFFFFF">
            <path d="M6.25,0 L6.25,5.90820312 C5.81054688,6.82983437 0,19.2016609 0,35.9375 L0,37.5 L40.625,37.5 L40.625,35.9375 C40.625,19.0246578 34.8144531,6.81762656 34.375,5.90820312 L34.375,0 L6.25,0 Z M9.375,3.125 L31.25,3.125 L31.25,4.6875 L9.375,4.6875 L9.375,3.125 Z M8.83789062,7.8125 L12.3535156,7.8125 C11.761475,10.7177734 9.5275875,13.0126953 6.68945312,13.7695312 C7.7026375,10.5102547 8.45336875,8.67309531 8.83789062,7.8125 Z M15.4785156,7.8125 L25.1464844,7.8125 C25.8605953,12.7502438 29.8583984,16.6503906 34.8632812,17.1386719 C36.0717781,21.7651375 37.1887203,27.6184078 37.3535156,34.375 L3.27148438,34.375 C3.43627969,27.6672359 4.54711875,21.7834469 5.76171875,17.1386719 C10.7666016,16.6503906 14.7644047,12.7502438 15.4785156,7.8125 Z M28.2714844,7.8125 L31.7871094,7.8125 C32.1716312,8.66699219 32.9162594,10.4980469 33.9355469,13.7695312 C31.0974125,13.0126953 28.863525,10.7177734 28.2714844,7.8125 Z" id="Shape"></path>
        </g>
    </g>
</svg>