<?xml version="1.0" encoding="UTF-8"?>
<svg width="48px" height="48px" viewBox="0 0 48 48" version="1.1" xmlns="http://www.w3.org/2000/svg" xmlns:xlink="http://www.w3.org/1999/xlink">
    <!-- Generator: Sketch 63.1 (92452) - https://sketch.com -->
    <title>Icons/icons-category/shipping</title>
    <desc>Created with Sketch.</desc>
    <g id="Icons/icons-category/shipping" stroke="none" stroke-width="1" fill="none" fill-rule="evenodd">
        <g id="icon-transportation" transform="translate(0.000000, 7.000000)" fill="#FFFFFF">
            <path d="M3.125,0 L3.125,17.1875 L0,17.1875 L0,31.25 L4.91333,31.25 C5.61625062,33.9309391 8.04635156,35.9375 10.9375,35.9375 C13.8181159,35.9375 16.1570641,33.9161922 16.8701172,31.25 L29.9133297,31.25 C30.61625,33.9309391 33.0463516,35.9375 35.9375,35.9375 C38.8286484,35.9375 41.25875,33.9309391 41.9616703,31.25 L46.875,31.25 L46.875,14.9780281 L36.5844719,4.6875 L28.125,4.6875 L28.125,17.1875 L25,17.1875 L25,0 L3.125,0 Z M6.25,3.125 L21.875,3.125 L21.875,17.1875 L6.25,17.1875 L6.25,3.125 Z M10.9375,6.25 L10.9375,9.375 L17.1875,9.375 L17.1875,6.25 L10.9375,6.25 Z M31.25,7.8125 L35.2905281,7.8125 L43.75,16.2719719 L43.75,28.125 L41.9616703,28.125 C41.25875,25.4440609 38.8286484,23.4375 35.9375,23.4375 C34.0669516,23.4375 32.3986797,24.2909453 31.25,25.6073 L31.25,7.8125 Z M3.125,20.3125 L28.125,20.3125 L28.125,28.125 L16.8701172,28.125 C16.1570641,25.4588078 13.8181159,23.4375 10.9375,23.4375 C8.04635156,23.4375 5.61625062,25.4440609 4.91333,28.125 L3.125,28.125 L3.125,20.3125 Z M10.9375,26.5625 C12.6822908,26.5625 14.0625,27.9427094 14.0625,29.6875 C14.0625,31.4322906 12.6822908,32.8125 10.9375,32.8125 C9.19270922,32.8125 7.8125,31.4322906 7.8125,29.6875 C7.8125,27.9427094 9.19270922,26.5625 10.9375,26.5625 Z M35.9375,26.5625 C37.6822906,26.5625 39.0625,27.9427094 39.0625,29.6875 C39.0625,31.4322906 37.6822906,32.8125 35.9375,32.8125 C34.1927094,32.8125 32.8125,31.4322906 32.8125,29.6875 C32.8125,27.9427094 34.1927094,26.5625 35.9375,26.5625 Z" id="Shape"></path>
        </g>
    </g>
</svg>