<?xml version="1.0" encoding="UTF-8"?>
<svg width="48px" height="48px" viewBox="0 0 48 48" version="1.1" xmlns="http://www.w3.org/2000/svg" xmlns:xlink="http://www.w3.org/1999/xlink">
    <!-- Generator: Sketch 63.1 (92452) - https://sketch.com -->
    <title>Icons/icons-category/shoe-lady</title>
    <desc>Created with Sketch.</desc>
    <g id="Icons/icons-category/shoe-lady" stroke="none" stroke-width="1" fill="none" fill-rule="evenodd">
        <g id="icon-women-shoe-side-view" transform="translate(4.000000, 7.000000)" fill="#FFFFFF">
            <path d="M2.16674813,0 L1.73339844,0.860595625 C1.73339844,0.860595625 1.22151469,1.94885156 0.808715781,4.21142578 C0.395916875,6.474 0,10.0763203 0,15.6158453 L0,15.7012938 L1.69677734,34.375 L9.375,34.375 L9.36889656,20.5566406 C10.8958769,21.9110344 12.3376217,23.4199297 13.6779781,25.1708984 C15.2965875,27.2853594 16.8162891,29.4760187 18.5638422,31.2316891 C20.3114031,32.9873594 22.4218172,34.375 25,34.375 L43.75,34.375 L43.75,32.8125 C43.75,29.1052047 41.4097891,26.3720469 39.2669672,24.6337891 C37.1241453,22.8955313 34.9823,21.9970703 34.9823,21.9970703 L34.6832281,21.8719484 L34.3566891,21.875 C34.3566891,21.875 26.4479922,21.7132344 23.0651859,17.7368156 C21.3549047,15.7263062 18.9306703,11.3426141 15.7775875,7.46459969 C12.6245047,3.58658578 8.5186075,0 3.13110344,0 L2.16674813,0 Z M4.25720219,3.31420906 C7.73516234,3.78188437 10.7281934,6.20967391 13.3514406,9.43603437 C16.2604672,13.0138828 18.5232203,17.2221312 20.6848141,19.7631844 C25.2165812,25.0901781 33.0534188,24.9685672 33.8806156,24.9481203 C33.9884594,24.9947609 35.588625,25.6752937 37.2955328,27.0599359 C38.6323219,28.1443391 39.6264453,29.6117594 40.1397703,31.25 L25,31.25 C23.5258391,31.25 22.2382125,30.4908391 20.7794188,29.0252687 C19.320625,27.5596984 17.8283391,25.4533625 16.1590578,23.2727047 C13.1110609,19.2909719 9.15091734,15.0887672 3.21350094,14.3554688 C3.28827688,9.9891625 3.55414344,6.56905031 3.88183594,4.77294922 C4.09748906,3.59094219 4.14235266,3.65596781 4.25720219,3.31420906 Z M3.30200188,17.4957281 C4.34768594,17.6662625 5.34510922,17.9252937 6.24389656,18.3563234 L6.25,31.25 L4.55322266,31.25 L3.30200188,17.4957281 Z" id="Shape"></path>
        </g>
    </g>
</svg>