<?xml version="1.0" encoding="UTF-8"?>
<svg width="48px" height="48px" viewBox="0 0 48 48" version="1.1" xmlns="http://www.w3.org/2000/svg" xmlns:xlink="http://www.w3.org/1999/xlink">
    <!-- Generator: Sketch 63.1 (92452) - https://sketch.com -->
    <title>Icons/icons-category/toy</title>
    <desc>Created with Sketch.</desc>
    <g id="Icons/icons-category/toy" stroke="none" stroke-width="1" fill="none" fill-rule="evenodd">
        <g id="icon-stroller" transform="translate(4.000000, 5.000000)" fill="#FFFFFF">
            <path d="M23.4375,0 L23.4375,14.0625 L10.4492188,14.0625 C10.0891109,13.2141109 9.51538125,12.0788578 8.54492188,10.7910156 C6.89697344,8.59985313 4.07104531,6.25 0,6.25 L0,9.375 C2.89917031,9.375 4.76074219,10.9313969 6.0546875,12.6464844 C7.28759844,14.2822266 7.76367188,15.8203125 7.8125,15.9667969 C7.94067344,21.2646484 11.0656734,25.8422859 15.5273438,28.125 C13.0004891,28.1799313 10.9375,30.2734375 10.9375,32.8125 C10.9375,35.3820797 13.0554203,37.5 15.625,37.5 C18.1945797,37.5 20.3125,35.3820797 20.3125,32.8125 C20.3125,31.4270016 19.7143563,30.1574703 18.75,29.296875 C19.7570797,29.5288094 20.8007812,29.6875 21.875,29.6875 L26.5625,29.6875 C27.6367188,29.6875 28.6804203,29.5288094 29.6875,29.296875 C28.7231453,30.1574703 28.125,31.4270016 28.125,32.8125 C28.125,35.3820797 30.2429203,37.5 32.8125,37.5 C35.3820797,37.5 37.5,35.3820797 37.5,32.8125 C37.5,30.2734375 35.4370125,28.1799313 32.9101562,28.125 C37.0239266,26.0192875 39.9841312,21.96045 40.5273438,17.1875 C40.5761719,16.7358406 40.6188969,16.2841797 40.625,15.8203125 C40.625,15.7897953 40.625,15.7531734 40.625,15.7226562 C40.625,15.7226562 40.6372078,15.4663094 40.625,15.0390625 L40.625,14.0625 L40.5273438,14.0625 C40.4113766,12.5671391 40.1000984,10.3027344 38.9648438,7.91015625 C37.1032719,3.9917 32.8857422,0 25,0 L23.4375,0 Z M26.5625,3.3203125 C32.2082516,3.78417969 34.8327641,6.43920937 36.1816406,9.27734375 C37.1032719,11.2243656 37.3107906,12.8601078 37.4023438,14.0625 L26.5625,14.0625 L26.5625,3.3203125 Z M11.2792969,17.1875 L37.1582031,17.1875 C36.3647469,22.4426266 32.03125,26.5625 26.5625,26.5625 L21.875,26.5625 C16.40625,26.5625 12.0727547,22.4426266 11.2792969,17.1875 Z M15.625,31.25 C16.5039062,31.25 17.1875,31.9335938 17.1875,32.8125 C17.1875,33.6914062 16.5039062,34.375 15.625,34.375 C14.7460938,34.375 14.0625,33.6914062 14.0625,32.8125 C14.0625,31.9335938 14.7460938,31.25 15.625,31.25 Z M32.8125,31.25 C33.6914062,31.25 34.375,31.9335938 34.375,32.8125 C34.375,33.6914062 33.6914062,34.375 32.8125,34.375 C31.9335938,34.375 31.25,33.6914062 31.25,32.8125 C31.25,31.9335938 31.9335938,31.25 32.8125,31.25 Z" id="Shape"></path>
        </g>
    </g>
</svg>