<?xml version="1.0" encoding="UTF-8"?>
<svg width="48px" height="48px" viewBox="0 0 48 48" version="1.1" xmlns="http://www.w3.org/2000/svg" xmlns:xlink="http://www.w3.org/1999/xlink">
    <!-- Generator: Sketch 63.1 (92452) - https://sketch.com -->
    <title>Icons/icons-category/truck</title>
    <desc>Created with Sketch.</desc>
    <g id="Icons/icons-category/truck" stroke="none" stroke-width="1" fill="none" fill-rule="evenodd">
        <g id="icon-truck" transform="translate(0.000000, 6.000000)" fill="#FFFFFF">
            <path d="M0,0 L0,32.8125 L4.93164062,32.8125 C5.62744219,35.4980469 8.04443437,37.5 10.9375,37.5 C13.8305672,37.5 16.2475594,35.4980469 16.9433594,32.8125 L29.9316406,32.8125 C30.6274422,35.4980469 33.0444344,37.5 35.9375,37.5 C38.8305672,37.5 41.2475594,35.4980469 41.9433594,32.8125 L46.875,32.8125 L46.875,16.5527344 L46.4355469,16.0644531 L37.0605469,6.68945312 L36.5722656,6.25 L28.125,6.25 L28.125,0 L0,0 Z M3.125,3.125 L25,3.125 L25,29.6875 L16.9433594,29.6875 C16.2475594,27.0019531 13.8305672,25 10.9375,25 C8.04443437,25 5.62744219,27.0019531 4.93164062,29.6875 L3.125,29.6875 L3.125,3.125 Z M28.125,9.375 L35.2539062,9.375 L43.75,17.8710938 L43.75,29.6875 L41.9433594,29.6875 C41.2475594,27.0019531 38.8305672,25 35.9375,25 C33.0444344,25 30.6274422,27.0019531 29.9316406,29.6875 L28.125,29.6875 L28.125,9.375 Z M10.9375,28.125 C12.6831063,28.125 14.0625,29.5043953 14.0625,31.25 C14.0625,32.9956062 12.6831063,34.375 10.9375,34.375 C9.19189531,34.375 7.8125,32.9956062 7.8125,31.25 C7.8125,29.5043953 9.19189531,28.125 10.9375,28.125 Z M35.9375,28.125 C37.6831062,28.125 39.0625,29.5043953 39.0625,31.25 C39.0625,32.9956062 37.6831062,34.375 35.9375,34.375 C34.1918953,34.375 32.8125,32.9956062 32.8125,31.25 C32.8125,29.5043953 34.1918953,28.125 35.9375,28.125 Z" id="Shape"></path>
        </g>
    </g>
</svg>