<?xml version="1.0" encoding="UTF-8"?>
<svg width="48px" height="48px" viewBox="0 0 48 48" version="1.1" xmlns="http://www.w3.org/2000/svg" xmlns:xlink="http://www.w3.org/1999/xlink">
    <!-- Generator: Sketch 63.1 (92452) - https://sketch.com -->
    <title>Icons/icons-food/bread</title>
    <desc>Created with Sketch.</desc>
    <g id="Icons/icons-food/bread" stroke="none" stroke-width="1" fill="none" fill-rule="evenodd">
        <g id="icon-bread" transform="translate(7.000000, 5.000000)" fill="#FFFFFF">
            <path d="M29.7363281,0 C25.3845219,0 22.3449703,1.35498125 19.9707031,3.46679688 C14.7705078,2.47192344 9.93042031,5.88989219 8.984375,10.7910156 C6.43920937,11.5966797 4.43725625,13.0554203 3.3203125,15.0390625 C2.17895469,17.0715328 1.93481406,19.4519047 2.29492188,21.8261719 C0.68359375,24.0051266 0,26.8859859 0,29.6386719 C0,31.9152828 0.659179688,34.4726562 2.734375,36.2304688 L2.68554688,36.2792969 C2.70996094,36.3037109 2.75268594,36.3037109 2.78320312,36.328125 C2.80151406,36.3464359 2.81372031,36.3586422 2.83203125,36.3769531 C4.02221719,37.4633797 5.73120156,37.6831063 7.27539062,37.3046875 C8.8745125,36.9140625 10.4858406,36.0351563 12.2558594,34.8144531 C15.7958984,32.3730469 19.9157719,28.5461422 24.3164062,24.21875 C27.8442391,20.6848141 31.0668953,17.3950203 33.4472656,14.4042969 C35.8276375,11.413575 37.5,8.69750938 37.5,5.859375 C37.5,3.91235312 36.2426766,2.35595781 34.765625,1.41601563 C33.288575,0.476075 31.5063484,0 29.7363281,0 Z M29.7363281,3.125 C30.8898922,3.125 32.2204594,3.48510781 33.1054688,4.05273438 C33.9904781,4.62036094 34.375,5.22460938 34.375,5.859375 C34.375,7.32421875 33.2214359,9.66796875 31.0058594,12.4511719 C28.7902828,15.234375 25.6408688,18.444825 22.1191406,21.9726562 C17.7551266,26.2634281 13.7023922,30.0170906 10.4980469,32.2265625 C8.89282188,33.3312984 7.50122031,34.0454109 6.54296875,34.2773438 C5.58471719,34.5092781 5.23681719,34.3872078 4.8828125,34.0332031 L4.78515625,33.9355469 C3.54003906,32.9406734 3.125,31.4453125 3.125,29.6386719 C3.125,27.5207516 3.70483438,25.2258297 4.58984375,23.828125 C6.78100625,24.1882328 8.74023438,25.78125 8.74023438,25.78125 L10.7910156,23.4375 C10.7910156,23.4375 8.50219688,21.2463375 5.22460938,20.703125 C5.10864219,19.1650391 5.39550781,17.7246094 6.0546875,16.5527344 C6.86035156,15.1123047 8.23364219,14.0136719 10.4492188,13.4765625 C13.5498047,13.6108406 15.9179688,15.7226563 15.9179688,15.7226563 L18.0664062,13.4277344 C18.0664062,13.4277344 15.667725,11.1572266 12.0605469,10.4980469 C13.1347656,7.59277344 16.5649422,5.49926719 19.9707031,6.49414063 C20.8251953,6.726075 22.0886234,7.48901406 22.9980469,8.203125 C23.9074703,8.91723594 24.5117188,9.52148438 24.5117188,9.52148438 L26.7089844,7.32421875 C26.7089844,7.32421875 25.9765625,6.55517656 24.9023438,5.71289063 C24.4445797,5.3588875 23.9074703,4.99267656 23.3398438,4.63867188 C24.8962406,3.64990313 26.8249516,3.125 29.7363281,3.125 Z" id="Shape"></path>
        </g>
    </g>
</svg>