<?xml version="1.0" encoding="UTF-8"?>
<svg width="48px" height="48px" viewBox="0 0 48 48" version="1.1" xmlns="http://www.w3.org/2000/svg" xmlns:xlink="http://www.w3.org/1999/xlink">
    <!-- Generator: Sketch 63.1 (92452) - https://sketch.com -->
    <title>Icons/icons-food/birthday-cake</title>
    <desc>Created with Sketch.</desc>
    <g id="Icons/icons-food/birthday-cake" stroke="none" stroke-width="1" fill="none" fill-rule="evenodd">
        <g id="icon-birthday-cake" transform="translate(3.000000, 2.390625)" fill="#FFFFFF">
            <path d="M20.3125,0 L19.0429688,1.85546875 C19.0429688,1.85546875 18.2006844,3.03344688 17.3828125,4.44335938 C16.9738766,5.15136719 16.5893563,5.88989219 16.2597656,6.640625 C15.9301766,7.39135781 15.625,8.08105469 15.625,8.984375 C15.625,11.5539547 17.7429203,13.671875 20.3125,13.671875 C22.8820797,13.671875 25,11.5539547 25,8.984375 C25,8.08105469 24.694825,7.39135781 24.3652344,6.640625 C24.0356453,5.88989219 23.6511234,5.15136719 23.2421875,4.44335938 C22.4243172,3.03344688 21.5820312,1.85546875 21.5820312,1.85546875 L20.3125,0 Z M20.3125,13.671875 L15.625,13.671875 L15.625,19.921875 L6.25,19.921875 C2.79541094,19.921875 0,22.7172859 0,26.171875 C0,27.7587891 0.5859375,29.2175297 1.5625,30.3222656 L1.5625,41.796875 L39.0625,41.796875 L39.0625,30.3222656 C40.0390625,29.2175297 40.625,27.7587891 40.625,26.171875 C40.625,22.7172859 37.8295906,19.921875 34.375,19.921875 L25,19.921875 L25,13.671875 L20.3125,13.671875 Z M20.3125,5.6640625 C20.4162594,5.83496094 20.4040531,5.82275469 20.5078125,6.00585938 C20.8801266,6.64672812 21.2768562,7.33032187 21.5332031,7.91015625 C21.7895516,8.48999063 21.875,9.0271 21.875,8.984375 C21.875,9.851075 21.1792,10.546875 20.3125,10.546875 C19.4458016,10.546875 18.75,9.851075 18.75,8.984375 C18.75,9.0271 18.83545,8.48999063 19.0917969,7.91015625 C19.3481453,7.33032187 19.7448734,6.64672812 20.1171875,6.00585938 C20.2209469,5.82275469 20.2087406,5.83496094 20.3125,5.6640625 Z M18.75,16.796875 L21.875,16.796875 L21.875,19.921875 L18.75,19.921875 L18.75,16.796875 Z M6.25,23.046875 L34.375,23.046875 C36.2365719,23.046875 37.5,24.3103031 37.5,26.171875 C37.5,28.0334469 36.2365719,29.296875 34.375,29.296875 C32.5134281,29.296875 31.25,28.0334469 31.25,26.171875 L28.125,26.171875 C28.125,28.0334469 26.8615719,29.296875 25,29.296875 C23.1384281,29.296875 21.875,28.0334469 21.875,26.171875 L18.75,26.171875 C18.75,28.0334469 17.4865719,29.296875 15.625,29.296875 C13.7634281,29.296875 12.5,28.0334469 12.5,26.171875 L9.375,26.171875 C9.375,28.0334469 8.11157188,29.296875 6.25,29.296875 C4.38842813,29.296875 3.125,28.0334469 3.125,26.171875 C3.125,24.3103031 4.38842813,23.046875 6.25,23.046875 Z M10.9375,30.3222656 C12.0849609,31.6162109 13.757325,32.421875 15.625,32.421875 C17.4926766,32.421875 19.1650391,31.6162109 20.3125,30.3222656 C21.4599609,31.6162109 23.132325,32.421875 25,32.421875 C26.8676766,32.421875 28.5400391,31.6162109 29.6875,30.3222656 C30.8349609,31.6162109 32.507325,32.421875 34.375,32.421875 C34.9182125,32.421875 35.4370125,32.3059078 35.9375,32.1777344 L35.9375,38.671875 L4.6875,38.671875 L4.6875,32.1777344 C5.18798906,32.3059078 5.7067875,32.421875 6.25,32.421875 C8.11767656,32.421875 9.79003906,31.6162109 10.9375,30.3222656 Z" id="Shape"></path>
        </g>
    </g>
</svg>