<?xml version="1.0" encoding="UTF-8"?>
<svg width="48px" height="48px" viewBox="0 0 48 48" version="1.1" xmlns="http://www.w3.org/2000/svg" xmlns:xlink="http://www.w3.org/1999/xlink">
    <!-- Generator: Sketch 63.1 (92452) - https://sketch.com -->
    <title>Icons/icons-food/coffee</title>
    <desc>Created with Sketch.</desc>
    <g id="Icons/icons-food/coffee" stroke="none" stroke-width="1" fill="none" fill-rule="evenodd">
        <g id="icon-coffee" transform="translate(7.367188, 3.000000)" fill="#FFFFFF">
            <path d="M9.5703125,0 L9.5703125,6.25 L12.6953125,6.25 L12.6953125,0 L9.5703125,0 Z M15.8203125,1.5625 L15.8203125,6.25 L18.9453125,6.25 L18.9453125,1.5625 L15.8203125,1.5625 Z M0,7.8125 L0.1953125,9.52148438 L3.02734375,36.4257812 C3.2775875,38.8000484 5.32836875,40.625 7.71484375,40.625 L22.3632812,40.625 C24.7497563,40.625 26.8005375,38.8000484 27.0507812,36.4257812 L27.7832031,29.6875 L31.4453125,29.6875 C34.0148922,29.6875 36.1328125,27.5695797 36.1328125,25 L36.1328125,20.3125 C36.1328125,17.7429203 34.0148922,15.625 31.4453125,15.625 L29.2480469,15.625 L29.8828125,9.52148438 L30.078125,7.8125 L0,7.8125 Z M3.515625,10.9375 L26.5625,10.9375 L23.9257812,36.0839844 C23.8403328,36.8957516 23.1750484,37.5 22.3632812,37.5 L7.71484375,37.5 C6.90307656,37.5 6.23779375,36.8957516 6.15234375,36.0839844 L3.515625,10.9375 Z M28.90625,18.75 L31.4453125,18.75 C32.3303219,18.75 33.0078125,19.4274906 33.0078125,20.3125 L33.0078125,25 C33.0078125,25.8850094 32.3303219,26.5625 31.4453125,26.5625 L28.0761719,26.5625 L28.90625,18.75 Z" id="Shape"></path>
        </g>
    </g>
</svg>