<?xml version="1.0" encoding="UTF-8"?>
<svg width="48px" height="48px" viewBox="0 0 48 48" version="1.1" xmlns="http://www.w3.org/2000/svg" xmlns:xlink="http://www.w3.org/1999/xlink">
    <!-- Generator: Sketch 63.1 (92452) - https://sketch.com -->
    <title>Icons/icons-food/confectionery</title>
    <desc>Created with Sketch.</desc>
    <g id="Icons/icons-food/confectionery" stroke="none" stroke-width="1" fill="none" fill-rule="evenodd">
        <g id="icon-confectionery" transform="translate(5.000000, 5.000000)" fill="#FFFFFF">
            <path d="M15.625,0 L15.625,1.5625 C15.625,3.00292969 15.2648922,3.25927812 14.5507812,3.95507812 C14.1906734,4.30297812 13.7146,4.69970781 13.28125,5.32226562 C13.0920406,5.59082031 13.0737312,6.04248125 12.9394531,6.39648438 C11.3098141,6.56127969 9.78393594,6.97631875 8.59375,7.95898438 C7.44628906,8.90502969 6.82983437,10.3637703 6.54296875,11.9628906 C2.69775469,12.58545 0,15.7043453 0,19.53125 C0,22.1374516 1.3671875,24.4384766 3.66210938,25.8789062 L6.00585938,35.15625 C6.35375938,36.5417484 7.60498125,37.5 9.03320312,37.5 L28.4667969,37.5 C29.8950203,37.5 31.1462406,36.5417484 31.4941406,35.15625 L33.9355469,25.3417969 C35.2844234,24.2492672 37.5,21.8872078 37.5,18.1152344 C37.5,12.3535156 32.7087406,8.53271563 27.6855469,8.0078125 C27.1606453,5.67016562 25.7324219,3.74755937 23.9257812,2.58789062 C21.7468266,1.19018594 19.2687984,0.463867188 17.6269531,0.048828125 L17.4804688,0 L15.625,0 Z M18.2617188,3.61328125 C19.5678719,4.01611406 20.9594734,4.41894531 22.2167969,5.22460938 C23.9074703,6.31103594 25,7.58056719 25,9.375 L25,10.9375 L26.5625,10.9375 C30.4138187,10.9375 34.375,13.8000484 34.375,18.1152344 C34.375,20.0134281 33.6242672,21.2829594 32.8613281,22.1191406 C32.4096687,21.5942391 31.8603516,21.0693359 31.25,20.9960938 C29.7485359,20.8129891 28.6315922,21.4233406 27.0996094,22.0214844 C24.0417484,23.2177734 19.7204594,25 13.8183594,25 C9.89379844,25 7.09228594,24.3286141 5.41992188,23.3398438 C3.74755937,22.351075 3.125,21.2463375 3.125,19.53125 C3.125,17.0410156 4.40063437,15.3808594 6.78710938,14.9902344 C7.28759844,16.2719734 8.06274375,17.3828125 9.1796875,18.0664062 C10.7849125,19.0429688 12.7319344,19.5556641 14.5996094,19.8730469 C18.3349609,20.5078125 21.9726562,20.3125 21.9726562,20.3125 L21.7773438,17.1875 C21.7773438,17.1875 18.3837891,17.3522953 15.0878906,16.796875 C13.4399422,16.5161141 11.8713375,16.05835 10.8398438,15.4296875 C9.80835,14.801025 9.375,14.2333984 9.375,13.28125 C9.375,11.8469234 9.84497031,11.02295 10.5957031,10.4003906 C11.3464359,9.77783281 12.5183109,9.375 14.0625,9.375 L15.625,9.375 L15.625,7.8125 C15.625,7.44018594 15.667725,7.34252969 15.8203125,7.12890625 C15.9729,6.91528281 16.2780766,6.61010781 16.6992188,6.20117188 C17.2424313,5.67627031 17.8405766,4.74243125 18.2617188,3.61328125 Z M30.5664062,24.21875 C30.5908203,24.3469234 30.6152344,24.3652344 30.6152344,24.7070312 L30.6152344,25.78125 L28.4667969,34.375 L9.03320312,34.375 L7.27539062,27.3925781 C8.25805625,27.6489266 9.332275,27.8137203 10.4980469,27.9296875 L10.9375,31.25 L14.0625,31.25 L13.6230469,28.125 C13.6901859,28.125 13.7512203,28.125 13.8183594,28.125 C14.9963375,28.125 16.1193844,28.0456547 17.1875,27.9296875 L17.1875,31.25 L20.3125,31.25 L20.3125,27.4414062 C21.6796875,27.1606453 22.9431156,26.8249516 24.0722656,26.4648438 L23.4375,31.25 L26.5625,31.25 L27.3925781,25.2441406 C27.6550297,25.1403812 27.9846188,25.042725 28.2226562,24.9511719 C29.5532234,24.4323734 30.3527828,24.2675781 30.5664062,24.21875 Z" id="Shape"></path>
        </g>
    </g>
</svg>