<?xml version="1.0" encoding="UTF-8"?>
<svg width="48px" height="48px" viewBox="0 0 48 48" version="1.1" xmlns="http://www.w3.org/2000/svg" xmlns:xlink="http://www.w3.org/1999/xlink">
    <!-- Generator: Sketch 63.1 (92452) - https://sketch.com -->
    <title>Icons/icons-food/dining-room</title>
    <desc>Created with Sketch.</desc>
    <g id="Icons/icons-food/dining-room" stroke="none" stroke-width="1" fill="none" fill-rule="evenodd">
        <g id="icon-dining-room" transform="translate(7.439453, 4.000000)" fill="#FFFFFF">
            <path d="M28.3203125,0 L21.09375,7.17773438 C19.2932125,8.97827187 19.2932125,11.9689938 21.09375,13.7695312 L18.3105469,16.5039062 L4.58984375,2.78320312 L3.46679688,1.70898438 L2.34375,2.78320312 C-0.421142187,5.54809531 -0.421142187,10.0769047 2.34375,12.8417969 L12.1582031,22.65625 L0,34.8144531 L2.24609375,37.0605469 L14.4042969,24.9023438 L16.2597656,26.7089844 L17.3828125,27.8320312 L18.4570312,26.7089844 L21.2402344,23.9257812 L34.375,37.0605469 L36.6210938,34.8144531 L22.3632812,20.6054688 L20.5566406,18.75 L23.2910156,15.9667969 L23.3398438,15.9667969 L23.3886719,16.015625 C25.2014156,17.7368172 28.1066891,17.7429203 29.8828125,15.9667969 L30.0292969,15.7714844 L37.0605469,8.74023438 L34.8632812,6.54296875 L27.6855469,13.7207031 C27.0080562,14.3981937 26.2207031,14.4165047 25.5371094,13.7695312 L33.7890625,5.46875 L31.5917969,3.27148438 L23.2910156,11.5234375 C22.6440437,10.8398438 22.6623531,10.0524906 23.3398438,9.375 L30.5175781,2.19726562 L28.3203125,0 Z M3.90625,6.59179688 L19.0429687,21.7285156 L17.3828125,23.3886719 L4.58984375,10.5957031 C3.43017656,9.43603594 3.39965781,7.97729531 3.90625,6.59179688 Z" id="Shape"></path>
        </g>
    </g>
</svg>