<?xml version="1.0" encoding="UTF-8"?>
<svg width="48px" height="48px" viewBox="0 0 48 48" version="1.1" xmlns="http://www.w3.org/2000/svg" xmlns:xlink="http://www.w3.org/1999/xlink">
    <!-- Generator: Sketch 63.1 (92452) - https://sketch.com -->
    <title>Icons/icons-food/food</title>
    <desc>Created with Sketch.</desc>
    <g id="Icons/icons-food/food" stroke="none" stroke-width="1" fill="none" fill-rule="evenodd">
        <g id="icon-food" transform="translate(5.000000, 5.000000)" fill="#FFFFFF">
            <path d="M0,0 L0,15.1363636 C0,21.0490057 4.40163436,25.9302206 10.0909091,26.7514205 L10.0909091,33.6363636 L3.36363636,33.6363636 L3.36363636,37 L20.1818182,37 L20.1818182,33.6363636 L13.4545455,33.6363636 L13.4545455,26.7514205 C19.1438219,25.9302206 23.5454545,21.0490057 23.5454545,15.1363636 L23.5454545,0 L0,0 Z M26.9090909,0 L26.9090909,11.7727273 L28.5909091,11.7727273 C29.5172226,11.7727273 30.2727273,11.0172226 30.2727273,10.0909091 L30.2727273,0 L26.9090909,0 Z M33.6363636,0 L33.6363636,11.7727273 C33.6363636,14.5779479 31.3961297,16.8181818 28.5909091,16.8181818 L26.9090909,16.8181818 L26.9090909,37 L30.2727273,37 L30.2727273,19.8139205 C34.0699582,19.005859 37,15.799893 37,11.7727273 L37,0 L33.6363636,0 Z M3.36363636,3.36363636 L20.1818182,3.36363636 L20.1818182,15.1363636 C20.1818182,19.8007821 16.4371457,23.5454545 11.7727273,23.5454545 C7.1083105,23.5454545 3.36363636,19.8007821 3.36363636,15.1363636 L3.36363636,3.36363636 Z" id="Shape"></path>
        </g>
    </g>
</svg>