<?xml version="1.0" encoding="UTF-8"?>
<svg width="48px" height="48px" viewBox="0 0 48 48" version="1.1" xmlns="http://www.w3.org/2000/svg" xmlns:xlink="http://www.w3.org/1999/xlink">
    <!-- Generator: Sketch 63.1 (92452) - https://sketch.com -->
    <title>Icons/icons-food/milkshake</title>
    <desc>Created with Sketch.</desc>
    <g id="Icons/icons-food/milkshake" stroke="none" stroke-width="1" fill="none" fill-rule="evenodd">
        <g id="icon-milkshake" transform="translate(10.000000, 2.000000)" fill="#FFFFFF">
            <path d="M3.125,0 L3.125,3.125 L11.3769531,3.125 L11.9628906,4.83398438 C5.21240313,5.859375 0,11.71875 0,18.75 L0,20.3125 L1.7578125,20.3125 L4.6875,42.3828125 L4.8828125,43.75 L23.2421875,43.75 L23.4375,42.3828125 L26.3671875,20.3125 L28.125,20.3125 L28.125,18.75 C28.125,11.3891609 22.3999031,5.32226562 15.1855469,4.73632812 L13.9648438,1.07421875 L13.6230469,0 L3.125,0 Z M14.0625,7.8125 C19.5617672,7.8125 23.87085,11.9140625 24.6582031,17.1875 L3.46679688,17.1875 C4.25415,11.9140625 8.56323281,7.8125 14.0625,7.8125 Z M4.93164062,20.3125 L23.1933594,20.3125 L22.8027344,23.4375 L18.75,23.4375 L18.75,26.5625 L22.3632812,26.5625 L20.5078125,40.625 L7.6171875,40.625 L5.76171875,26.5625 L15.625,26.5625 L15.625,23.4375 L5.32226562,23.4375 L4.93164062,20.3125 Z" id="Shape"></path>
        </g>
    </g>
</svg>