<?xml version="1.0" encoding="UTF-8"?>
<svg width="48px" height="48px" viewBox="0 0 48 48" version="1.1" xmlns="http://www.w3.org/2000/svg" xmlns:xlink="http://www.w3.org/1999/xlink">
    <!-- Generator: Sketch 63.1 (92452) - https://sketch.com -->
    <title>Icons/icons-food/pizza</title>
    <desc>Created with Sketch.</desc>
    <g id="Icons/icons-food/pizza" stroke="none" stroke-width="1" fill="none" fill-rule="evenodd">
        <g id="icon-pizza" transform="translate(3.318359, 6.269531)" fill="#FFFFFF">
            <path d="M13.3300781,0 L12.8417969,1.31835938 L0.341796875,35.546875 L0,36.4746094 L1.5625,38.0371094 L2.49023438,37.6953125 L36.71875,25.1953125 L38.0371094,24.7070312 L37.6953125,23.3398438 C37.6953125,23.3398438 35.4919437,14.5446781 29.4921875,8.54492188 C23.4924312,2.54516562 14.6972656,0.341796875 14.6972656,0.341796875 L13.3300781,0 Z M15.234375,3.85742188 C17.0104984,4.40673906 22.7905281,6.33545 27.2460938,10.7910156 C31.7016609,15.2465828 33.6303719,21.0266109 34.1796875,22.8027344 L31.7871094,23.6816406 C31.6284187,23.0529781 31.4392094,22.3205563 31.1035156,21.484375 C30.1513672,19.1223141 28.3752438,16.0217281 25.1953125,12.8417969 C22.0153812,9.66186562 18.9147953,7.93457031 16.5527344,6.98242188 C15.71045,6.64672813 14.9902344,6.42089844 14.3554688,6.25 L15.234375,3.85742188 Z M13.3300781,9.1796875 C13.8549813,9.32006875 14.5263672,9.52148438 15.3808594,9.86328125 C17.3950203,10.6750484 20.1416016,12.1826172 22.9980469,15.0390625 C23.8342281,15.8752438 24.5239266,16.6809078 25.1464844,17.4804688 C23.4680172,17.5354 22.1191406,18.9147953 22.1191406,20.6054688 C22.1191406,22.3327641 23.5168453,23.7304688 25.2441406,23.7304688 C26.3977047,23.7304688 27.386475,23.1018062 27.9296875,22.1679688 C27.9968266,22.3266609 28.1127937,22.5036625 28.1738281,22.65625 C28.5278328,23.5351562 28.7170406,24.2309578 28.8574219,24.7558594 L13.2324219,30.4199219 C12.8356937,29.6875 12.0727547,29.1992188 11.1816406,29.1992188 C9.88769531,29.1992188 8.83789062,30.2490234 8.83789062,31.5429688 C8.83789062,31.7077641 8.85620156,31.8786625 8.88671875,32.03125 L4.34570312,33.6914062 L9.81445312,18.7011719 C10.2294922,18.9025875 10.6872562,19.0429688 11.1816406,19.0429688 C12.9089359,19.0429688 14.3066406,17.6452641 14.3066406,15.9179688 C14.3066406,14.4592281 13.3117672,13.238525 11.9628906,12.890625 L13.3300781,9.1796875 Z M15.8691406,21.3867188 C14.5751953,21.3867188 13.5253906,22.4365234 13.5253906,23.7304688 C13.5253906,25.0244141 14.5751953,26.0742188 15.8691406,26.0742188 C17.1630859,26.0742188 18.2128906,25.0244141 18.2128906,23.7304688 C18.2128906,22.4365234 17.1630859,21.3867188 15.8691406,21.3867188 Z" id="Shape"></path>
        </g>
    </g>
</svg>