<?xml version="1.0" encoding="UTF-8"?>
<svg width="48px" height="48px" viewBox="0 0 48 48" version="1.1" xmlns="http://www.w3.org/2000/svg" xmlns:xlink="http://www.w3.org/1999/xlink">
    <!-- Generator: Sketch 63.1 (92452) - https://sketch.com -->
    <title>Icons/icons-food/porridge</title>
    <desc>Created with Sketch.</desc>
    <g id="Icons/icons-food/porridge" stroke="none" stroke-width="1" fill="none" fill-rule="evenodd">
        <g id="icon-porridge" transform="translate(5.000000, 1.464844)" fill="#FFFFFF">
            <path d="M33.1542969,0 L26.0253906,13.3789062 C25.2746578,12.8662109 24.3896484,12.5732422 23.3398438,12.5976562 C22.3266609,11.6088875 20.9655766,11.0351562 19.53125,11.0351562 C17.7124031,11.0351562 16.0400391,11.9567875 15.0390625,13.3789062 C14.2883297,12.8845219 13.4216312,12.5976562 12.5,12.5976562 C10.4614266,12.5976562 8.69750938,13.8977047 8.05664062,15.7226562 C5.40161094,15.5578609 3.125,17.7368172 3.125,20.4101562 L0,20.4101562 L0,21.9726562 C0,22.1618656 0.2380375,40.7226562 20.3125,40.7226562 C40.3869625,40.7226562 40.625,22.1618656 40.625,21.9726562 L40.625,20.4101562 L37.5,20.4101562 C37.5,18.2983406 36.1022953,16.5039062 34.1796875,15.9179688 C33.6242672,14.0869141 31.9580078,12.7746578 29.9804688,12.6464844 L35.9375,1.46484375 L33.1542969,0 Z M19.53125,14.1601562 C20.2819828,14.1601562 20.9960938,14.5141609 21.4355469,15.1367188 L22.0703125,16.015625 L23.0957031,15.7714844 C23.2421875,15.7348641 23.3337406,15.7226562 23.4375,15.7226562 C24.2980953,15.7226562 25,16.4245609 25,17.2851562 L28.125,17.2851562 C28.125,16.4245609 28.8269047,15.7226562 29.6875,15.7226562 C30.5480953,15.7226562 31.25,16.4245609 31.25,17.2851562 L31.25,18.8476562 L32.8125,18.8476562 C33.6730953,18.8476562 34.375,19.5495609 34.375,20.4101562 L6.25,20.4101562 C6.25,19.5495609 6.95190469,18.8476562 7.8125,18.8476562 C8.03832969,18.8476562 8.24585,18.9086922 8.54492188,19.0917969 L9.47265625,19.6289062 L11.1328125,18.4570312 L10.9863281,17.4804688 C10.9741219,17.4133297 10.9375,17.3583984 10.9375,17.2851562 C10.9375,16.4245609 11.6394047,15.7226562 12.5,15.7226562 C13.0615234,15.7226562 13.5803219,16.0461422 13.8671875,16.5527344 L14.3554688,17.4316406 L15.4296875,17.3339844 L16.9921875,17.2851562 L17.2363281,16.015625 C17.4560547,14.9292 18.4204109,14.1601562 19.53125,14.1601562 Z M16.40625,20.4101562 C16.8396,20.4101562 17.1875,20.0622562 17.1875,19.6289062 C17.1875,19.1955563 16.8396,18.8476562 16.40625,18.8476562 C15.9729,18.8476562 15.625,19.1955563 15.625,19.6289062 C15.625,20.0622562 15.9729,20.4101562 16.40625,20.4101562 Z M27.34375,20.4101562 C27.7771,20.4101562 28.125,20.0622562 28.125,19.6289062 C28.125,19.1955563 27.7771,18.8476562 27.34375,18.8476562 C26.9104,18.8476562 26.5625,19.1955563 26.5625,19.6289062 C26.5625,20.0622562 26.9104,20.4101562 27.34375,20.4101562 Z M19.53125,17.2851562 C19.0979,17.2851562 18.75,17.6330563 18.75,18.0664062 C18.75,18.4997562 19.0979,18.8476562 19.53125,18.8476562 C19.9646,18.8476562 20.3125,18.4997562 20.3125,18.0664062 C20.3125,17.6330563 19.9646,17.2851562 19.53125,17.2851562 Z M3.27148438,23.5351562 L37.4023438,23.5351562 C36.8896484,27.5146484 34.1857906,37.5976562 20.3125,37.5976562 C6.43920938,37.5976562 3.78417969,27.5146484 3.27148438,23.5351562 Z" id="Shape"></path>
        </g>
    </g>
</svg>