<?xml version="1.0" encoding="UTF-8"?>
<svg width="48px" height="48px" viewBox="0 0 48 48" version="1.1" xmlns="http://www.w3.org/2000/svg" xmlns:xlink="http://www.w3.org/1999/xlink">
    <!-- Generator: Sketch 63.1 (92452) - https://sketch.com -->
    <title>Icons/icons-category/animal</title>
    <desc>Created with Sketch.</desc>
    <g id="Icons/icons-category/animal" stroke="none" stroke-width="1" fill="none" fill-rule="evenodd">
        <g id="icon-year-of-dog" transform="translate(1.999731, 2.513672)" fill="#0D6EFD">
            <path d="M23.6330817,0 L21.5823004,1.07421875 C21.5823004,1.07421875 14.8623301,4.94995156 14.2580817,13.0859375 C6.86062073,17.0654297 0.439722296,23.9746094 0.439722296,23.9746094 L0.000134104681,24.4140625 L0.000134104681,25.0488281 C0.000134104681,25.0488281 -0.0546620795,29.6203609 2.05105042,34.2773438 C4.15676292,38.9343266 8.77102073,43.7988281 17.1877692,43.7988281 L18.7990973,43.7988281 L18.7502692,42.1875 C18.7502692,42.1875 18.6831301,40.1428219 19.1897223,37.890625 C19.6963145,35.6384281 20.7278082,33.4472656 22.4612067,32.7148438 L22.4612067,32.7636719 C26.9839114,30.8959969 33.3498785,35.3027344 33.3498785,35.3027344 L34.3752692,36.0351562 L35.3030035,35.2539062 C35.3030035,35.2539062 37.3110598,33.5998531 39.3069098,31.8359375 C40.3017832,30.9509281 41.2600348,30.0292969 42.0412848,29.2480469 C42.4319098,28.8574219 42.7920176,28.515625 43.0666754,28.1738281 C43.2070567,28.0029297 43.3352301,27.8442391 43.4573004,27.6367187 C43.5793707,27.4292 43.7502692,27.2338875 43.7502692,26.6113281 C43.7502692,25.8850094 43.5000254,25.6958016 43.3596442,25.4882812 C43.2192629,25.2807625 43.0788832,25.1220703 42.920191,24.9511719 C42.6028082,24.609375 42.2060801,24.2370609 41.748316,23.828125 C40.8266848,23.0163578 39.6609145,22.0703125 38.4768317,21.1425781 C36.2612551,19.4030766 34.3081301,17.9748531 34.0334723,17.7734375 L32.6662848,14.9902344 L32.373316,14.453125 L31.8362067,14.2089844 L28.3205817,12.7929688 L29.3459723,3.95507812 L29.638941,1.70898437 L27.4416754,2.24609375 C27.4416754,2.24609375 25.7693129,2.63671875 24.0237067,3.80859375 L23.8772223,2.29492188 L23.6330817,0 Z M21.0940192,5.46875 L21.8752692,12.6953125 L21.9729254,13.671875 L22.8518317,14.0136719 L30.1272223,16.9433594 L31.3967535,19.4824219 L31.592066,19.8242188 L31.8850348,20.0683594 C31.8850348,20.0683594 34.2043707,21.7651375 36.5237067,23.5839844 C37.018091,23.9685063 37.4209239,24.2797859 37.8908942,24.6582031 L35.9377692,26.6113281 L38.0373785,28.7109375 C37.7383067,28.9794922 37.5185801,29.2175297 37.2073004,29.4921875 C35.6692145,30.8532719 34.7109629,31.6467281 34.1311285,32.1289062 C32.6540785,31.0607906 27.2341567,27.3742672 21.2893317,29.8339844 L21.2893317,29.8828125 C18.0788832,31.2377937 16.766627,34.5153813 16.1623785,37.2070312 C15.7717535,38.9404297 15.8449957,39.5568844 15.8205817,40.4785156 C9.60109886,39.9963375 6.58596292,36.6577156 4.9319098,33.0078125 C3.35720355,29.5349125 3.19851136,26.4160156 3.1740973,25.6347656 C3.90041605,24.8779297 9.8574473,18.83545 16.357691,15.5273437 L17.1877692,15.0878906 L17.1877692,14.1113281 C17.1877692,9.31396562 19.3545176,6.91528281 21.0940192,5.46875 Z M25.9280035,6.49414062 L25.2932379,11.5722656 L24.9026129,11.4257812 L24.4631598,7.56835938 C24.8965098,7.13500937 25.427516,6.81152344 25.9280035,6.49414062 Z M28.1252692,18.7988281 C27.2646739,18.7988281 26.5627692,19.5007328 26.5627692,20.3613281 C26.5627692,21.2219234 27.2646739,21.9238281 28.1252692,21.9238281 C28.9858645,21.9238281 29.6877692,21.2219234 29.6877692,20.3613281 C29.6877692,19.5007328 28.9858645,18.7988281 28.1252692,18.7988281 Z" id="Shape"></path>
        </g>
    </g>
</svg>