<?xml version="1.0" encoding="UTF-8"?>
<svg width="48px" height="48px" viewBox="0 0 48 48" version="1.1" xmlns="http://www.w3.org/2000/svg" xmlns:xlink="http://www.w3.org/1999/xlink">
    <!-- Generator: Sketch 63.1 (92452) - https://sketch.com -->
    <title>Icons/icons-category/bag</title>
    <desc>Created with Sketch.</desc>
    <g id="Icons/icons-category/bag" stroke="none" stroke-width="1" fill="none" fill-rule="evenodd">
        <g id="icon-shopping-bag-full" transform="translate(6.473999, 3.016235)" fill="#0D6EFD">
            <path d="M13.6627197,0 L3.741455,9.92126469 L1.73645016,9.92126469 L0,41.1712647 L34.5520025,41.1712647 L32.8155509,9.92126469 L31.3385009,9.92126469 L30.0445556,9.92126469 L23.1475822,3.02429203 L19.9188228,6.25305187 L13.6627197,0 Z M13.6627197,4.41894531 L17.7093509,8.46252437 L16.2506103,9.92126469 L8.16040094,9.92126469 L13.6627197,4.41894531 Z M23.1475822,7.44323734 L25.6256103,9.92126469 L20.6695556,9.92126469 L23.1475822,7.44323734 Z M4.69055172,13.0462647 L29.8614509,13.0462647 L31.2499994,38.0462647 L3.30200187,38.0462647 L4.69055172,13.0462647 Z M9.46350094,16.1712647 L9.46350094,23.9837647 C9.46350094,28.2735381 12.9862275,31.7962647 17.2760009,31.7962647 C21.5657744,31.7962647 25.0885009,28.2735381 25.0885009,23.9837647 L25.0885009,16.1712647 L21.9635009,16.1712647 L21.9635009,23.9837647 C21.9635009,26.5689912 19.8612275,28.6712647 17.2760009,28.6712647 C14.6907744,28.6712647 12.5885009,26.5689912 12.5885009,23.9837647 L12.5885009,16.1712647 L9.46350094,16.1712647 Z" id="Shape"></path>
        </g>
    </g>
</svg>