<?xml version="1.0" encoding="UTF-8"?>
<svg width="48px" height="48px" viewBox="0 0 48 48" version="1.1" xmlns="http://www.w3.org/2000/svg" xmlns:xlink="http://www.w3.org/1999/xlink">
    <!-- Generator: Sketch 63.1 (92452) - https://sketch.com -->
    <title>Icons/icons-category/ball</title>
    <desc>Created with Sketch.</desc>
    <g id="Icons/icons-category/ball" stroke="none" stroke-width="1" fill="none" fill-rule="evenodd">
        <g id="icon-dribbble" transform="translate(5.000000, 5.000000)" fill="#0D6EFD">
            <path d="M18.75,0 C8.41064531,0 0,8.41064531 0,18.75 C0,29.0893562 8.41064531,37.5 18.75,37.5 C29.0893562,37.5 37.5,29.0893562 37.5,18.75 C37.5,8.41064531 29.0893562,0 18.75,0 Z M18.75,3.125 C22.7111813,3.125 26.3000484,4.61425781 29.0527344,7.03125 C28.7597656,7.44018594 28.3630375,7.93457031 27.734375,8.54492188 C26.3977047,9.83886719 24.261475,11.3952641 20.9960938,12.5976562 C18.7866219,8.51440469 16.6198734,5.44433594 15.1855469,3.515625 C16.3269047,3.25317344 17.5231937,3.125 18.75,3.125 Z M12.109375,4.58984375 C13.3911141,6.26831094 15.6738281,9.38110313 17.96875,13.5253906 C11.6149906,15.2099609 5.78613281,15.4235844 3.46679688,15.4296875 C4.50439531,10.6018063 7.75146563,6.62841875 12.109375,4.58984375 Z M31.2011719,9.32617188 C33.1054688,11.8469234 34.2895516,14.9658203 34.375,18.359375 C32.9833984,18.0480953 30.9326172,17.7429203 28.2714844,17.7246094 C26.8859859,17.7185062 25.3173828,17.8161625 23.6328125,18.0175781 C23.2421875,17.1264656 22.8210453,16.2658688 22.4121094,15.4296875 C25.9155281,14.0869141 28.3020016,12.3168953 29.8828125,10.7910156 C30.4199219,10.2661141 30.8410641,9.78393594 31.2011719,9.32617188 Z M19.3847656,16.3574219 C19.7448734,17.0837406 20.1110844,17.8283688 20.4589844,18.6035156 C13.7817391,20.4528812 8.984375,26.1169437 6.93359375,28.9550781 C4.57153281,26.2207031 3.125,22.65625 3.125,18.75 C3.125,18.6828609 3.125,18.6218266 3.125,18.5546875 C5.23681719,18.5791016 11.9506844,18.4326172 19.3847656,16.3574219 Z M28.2714844,20.8007812 C31.0607906,20.8007812 32.9895016,21.1914062 34.1308594,21.484375 C33.4045406,25.6469734 31.0546875,29.2175297 27.734375,31.5429688 C27.1118172,27.8076172 26.0864266,24.2553719 24.8535156,20.9960938 C26.0864266,20.8740234 27.2521969,20.8007812 28.2714844,20.8007812 Z M21.6796875,21.5332031 C23.0834969,25.0976562 24.261475,29.0100094 24.8535156,33.1542969 C22.9858406,33.94165 20.9106453,34.375 18.75,34.375 C15.1672359,34.375 11.8591312,33.1726078 9.22851562,31.1523438 C10.8337406,28.9550781 15.5517578,23.1079109 21.6796875,21.5332031 Z" id="Shape"></path>
        </g>
    </g>
</svg>