<?xml version="1.0" encoding="UTF-8"?>
<svg width="48px" height="48px" viewBox="0 0 48 48" version="1.1" xmlns="http://www.w3.org/2000/svg" xmlns:xlink="http://www.w3.org/1999/xlink">
    <!-- Generator: Sketch 63.1 (92452) - https://sketch.com -->
    <title>Icons/icons-category/book</title>
    <desc>Created with Sketch.</desc>
    <g id="Icons/icons-category/book" stroke="none" stroke-width="1" fill="none" fill-rule="evenodd">
        <g id="icon-books" transform="translate(5.000000, 7.000000)" fill="#0D6EFD">
            <path d="M7.3125,0 C3.29316325,0 0,3.22407591 0,7.15909091 L0,8.75 L0.330078125,8.75 C1.04910276,11.7219582 3.57061364,13.9548882 6.75390625,14.2063218 C5.63985029,15.5683325 4.875,17.221182 4.875,19.0909091 L4.875,20.6818182 L5.20507812,20.6818182 C5.46243149,21.8680048 5.94355206,22.9345486 6.67773438,23.8636364 L5.6875,23.8636364 C2.56556901,23.8636364 0,26.3753827 0,29.4318182 L0,31.0227273 L0.333251912,31.0227273 C1.04869586,33.2980184 3.14062921,35 5.6875,35 L35.75,35 L35.75,31.8181818 L33.3632812,31.8181818 C33.0092831,31.2991748 32.5,30.44944 32.5,29.4318182 C32.5,28.4141964 33.0092831,27.5644616 33.3632812,27.0454545 L34.125,27.0454545 L39,27.0454545 L39,23.8636364 L36.8005365,23.8636364 C36.3803456,22.8905139 35.75,21.1367243 35.75,19.0909091 C35.75,17.0450939 36.3803456,15.2913043 36.8005365,14.3181818 L39,14.3181818 L39,11.1363636 L35.75,11.1363636 L33.493408,11.1363636 C33.0871791,10.298863 32.5,8.83643727 32.5,7.15909091 C32.5,5.48174502 33.0871791,4.01931791 33.493408,3.18181818 L35.75,3.18181818 L35.75,0 L7.3125,0 Z M7.3125,3.18181818 L29.973632,3.18181818 C29.5873825,4.26833973 29.25,5.63151464 29.25,7.15909091 C29.25,8.6866675 29.5873825,10.0498427 29.973632,11.1363636 L13,11.1363636 L7.3125,11.1363636 C5.04958675,11.1363636 3.25,9.37453045 3.25,7.15909091 C3.25,4.94365136 5.04958675,3.18181818 7.3125,3.18181818 Z M13,14.3181818 L17.875,14.3181818 L17.875,22.2727273 L21.125,19.0909091 L24.375,22.2727273 L24.375,14.3181818 L33.3220209,14.3181818 C32.8983151,15.577695 32.5,17.233432 32.5,19.0909091 C32.5,20.9483861 32.8983151,22.6041232 33.3220209,23.8636364 L13,23.8636364 C10.2887135,23.8636364 8.125,21.7453155 8.125,19.0909091 C8.125,16.4365027 10.2887135,14.3181818 13,14.3181818 Z M5.6875,27.0454545 L13,27.0454545 L29.700684,27.0454545 C29.4429314,27.7435502 29.25,28.5400675 29.25,29.4318182 C29.25,30.3235689 29.4429314,31.1200861 29.700684,31.8181818 L5.6875,31.8181818 C4.32118099,31.8181818 3.25,30.7694736 3.25,29.4318182 C3.25,28.0941627 4.32118099,27.0454545 5.6875,27.0454545 Z" id="Shape"></path>
        </g>
    </g>
</svg>