<?xml version="1.0" encoding="UTF-8"?>
<svg width="48px" height="48px" viewBox="0 0 48 48" version="1.1" xmlns="http://www.w3.org/2000/svg" xmlns:xlink="http://www.w3.org/1999/xlink">
    <!-- Generator: Sketch 63.1 (92452) - https://sketch.com -->
    <title>Icons/icons-category/diamond</title>
    <desc>Created with Sketch.</desc>
    <g id="Icons/icons-category/diamond" stroke="none" stroke-width="1" fill="none" fill-rule="evenodd">
        <g id="icon-jewelry" transform="translate(5.367188, 4.000000)" fill="#0D6EFD">
            <path d="M12.7929688,0 L12.6953125,1.46484375 C12.6953125,1.46484375 12.6159672,2.69165 12.4023438,4.00390625 C12.2985844,4.66308594 12.1826172,5.33447344 12.0117188,5.859375 C11.8408203,6.38427812 11.5722656,6.73828125 11.6210938,6.68945312 C11.71875,6.5979 11.1450203,6.91528281 10.3515625,7.17773438 C9.55810625,7.44018594 8.54492188,7.75756875 7.421875,8.10546875 C5.17578125,8.80127031 2.56347656,9.61914062 0.68359375,11.328125 L0,12.0117188 L0.244140625,12.9394531 L8.05664062,39.5019531 L8.3984375,40.625 L29.4921875,40.625 L29.8339844,39.5019531 L37.6464844,12.9394531 L37.890625,12.0117188 L37.2070312,11.328125 C35.3271484,9.61914062 32.7148438,8.80127031 30.46875,8.10546875 C29.3457031,7.75756875 28.3325203,7.44018594 27.5390625,7.17773438 C26.7761234,6.9213875 26.2634281,6.62841875 26.3183594,6.68945312 L26.2695312,6.68945312 C26.3183594,6.73828125 26.0498047,6.38427812 25.8789062,5.859375 C25.7080078,5.33447344 25.5920406,4.66308594 25.4882813,4.00390625 C25.2746578,2.69165 25.1953125,1.46484375 25.1953125,1.46484375 L25.0976562,0 L12.7929688,0 Z M15.6738281,3.125 L22.2167969,3.125 C22.265625,3.63769531 22.2473141,3.76586875 22.3632812,4.4921875 C22.4853516,5.24902344 22.65625,6.02417031 22.9003906,6.78710938 C23.1445312,7.55004844 23.4191891,8.28247031 24.1210938,8.93554688 C24.8718266,9.63134844 25.6042484,9.85717812 26.5136719,10.15625 C26.5686031,10.1745609 26.64795,10.1867672 26.7089844,10.2050781 C26.2878422,14.1357422 22.9919437,17.1875 18.9453125,17.1875 C14.8986813,17.1875 11.6027828,14.1357422 11.1816406,10.2050781 C11.2426766,10.1867672 11.3220219,10.1745609 11.3769531,10.15625 C12.2863766,9.85717812 13.0187984,9.63134844 13.7695312,8.93554688 C14.4714359,8.28247031 14.7460938,7.55004844 14.9902344,6.78710938 C15.234375,6.02417031 15.4052734,5.24902344 15.5273438,4.4921875 C15.6433109,3.76586875 15.625,3.63769531 15.6738281,3.125 Z M8.15429688,11.1328125 C8.99658281,16.3269047 13.5192875,20.3125 18.9453125,20.3125 C24.3713375,20.3125 28.8940437,16.3269047 29.7363281,11.1328125 C31.4941406,11.6943359 33.0932625,12.457275 34.2773438,13.28125 L27.1484375,37.5 L10.7421875,37.5 L3.61328125,13.28125 C4.79736406,12.457275 6.39648438,11.6943359 8.15429688,11.1328125 Z M18.9453125,20.3125 L15.8203125,23.4375 L18.9453125,28.125 L22.0703125,23.4375 L18.9453125,20.3125 Z" id="Shape"></path>
        </g>
    </g>
</svg>