<?xml version="1.0" encoding="UTF-8"?>
<svg width="48px" height="48px" viewBox="0 0 48 48" version="1.1" xmlns="http://www.w3.org/2000/svg" xmlns:xlink="http://www.w3.org/1999/xlink">
    <!-- Generator: Sketch 63.1 (92452) - https://sketch.com -->
    <title>Icons/icons-category/education</title>
    <desc>Created with Sketch.</desc>
    <g id="Icons/icons-category/education" stroke="none" stroke-width="1" fill="none" fill-rule="evenodd">
        <g id="icon-design" transform="translate(4.000000, 4.000000)" fill="#0D6EFD">
            <path d="M9.08203125,0 L8.0078125,1.12304688 L1.12304688,8.0078125 L0,9.08203125 L11.2304687,20.3125 L3.41796875,28.125 L3.3203125,28.6132812 L1.61132812,37.2070312 L1.12304688,39.5019531 L3.41796875,39.0136719 L12.0117188,37.3046875 L12.5,37.2070312 L20.3125,29.3945312 L31.4941406,40.5761719 L32.5683594,39.453125 L39.453125,32.5683594 L40.5761719,31.4941406 L29.3945312,20.3125 L37.109375,12.5976563 C39.6240234,10.0830078 39.6240234,6.03027344 37.109375,3.515625 C35.8520516,2.25830156 34.2102047,1.61132812 32.5683594,1.61132812 C30.9265141,1.61132812 29.2846687,2.25830156 28.0273438,3.515625 L20.3125,11.2304687 L9.08203125,0 Z M9.08203125,4.44335938 L12.109375,7.51953125 L9.81445312,9.81445312 L12.0605469,12.0605469 L14.3554688,9.765625 L18.0664062,13.4765625 L13.4277344,18.1152344 L4.39453125,9.08203125 L9.08203125,4.44335938 Z M32.5683594,4.63867188 C33.3801266,4.63867188 34.2041016,5.00488281 34.9121094,5.71289062 C36.3220219,7.12280313 36.3220219,8.94165 34.9121094,10.3515625 L33.8867188,11.3769531 L29.2480469,6.73828125 L30.2734375,5.71289062 C30.9814453,5.00488281 31.7565922,4.63867188 32.5683594,4.63867188 Z M27.0507812,8.93554688 L31.6894531,13.5742188 L12.7929688,32.4707031 C11.761475,30.4870609 10.1379391,28.863525 8.15429688,27.8320312 L27.0507812,8.93554688 Z M27.1972656,22.5097656 L30.9082031,26.2207031 L28.5644531,28.5644531 L30.8105469,30.8105469 L33.1542969,28.4667969 L36.1328125,31.4453125 L31.4453125,36.1328125 L22.5097656,27.1972656 L27.1972656,22.5097656 Z M6.15234375,30.3222656 C8.02612344,31.1096188 9.51538125,32.5988766 10.3027344,34.4726562 L5.12695312,35.4980469 L6.15234375,30.3222656 Z" id="Shape"></path>
        </g>
    </g>
</svg>