<?xml version="1.0" encoding="UTF-8"?>
<svg width="48px" height="48px" viewBox="0 0 48 48" version="1.1" xmlns="http://www.w3.org/2000/svg" xmlns:xlink="http://www.w3.org/1999/xlink">
    <!-- Generator: Sketch 63.1 (92452) - https://sketch.com -->
    <title>Icons/icons-category/fix</title>
    <desc>Created with Sketch.</desc>
    <g id="Icons/icons-category/fix" stroke="none" stroke-width="1" fill="none" fill-rule="evenodd">
        <g id="icon-maintenance" transform="translate(3.171875, 3.171875)" fill="#0D6EFD">
            <path d="M3.90625,0 L3.02734375,0.830078125 L0.830078125,3.02734375 L0,3.90625 L0.634765625,4.93164063 L3.90625,10.4003906 L4.34570312,11.1816406 L8.93554688,11.1816406 L15.1855469,17.3828125 C9.60082969,22.9919438 2.4963375,30.12085 2.24609375,30.3710938 C-0.201415625,32.8186031 -0.20751875,36.8286141 2.29492188,39.1601562 C4.73632812,41.5710453 8.71582031,41.6320797 11.0351562,39.1601562 C11.0534672,39.1418453 11.0656734,39.1296391 11.0839844,39.1113281 L20.703125,29.4433594 L30.3710938,39.1601562 L30.5175781,39.2578125 C32.9711922,41.5710453 36.8713375,41.6015625 39.1601562,39.1601562 L39.1601562,39.1113281 L39.2089844,39.1113281 C41.6015625,36.6638188 41.6259766,32.6843266 39.1601562,30.3710938 L39.1113281,30.3222656 L30.9570312,22.2167969 C36.4440922,21.7041016 40.7409672,17.0715328 40.8203125,11.4746094 L40.8691406,11.4746094 C40.8752438,11.4440922 40.8691406,11.4074703 40.8691406,11.3769531 C40.8691406,11.3586422 40.8691406,11.3464359 40.8691406,11.328125 C41.0217281,9.52148438 40.6311031,7.79418906 39.6972656,6.29882813 L38.6230469,4.63867188 L31.3476562,11.9140625 L29.1503906,9.61914062 L36.5722656,2.19726562 L34.4238281,1.31835938 C33.1665047,0.78125 31.7138672,0.390625 30.078125,0.390625 C24.0722656,0.390625 19.140625,5.32226562 19.140625,11.328125 C19.140625,11.9812016 19.2810063,12.5488281 19.3847656,13.1347656 C18.7011719,13.8183594 18.1884766,14.3798828 17.3828125,15.1855469 L11.1816406,8.984375 L11.1816406,4.34570312 L10.4003906,3.90625 L4.93164062,0.634765625 L3.90625,0 Z M30.078125,3.515625 C30.2978516,3.515625 30.4504391,3.64379844 30.6640625,3.66210938 L24.7558594,9.5703125 L25.8300781,10.6933594 L30.2246094,15.234375 L31.2988281,16.3574219 L37.5,10.15625 C37.5305172,10.5163578 37.7868656,10.7788094 37.7441406,11.1816406 L37.7441406,11.328125 C37.7441406,15.6311031 34.2346188,19.140625 29.9316406,19.140625 C29.3579109,19.140625 28.6621094,19.0063484 27.8808594,18.8476562 L27.0507812,18.7011719 L26.4648438,19.2871094 L8.83789062,36.9628906 L8.7890625,36.9628906 L8.7890625,37.0117188 C7.67822344,38.2263188 5.73730469,38.2568359 4.44335937,36.9628906 L4.44335937,36.9140625 L4.39453125,36.9140625 C3.17993125,35.8032234 3.14941406,33.8623047 4.44335937,32.5683594 C5.0354,31.9763188 16.5039062,20.4101562 22.1191406,14.7949219 L22.7539062,14.1601562 L22.5097656,13.28125 C22.3815922,12.7746578 22.265625,11.9018563 22.265625,11.328125 C22.265625,7.02514688 25.7751469,3.515625 30.078125,3.515625 Z M4.39453125,3.90625 L8.05664062,6.15234375 L8.05664062,7.71484375 L7.71484375,8.05664062 L6.15234375,8.05664062 L3.90625,4.39453125 L4.39453125,3.90625 Z M27.2460938,22.9003906 L36.9628906,32.5683594 L36.9628906,32.6171875 L37.0117187,32.6171875 C38.2263187,33.7280281 38.2568359,35.6689453 36.9628906,36.9628906 L36.9140625,36.9628906 L36.9140625,37.0117187 C35.8032234,38.2263187 33.8623047,38.2568359 32.5683594,36.9628906 L22.9003906,27.2460938 L27.2460938,22.9003906 Z" id="Shape"></path>
        </g>
    </g>
</svg>