<?xml version="1.0" encoding="UTF-8"?>
<svg width="48px" height="48px" viewBox="0 0 48 48" version="1.1" xmlns="http://www.w3.org/2000/svg" xmlns:xlink="http://www.w3.org/1999/xlink">
    <!-- Generator: Sketch 63.1 (92452) - https://sketch.com -->
    <title>Icons/icons-category/med-tooth</title>
    <desc>Created with Sketch.</desc>
    <g id="Icons/icons-category/med-tooth" stroke="none" stroke-width="1" fill="none" fill-rule="evenodd">
        <g id="icon-tooth" transform="translate(7.000000, 5.000000)" fill="#0D6EFD">
            <path d="M12.9394531,0 C9.09423906,0 5.81054688,1.22680625 3.515625,3.41796875 C1.22070312,5.60913125 0,8.72802812 0,12.2558594 C0,14.9169922 1.0192875,16.9677734 2.05078125,18.7988281 C3.082275,20.6298828 4.11987344,22.2717281 4.6875,24.3164062 C5.37109375,26.8371578 5.84716875,29.8522953 6.640625,32.3730469 C7.03735313,33.6303719 7.51342812,34.7778328 8.25195312,35.7421875 C8.99047813,36.7065438 10.1623531,37.5 11.5234375,37.5 C12.8295906,37.5 14.1296391,36.8225094 14.7949219,35.7910156 C15.4602047,34.7595219 15.625,33.5388187 15.625,32.2265625 C15.625,30.6152344 15.625,28.1005859 15.9667969,26.1230469 C16.1376953,25.1342781 16.4306641,24.3103031 16.6992188,23.8769531 C16.9677734,23.4436031 16.9799813,23.4375 17.1875,23.4375 C17.3950203,23.4375 17.4072266,23.4375 17.6757812,23.8769531 C17.9443359,24.3164062 18.2373047,25.1342781 18.4082031,26.1230469 C18.7561031,28.1005859 18.75,30.6152344 18.75,32.2265625 C18.75,33.5388187 18.9147953,34.7595219 19.5800781,35.7910156 C20.2453609,36.8225094 21.5454109,37.5 22.8515625,37.5 C24.21875,37.5 25.390625,36.7126469 26.1230469,35.7421875 C26.8554687,34.7717281 27.3376469,33.5876469 27.734375,32.3242188 C28.5278328,29.7973641 29.0100094,26.7944344 29.6875,24.3164062 C30.2551266,22.2717281 31.292725,20.6298828 32.3242188,18.7988281 C33.3557125,16.9677734 34.375,14.9169922 34.375,12.2558594 C34.4543453,5.163575 29.0527344,0 21.9726562,0 C19.9157719,0 17.4865719,0.762939062 17.0898438,0.87890625 C15.8203125,0.37841875 14.4348141,0 12.9394531,0 Z M12.9394531,3.125 C16.5588375,3.125 20.703125,6.93359375 20.703125,6.93359375 L22.9003906,4.6875 C22.9003906,4.6875 21.8688969,3.87573281 21.1425781,3.27148438 C21.4721687,3.22265625 21.7590328,3.125 21.9726562,3.125 C27.6306156,3.125 31.3110359,6.62231406 31.25,12.2070312 L31.25,12.2558594 C31.25,14.14795 30.6030281,15.5761719 29.6386719,17.2851562 C28.6743172,18.9941406 27.3742672,20.9045406 26.6601562,23.4863281 C25.9155281,26.2023922 25.4394531,29.2114266 24.7558594,31.3964844 C24.4140625,32.4890141 23.9929203,33.3679203 23.6328125,33.8378906 C23.2727047,34.3078609 23.1567391,34.375 22.8515625,34.375 C22.3754891,34.375 22.3754891,34.3261719 22.2167969,34.0820312 C22.0581062,33.8378906 21.875,33.1909187 21.875,32.2265625 C21.875,30.6335453 21.9055172,27.9907234 21.484375,25.5859375 C21.2707516,24.3835453 20.9777828,23.2238766 20.3613281,22.2167969 C19.7448734,21.2097172 18.5668953,20.3125 17.1875,20.3125 C15.8081062,20.3125 14.6301266,21.2097172 14.0136719,22.2167969 C13.3972172,23.2238766 13.0981453,24.3835453 12.890625,25.5859375 C12.4694828,27.9907234 12.5,30.6335453 12.5,32.2265625 C12.5,33.1909187 12.3168953,33.8378906 12.1582031,34.0820312 C11.9995125,34.3261719 11.9995125,34.375 11.5234375,34.375 C11.2121578,34.375 11.0961922,34.3017578 10.7421875,33.8378906 C10.3881844,33.3740234 9.9609375,32.5317391 9.61914062,31.4453125 C8.93554688,29.2724609 8.45947344,26.2329109 7.71484375,23.4863281 C7.00073281,20.9045406 5.70068438,18.9941406 4.73632812,17.2851562 C3.77197344,15.5761719 3.125,14.1540531 3.125,12.2558594 C3.125,9.44213906 4.07104531,7.2265625 5.71289062,5.6640625 C7.35473594,4.1015625 9.73510781,3.125 12.9394531,3.125 Z" id="Shape"></path>
        </g>
    </g>
</svg>