<?xml version="1.0" encoding="UTF-8"?>
<svg width="48px" height="48px" viewBox="0 0 48 48" version="1.1" xmlns="http://www.w3.org/2000/svg" xmlns:xlink="http://www.w3.org/1999/xlink">
    <!-- Generator: Sketch 63.1 (92452) - https://sketch.com -->
    <title>Icons/icons-category/motorbike</title>
    <desc>Created with Sketch.</desc>
    <g id="Icons/icons-category/motorbike" stroke="none" stroke-width="1" fill="none" fill-rule="evenodd">
        <g id="icon-scooter" transform="translate(2.000000, 8.000000)" fill="#0D6EFD">
            <path d="M32.03125,0 C31.0058594,0 30.1513672,0.646973437 29.8339844,1.5625 L23.4375,1.5625 L23.4375,4.6875 L28.9550781,4.6875 C30.7067875,6.60400469 31.9763188,8.64257812 32.9589844,10.546875 C33.0444344,11.5234375 32.8125,12.5610359 32.2265625,13.7207031 C31.5246578,15.1123047 30.4077156,16.5588375 29.1992188,17.8222656 C26.9165047,20.2026375 24.6887203,21.6857906 24.4140625,21.875 L20.3125,21.875 C19.6411141,21.875 19.1772469,21.7102047 18.9941406,21.5820312 C18.8110359,21.4538578 18.75,21.4721687 18.75,21.0449219 C18.75,20.0988766 19.2687984,19.18335 20.0195312,18.1152344 C20.7702641,17.0471188 21.875,15.8874516 21.875,14.0625 L21.8261719,14.0625 C21.8444828,13.9221188 21.875,13.7695312 21.875,13.6230469 C21.875,11.7492672 20.3735359,10.1745609 18.5058594,10.0585938 L8.49609375,9.52148438 L8.44726562,9.52148438 C6.43310625,9.42382812 4.6875,11.0595703 4.6875,13.0859375 L4.6875,13.6230469 C4.6875,14.3188484 4.9255375,14.9780281 5.2734375,15.5273438 C4.81567344,15.9729 4.25415,16.4611812 3.61328125,17.0410156 C1.97143594,18.5363766 0,20.7336422 0,24.0722656 L0,25.0488281 L0.927734375,25.4882812 C0.927734375,25.4882812 1.50756875,25.738525 1.953125,25.9277344 C1.69677813,26.605225 1.5625,27.3620609 1.5625,28.125 C1.5625,31.5612797 4.37622031,34.375 7.8125,34.375 C10.8032234,34.375 13.3117672,32.2570797 13.9160156,29.4433594 C14.8803719,29.5776375 15.8325203,29.6875 16.7480469,29.6875 L25.4882812,29.6875 C27.3071297,29.6875 29.0466313,29.0100094 30.4199219,27.8320312 C30.5175781,27.7954109 31.5002437,27.5634766 32.9101562,27.1972656 C32.8613281,27.5024422 32.8125,27.8076172 32.8125,28.125 C32.8125,31.5612797 35.6262203,34.375 39.0625,34.375 C42.4987797,34.375 45.3125,31.5612797 45.3125,28.125 C45.3125,27.2277828 45.1171875,26.3610844 44.7753906,25.5859375 C44.9584969,25.5859375 45.1293953,25.5859375 45.3125,25.5859375 L46.875,25.5859375 L46.875,23.046875 L46.7285156,22.7050781 C46.0632328,21.3989266 44.8120125,20.2148438 43.2128906,19.140625 C41.9494625,18.2922359 40.4479984,17.5537109 38.8183594,17.2851562 C38.4948734,15.7836922 37.6892094,12.9455563 35.9863281,9.52148438 C35.9619141,9.40551719 35.9680172,9.29565469 35.9375,9.1796875 L35.8398438,9.22851562 C35.0769047,7.73315469 34.1979984,6.207275 33.0566406,4.6875 L35.9375,4.6875 L35.9375,0 L32.03125,0 Z M8.30078125,12.6464844 L18.3105469,13.1835938 L18.359375,13.1835938 C18.5913094,13.2141109 18.75,13.3850094 18.75,13.6230469 C18.75,13.8916016 18.5791016,14.0625 18.3105469,14.0625 L8.25195312,14.0625 C7.98339844,14.0625 7.8125,13.8916016 7.8125,13.6230469 L7.8125,13.0859375 C7.8125,12.7990719 8.02002031,12.6281734 8.30078125,12.6464844 Z M34.9609375,15.234375 C35.4614266,16.8029781 35.6750484,17.9504391 35.7421875,18.3105469 L28.6132812,25.2929688 C27.7832031,26.1108406 26.6540531,26.5625 25.4882812,26.5625 L16.7480469,26.5625 C15.6433109,26.5625 14.3371578,26.3916016 12.9882812,26.1230469 C12.7929688,26.0864266 12.6037594,26.0681156 12.4023438,26.0253906 C10.7116703,25.6591797 8.97216875,25.1281734 7.421875,24.609375 C6.40869219,24.2736813 5.71899375,24.0173344 5.12695312,23.7792969 C5.078125,23.7609859 5.02929688,23.7426766 4.98046875,23.7304688 C4.88891562,23.6694344 4.79125937,23.6206062 4.6875,23.5839844 C4.63867188,23.5656734 4.58984375,23.6022953 4.54101562,23.5839844 C4.09545937,23.394775 3.7109375,23.1689453 3.41796875,23.046875 C3.74755938,21.5637203 4.56542969,20.4284672 5.76171875,19.3359375 C6.50024375,18.6584469 7.29980469,18.0297859 8.0078125,17.2363281 C8.02002031,17.2180172 8.04443437,17.2058109 8.05664062,17.1875 C8.12377969,17.1936031 8.18481406,17.1875 8.25195312,17.1875 L16.8945312,17.1875 C16.2414547,18.2128906 15.625,19.488525 15.625,21.0449219 C15.625,22.3144531 16.2536625,23.5168453 17.1875,24.1699219 C18.1213375,24.8229984 19.2199703,25 20.3125,25 L25,25 C25.3112797,25.0061031 25.6164547,24.9206547 25.8789062,24.7558594 C25.8789062,24.7558594 28.7536625,22.7783203 31.4453125,19.9707031 C32.769775,18.5913094 34.0515141,17.0104984 34.9609375,15.234375 Z M38.0859375,20.3613281 C39.2028812,20.5017094 40.4052734,21.0205078 41.4550781,21.7285156 C41.9738766,22.0764156 42.0898438,22.3693844 42.4804688,22.7539062 C42.3950203,22.7600094 42.3217781,22.7478031 42.2363281,22.7539062 C42.0043953,22.6623531 41.75415,22.6318359 41.5039062,22.65625 C41.2414547,22.6745609 40.9912109,22.7600094 40.7714844,22.9003906 C38.6596687,23.0957031 36.8164062,23.3398438 35.15625,23.6328125 C35.0585938,23.6572266 34.9548344,23.6877438 34.8632812,23.7304688 C34.7839359,23.7426766 34.6984859,23.7670906 34.6191406,23.7792969 L38.0859375,20.3613281 Z M41.1132812,25.78125 C41.7724609,26.3488766 42.1875,27.1728516 42.1875,28.125 C42.1875,29.8706062 40.8081062,31.25 39.0625,31.25 C37.3168953,31.25 35.9375,29.8706062 35.9375,28.125 C35.9375,27.4658203 36.1328125,26.8676766 36.4746094,26.3671875 C37.8479,26.1230469 39.4226078,25.9277344 41.1132812,25.78125 Z M4.8828125,27.0507812 C5.41381875,27.2460938 5.79223594,27.386475 6.39648438,27.5878906 C7.769775,28.0456547 9.28344687,28.4851078 10.8398438,28.8574219 C10.5102547,30.2368172 9.30175781,31.25 7.8125,31.25 C6.06689531,31.25 4.6875,29.8706062 4.6875,28.125 C4.6875,27.7465828 4.76074219,27.386475 4.8828125,27.0507812 Z" id="Shape"></path>
        </g>
    </g>
</svg>