<?xml version="1.0" encoding="UTF-8"?>
<svg width="48px" height="48px" viewBox="0 0 48 48" version="1.1" xmlns="http://www.w3.org/2000/svg" xmlns:xlink="http://www.w3.org/1999/xlink">
    <!-- Generator: Sketch 63.1 (92452) - https://sketch.com -->
    <title>Icons/icons-category/more</title>
    <desc>Created with Sketch.</desc>
    <g id="Icons/icons-category/more" stroke="none" stroke-width="1" fill="none" fill-rule="evenodd">
        <g id="icon-guitar" transform="translate(4.014085, 4.097656)" fill="#0D6EFD">
            <path d="M36.851149,0 C36.6863537,0 36.5276631,0.0793453125 36.3628677,0.244140625 L35.1909927,1.41601563 L34.7027115,0.927734375 L34.0191177,1.5625 L34.5562271,2.09960938 L33.8726334,2.734375 L33.3843521,2.24609375 L32.7007584,2.9296875 L33.1890396,3.41796875 L32.0659927,4.58984375 C31.730299,4.9255375 31.730299,5.2307125 32.0659927,5.56640625 L25.523024,12.109375 C24.0642834,10.9436031 22.5078881,10.0585938 21.0308365,9.61914062 C18.2842552,8.80737344 15.842849,9.39331094 13.9507584,11.2792969 C13.1145771,12.1154781 12.6018818,13.1347656 12.3882584,14.3554688 C12.0464615,16.3330078 10.3008568,17.8771969 8.23786774,18.0175781 C5.98567086,18.1701656 4.0081318,19.0734859 2.52497711,20.5566406 C-1.38737601,24.4689938 -0.679368198,31.5673828 4.13630524,36.3769531 C6.87068024,39.1113281 10.3557881,40.5273438 13.5601334,40.5273438 C16.0015396,40.5273438 18.2659443,39.6789547 19.9566177,37.9882812 C21.4397724,36.5051266 22.3430927,34.5275875 22.4956802,32.2753906 C22.6360615,30.2124031 24.1314224,28.4667969 26.1089615,28.125 C27.3296646,27.9113766 28.3977802,27.3986813 29.2339615,26.5625 C31.1199474,24.6765141 31.7058849,22.2290047 30.8941177,19.4824219 C30.6255631,18.5668953 30.1433849,17.6330562 29.5757584,16.6992188 L27.2808365,18.9941406 C27.5249771,19.4641109 27.7324974,19.9157719 27.866774,20.3613281 C28.3489521,21.9848641 28.0926037,23.3093266 27.0366959,24.3652344 C26.6582787,24.7375484 26.2066177,24.9450687 25.6206802,25.0488281 C22.2393334,25.6347656 19.6026146,28.601075 19.3706802,32.0800781 C19.273024,33.5632328 18.6992943,34.8449703 17.7593521,35.7910156 C15.061599,38.4826656 9.9773693,37.7746578 6.38239899,34.1796875 C2.78742868,30.5847172 2.03059274,25.4455563 4.72224274,22.7539062 C5.66828805,21.8139656 6.95002555,21.2402344 8.43318024,21.1425781 C11.9121849,20.9106453 14.8723896,18.2739266 15.4644302,14.8925781 C15.5681896,14.3066406 15.7696068,13.8549812 16.148024,13.4765625 C16.8743427,12.7502438 17.7044209,12.4023438 18.6870865,12.4023438 C19.1326427,12.4023438 19.6453381,12.4938969 20.1519302,12.6464844 C21.1345959,12.9394531 22.2332287,13.5192875 23.2769302,14.3066406 L18.0523209,19.53125 C17.7715599,19.4641109 17.4785912,19.4335938 17.1734146,19.4335938 C15.018874,19.4335938 13.2671646,21.1853031 13.2671646,23.3398438 C13.2671646,25.4943844 15.018874,27.2460938 17.1734146,27.2460938 C19.3279552,27.2460938 21.0796646,25.4943844 21.0796646,23.3398438 C21.0796646,23.1018062 21.0247334,22.8820797 20.9820084,22.65625 L35.1909927,8.3984375 C35.5266865,8.73413125 35.8806896,8.73413125 36.2163834,8.3984375 L37.3882584,7.2265625 L37.8765396,7.71484375 L38.5113052,7.08007812 L38.023024,6.59179688 L38.7066177,5.90820312 L39.0484146,6.59179688 L39.6831802,5.90820312 L39.194899,5.41992188 L40.366774,4.24804688 C40.7024677,3.91235312 40.7024677,3.55835 40.366774,3.22265625 L37.3882584,0.244140625 C37.2234631,0.0793453125 37.0159443,0 36.851149,0 Z M36.7046646,1.90429688 L37.3882584,2.58789062 L34.3609146,5.56640625 L33.726149,4.93164062 L36.7046646,1.90429688 Z M38.023024,3.07617188 L38.7066177,3.75976562 L35.679274,6.73828125 L35.0445084,6.0546875 L38.023024,3.07617188 Z M9.50739899,25.9765625 L7.31013336,28.1738281 L12.3394302,33.203125 L14.5366959,31.0058594 L9.50739899,25.9765625 Z" id="Shape"></path>
        </g>
    </g>
</svg>