<?xml version="1.0" encoding="UTF-8"?>
<svg width="48px" height="48px" viewBox="0 0 48 48" version="1.1" xmlns="http://www.w3.org/2000/svg" xmlns:xlink="http://www.w3.org/1999/xlink">
    <!-- Generator: Sketch 63.1 (92452) - https://sketch.com -->
    <title>Icons/icons-category/phone-tablet</title>
    <desc>Created with Sketch.</desc>
    <g id="Icons/icons-category/phone-tablet" stroke="none" stroke-width="1" fill="none" fill-rule="evenodd">
        <g id="icon-smartphone-tablet" transform="translate(0.000000, 8.000000)" fill="#0D6EFD">
            <path d="M3,0 C2.2148445,0 1.412109,0.283736182 0.84375,0.869318182 C0.275391,1.45490018 0,2.281961 0,3.09090909 L0,30.9090909 C0,31.7180405 0.275391,32.5450998 0.84375,33.1306818 C1.412109,33.7162638 2.2148445,34 3,34 L45,34 C45.785157,34 46.587891,33.7162638 47.15625,33.1306818 C47.724609,32.5450998 48,31.7180405 48,30.9090909 L48,9.27272727 C48,8.46377918 47.724609,7.63671836 47.15625,7.05113636 C46.587891,6.46555436 45.785157,6.18181818 45,6.18181818 L42,6.18181818 L42,3.09090909 C42,2.281961 41.724609,1.45490018 41.15625,0.869318182 C40.587891,0.283736182 39.785157,0 39,0 L3,0 Z M3,3.09090909 L39,3.09090909 L39,6.18181818 L33,6.18181818 C32.2148445,6.18181818 31.412109,6.46555436 30.84375,7.05113636 C30.275391,7.63671836 30,8.46377918 30,9.27272727 L30,30.9090909 L3,30.9090909 L3,3.09090909 Z M33,9.27272727 L45,9.27272727 L45,30.9090909 L33,30.9090909 L33,9.27272727 Z M18,26.2727273 L18,29.3636364 L24,29.3636364 L24,26.2727273 L18,26.2727273 Z M37,27.8181818 C37,28.6717128 37.6919236,29.3636364 38.5454545,29.3636364 L40.4545455,29.3636364 C41.3080764,29.3636364 42,28.6717128 42,27.8181818 C42,26.9646508 41.3080764,26.2727273 40.4545455,26.2727273 L38.5454545,26.2727273 C37.6919236,26.2727273 37,26.9646508 37,27.8181818 Z" id="Shape"></path>
        </g>
    </g>
</svg>