<?xml version="1.0" encoding="UTF-8"?>
<svg width="48px" height="48px" viewBox="0 0 48 48" version="1.1" xmlns="http://www.w3.org/2000/svg" xmlns:xlink="http://www.w3.org/1999/xlink">
    <!-- Generator: Sketch 63.1 (92452) - https://sketch.com -->
    <title>Icons/icons-category/phone</title>
    <desc>Created with Sketch.</desc>
    <g id="Icons/icons-category/phone" stroke="none" stroke-width="1" fill="none" fill-rule="evenodd">
        <g id="icon-iphone-x" transform="translate(12.000000, 2.000000)" fill="#0D6EFD">
            <path d="M4.6875,0 C2.11723469,0 0,2.11723469 0,4.6875 L0,39.0625 C0,41.6327656 2.11723469,43.75 4.6875,43.75 L20.3125,43.75 C22.8827656,43.75 25,41.6327656 25,39.0625 L25,4.6875 C25,2.11723469 22.8827656,0 20.3125,0 L4.6875,0 Z M4.6875,3.125 L6.25,3.125 C6.25,4.8515625 7.6484375,6.25 9.375,6.25 L15.625,6.25 C17.3515625,6.25 18.75,4.8515625 18.75,3.125 L20.3125,3.125 C21.1953594,3.125 21.875,3.80464031 21.875,4.6875 L21.875,39.0625 C21.875,39.9453594 21.1953594,40.625 20.3125,40.625 L4.6875,40.625 C3.80464062,40.625 3.125,39.9453594 3.125,39.0625 L3.125,4.6875 C3.125,3.80464031 3.80464062,3.125 4.6875,3.125 Z M12.5,35.9375 C11.6390625,35.9375 10.9375,36.6390625 10.9375,37.5 C10.9375,38.3609375 11.6390625,39.0625 12.5,39.0625 C13.3609375,39.0625 14.0625,38.3609375 14.0625,37.5 C14.0625,36.6390625 13.3609375,35.9375 12.5,35.9375 Z" id="Shape"></path>
        </g>
    </g>
</svg>