<?xml version="1.0" encoding="UTF-8"?>
<svg width="48px" height="48px" viewBox="0 0 48 48" version="1.1" xmlns="http://www.w3.org/2000/svg" xmlns:xlink="http://www.w3.org/1999/xlink">
    <!-- Generator: Sketch 63.1 (92452) - https://sketch.com -->
    <title>Icons/icons-category/scissor</title>
    <desc>Created with Sketch.</desc>
    <g id="Icons/icons-category/scissor" stroke="none" stroke-width="1" fill="none" fill-rule="evenodd">
        <g id="icon-barbershop" transform="translate(4.000000, 4.000000)" fill="#0D6EFD">
            <path d="M15.625,0 C15.625,0 13.7451172,0 11.8164062,0.9765625 C9.88769531,1.953125 7.8125,4.19921875 7.8125,7.8125 L7.8125,30.2734375 C7.09228594,29.9194344 6.32324219,29.6875 5.46875,29.6875 C2.46582031,29.6875 0,32.1533203 0,35.15625 C0,38.1591797 2.46582031,40.625 5.46875,40.625 C8.19702187,40.625 10.4980469,38.5620125 10.8886719,35.9375 L10.9375,35.9375 L10.9375,25 L14.0625,27.34375 L14.0625,35.9375 L14.1113281,35.9375 C14.5019531,38.5620125 16.8029781,40.625 19.53125,40.625 C22.5341797,40.625 25,38.1591797 25,35.15625 C25,32.1533203 22.5341797,29.6875 19.53125,29.6875 C18.6767578,29.6875 17.9077156,29.9194344 17.1875,30.2734375 L17.1875,0 L15.625,0 Z M23.4375,0 L23.4375,3.125 L29.6875,3.125 L29.6875,4.6875 L23.4375,4.6875 L23.4375,7.8125 L29.6875,7.8125 L29.6875,9.375 L23.4375,9.375 L23.4375,12.5 L29.6875,12.5 L29.6875,14.0625 L23.4375,14.0625 L23.4375,17.1875 L29.6875,17.1875 L29.6875,18.75 L23.4375,18.75 L23.4375,21.875 L29.6875,21.875 L29.6875,23.4375 L23.4375,23.4375 L23.4375,26.5625 L29.6875,26.5625 L29.6875,40.625 L39.0625,40.625 L39.0625,0 L23.4375,0 Z M32.8125,3.125 L35.9375,3.125 L35.9375,37.5 L32.8125,37.5 L32.8125,3.125 Z M14.0625,3.515625 L14.0625,23.4375 L10.9375,21.09375 L10.9375,7.8125 C10.9375,5.25512656 11.9873047,4.36401406 13.1835938,3.75976562 C13.6169437,3.54003906 13.6779781,3.61328125 14.0625,3.515625 Z M5.46875,32.8125 C6.78100625,32.8125 7.8125,33.8439938 7.8125,35.15625 C7.8125,36.4685062 6.78100625,37.5 5.46875,37.5 C4.15649375,37.5 3.125,36.4685062 3.125,35.15625 C3.125,33.8439938 4.15649375,32.8125 5.46875,32.8125 Z M19.53125,32.8125 C20.8435062,32.8125 21.875,33.8439938 21.875,35.15625 C21.875,36.4685062 20.8435062,37.5 19.53125,37.5 C18.2189938,37.5 17.1875,36.4685062 17.1875,35.15625 C17.1875,33.8439938 18.2189938,32.8125 19.53125,32.8125 Z" id="Shape"></path>
        </g>
    </g>
</svg>