<?xml version="1.0" encoding="UTF-8"?>
<svg width="48px" height="48px" viewBox="0 0 48 48" version="1.1" xmlns="http://www.w3.org/2000/svg" xmlns:xlink="http://www.w3.org/1999/xlink">
    <!-- Generator: Sketch 63.1 (92452) - https://sketch.com -->
    <title>Icons/icons-category/shirt</title>
    <desc>Created with Sketch.</desc>
    <g id="Icons/icons-category/shirt" stroke="none" stroke-width="1" fill="none" fill-rule="evenodd">
        <g id="icon-v-neck-longsleeve" transform="translate(5.999361, 2.000000)" fill="#0D6EFD">
            <path d="M18.7506387,0 C17.3061715,0 15.7340887,0.440810313 14.3805215,0.84838875 C13.0269543,1.25596688 11.9482699,1.66320797 11.9482699,1.66320797 L7.39809961,3.17993156 C7.39809961,3.17993156 4.1113143,4.15164391 1.81948633,7.74230953 C-0.0878857031,10.6163127 0.000638671902,14.0625 0.000638671902,14.0625 L0.000638671902,34.375 L6.25063867,34.375 L6.25063867,40.625 L31.2506387,40.625 L31.2506387,34.375 L37.5006387,34.375 L37.5006387,14.0625 C37.5006387,14.0625 37.5891684,10.6163127 35.6817918,7.74230953 C33.3899621,4.15164391 30.1031777,3.17993172 30.1031777,3.17993156 L25.5530074,1.66320797 C25.5530074,1.66320797 24.474323,1.25596688 23.1207559,0.84838875 C21.7671887,0.440810469 20.1951059,0 18.7506387,0 Z M18.7506387,3.125 C19.4280465,3.125 20.979523,3.46543953 22.2204871,3.83911125 C22.4875371,3.91952391 22.4634027,3.92414125 22.6996137,4.00085453 L18.7506387,10.9100342 L14.8016637,4.00085453 C15.0378746,3.92414125 15.0137402,3.91952391 15.2807902,3.83911125 C16.5217496,3.46543672 18.0732309,3.125 18.7506387,3.125 Z M11.7773715,5.01098625 L18.7506387,17.2119141 L25.7239059,5.01098625 L29.2334262,6.18286125 L29.2730996,6.19506844 C29.2730996,6.19506844 31.3183418,6.69786469 33.0572793,9.43298344 L33.066434,9.44519047 L33.0755902,9.46044922 C34.282384,11.2708344 34.3756387,14.0625 34.3756387,14.0625 L34.3756387,31.25 L31.2506387,31.25 L31.2506387,12.5 L28.1256387,12.5 L28.1256387,37.5 L9.37563867,37.5 L9.37563867,12.5 L6.25063867,12.5 L6.25063867,31.25 L3.12563867,31.25 L3.12563867,14.0625 C3.12563867,14.0625 3.21876523,11.2708344 4.42568742,9.46044922 L4.43484273,9.44519047 L4.44399805,9.43298344 C6.1829332,6.69786766 8.22817773,6.19506828 8.22817773,6.19506844 L8.26785055,6.18286125 L11.7773715,5.01098625 Z" id="Shape"></path>
        </g>
    </g>
</svg>