<?xml version="1.0" encoding="UTF-8"?>
<svg width="48px" height="48px" viewBox="0 0 48 48" version="1.1" xmlns="http://www.w3.org/2000/svg" xmlns:xlink="http://www.w3.org/1999/xlink">
    <!-- Generator: Sketch 63.1 (92452) - https://sketch.com -->
    <title>Icons/icons-category/shoe-man</title>
    <desc>Created with Sketch.</desc>
    <g id="Icons/icons-category/shoe-man" stroke="none" stroke-width="1" fill="none" fill-rule="evenodd">
        <g id="icon-footwear" transform="translate(-1.000000, 10.878906)" fill="#0D6EFD">
            <path d="M20.3613281,0.634765625 C15.8165949,1.61132813 12.3133418,2.09960938 9.85156888,2.09960938 C7.38979595,2.09960938 4.10637102,1.39973958 0.00129406446,0 L0,25.6835938 L17.1875,25.6835938 L17.1875,22.0214844 C19.6594234,23.4313969 24.0783687,25.6835938 29.6875,25.6835938 L50,25.6835938 L50,24.1210937 C50,24.1210937 50.042725,21.4660641 48.6816406,18.75 C47.3205562,16.0339359 44.2687984,13.1835937 39.0625,13.1835937 C29.2297359,13.1835937 21.3378906,2.09960938 21.3378906,2.09960938 L20.3613281,0.634765625 Z M19.6777344,5.078125 C21.7651375,7.86132812 28.8818359,16.3085937 39.0625,16.3085937 C43.2312016,16.3085937 44.8669438,18.1457516 45.8496094,20.1171875 C46.4538578,21.3195797 46.3867188,21.7895516 46.484375,22.5585937 L29.6875,22.5585937 C23.4924313,22.5585937 16.5039063,18.1152344 16.5039063,18.1152344 L16.1132813,17.8710937 L3.125,17.8710937 L3.125,4.48293859 C4.96215781,4.96511672 7.55343916,5.70992625 10.7821985,5.70992625 C13.4494345,5.70992625 19.1223141,5.49316406 19.6777344,5.078125 Z M3.125,20.9960938 L14.0625,20.9960938 L14.0625,22.5585938 L3.125,22.5585938 L3.125,20.9960938 Z" id="Shape"></path>
        </g>
    </g>
</svg>