<?xml version="1.0" encoding="UTF-8"?>
<svg width="48px" height="48px" viewBox="0 0 48 48" version="1.1" xmlns="http://www.w3.org/2000/svg" xmlns:xlink="http://www.w3.org/1999/xlink">
    <!-- Generator: Sketch 63.1 (92452) - https://sketch.com -->
    <title>Icons/icons-category/slippers</title>
    <desc>Created with Sketch.</desc>
    <g id="Icons/icons-category/slippers" stroke="none" stroke-width="1" fill="none" fill-rule="evenodd">
        <g id="icon-flip-flops" transform="translate(3.996261, 2.999338)" fill="#0D6EFD">
            <path d="M10.4041301,0.000328531904 C10.1050582,0.000328531904 9.78157227,0.00676535755 9.47639571,0.0494903576 C5.57624883,0.568288795 2.84187383,2.66789817 1.41975508,5.42058411 C-0.00236366864,8.17327005 -0.240401169,11.4386513 0.199051956,14.6490997 C0.833817581,19.3243935 2.10334883,20.9174107 2.83577071,26.2213654 C2.85408164,26.3678497 2.90901289,26.5936794 2.93342696,26.7584747 C3.25691289,29.0167763 4.08088789,32.9413357 4.10530196,33.0573029 L4.05647383,33.0573029 C4.06257696,33.08782 4.09919883,33.1244419 4.10530196,33.1549591 C4.29451133,34.5099404 4.66682539,36.3898232 5.91194258,38.0377716 C7.18757696,39.7223419 9.55574102,40.9369419 12.6502238,40.528006 C15.415116,40.161795 17.2034473,38.3185341 17.9724895,36.3287872 C18.7415332,34.3390419 18.7537395,32.1844997 18.7537395,30.5182404 C18.7537395,30.5182404 18.7110145,19.5380154 18.7049113,9.32683411 C18.6988082,4.02287942 14.9085254,-0.0420627674 10.4041301,0.000328531904 Z M30.2283488,0.000328531904 C25.7239551,-0.0420627674 21.9336707,4.02287942 21.9275676,9.32683411 C21.9214645,19.5380154 21.8787395,30.5182404 21.8787395,30.5182404 C21.8787395,32.1844997 21.8909473,34.3390419 22.6599895,36.3287872 C23.4290332,38.3185341 25.2173629,40.161795 27.9822551,40.528006 C31.0767379,40.9369419 33.444902,39.7223419 34.7205363,38.0377716 C35.9656535,36.3898232 36.3379676,34.5099404 36.527177,33.1549591 C36.5332801,33.1244419 36.569902,33.08782 36.5760051,33.0573029 L36.527177,33.0573029 C36.551591,32.9291294 37.5403613,28.3453888 37.7967082,26.2213654 C38.5291301,20.9174107 39.7986613,19.3243935 40.433427,14.6490997 C40.8728801,11.4386513 40.6348426,8.17327005 39.2127238,5.42058411 C37.7906051,2.66789817 35.0562301,0.568288795 31.1560832,0.0494903576 C30.8509082,0.00676535755 30.5274207,0.000328531904 30.2283488,0.000328531904 Z M9.86702071,3.17449036 C9.88533164,3.17449036 9.89753789,3.17449036 9.91584883,3.17449036 C12.808916,2.82048723 15.5738082,5.19475442 15.5799113,9.32683411 C15.5799113,11.21282 15.5738082,11.3715122 15.5799113,13.2330841 C14.328691,11.4020294 12.5952926,9.5953888 10.2088176,8.05730286 L9.28108321,7.47136536 L8.40217696,8.15495911 C5.79597539,10.1935341 4.39827071,13.0377716 3.61702071,15.8698029 C3.51326133,15.3632107 3.40339727,14.8383091 3.32405196,14.2584747 C2.94563477,11.4874794 3.19587852,8.82634661 4.20295821,6.88542786 C5.20393477,4.95671692 6.83357383,3.59563255 9.86702071,3.17449036 Z M29.6424113,3.17449036 C29.996416,3.13787005 30.3565223,3.13176536 30.7166301,3.17449036 C30.734941,3.17449036 30.7471473,3.17449036 30.7654582,3.17449036 C33.7989051,3.59563255 35.4285441,4.95671692 36.4295207,6.88542786 C37.4366004,8.82634661 37.6868457,11.4874794 37.308427,14.2584747 C37.2290816,14.8444122 37.1192176,15.3632107 37.0154582,15.8698029 C36.2342082,13.0377716 34.8365035,10.1935341 32.230302,8.15495911 L31.3513957,7.47136536 L30.4236613,8.05730286 C28.0371863,9.5953888 26.3037879,11.4020294 25.0525676,13.2330841 C25.0586707,11.3715122 25.0525676,11.21282 25.0525676,9.32683411 C25.0586707,5.70744973 27.176591,3.44914817 29.6424113,3.17449036 Z M9.57405196,11.5729279 C14.1638957,15.1129669 15.3479785,19.7333279 15.5799113,22.0221466 L15.6287395,22.0221466 C15.6348426,24.7931435 15.6287395,30.5182404 15.6287395,30.5182404 C15.6287395,32.0990513 15.5371863,33.930106 15.042802,35.2057404 C14.5484176,36.4813747 13.938066,37.2260044 12.2107707,37.4518341 C9.97078008,37.750906 9.11018477,37.122245 8.40217696,36.1823029 C7.69416914,35.2423622 7.33406133,33.7592075 7.18147383,32.6178497 L7.18147383,32.5690216 L7.13264571,32.5201935 C7.13264571,32.5201935 6.16829102,27.5641388 5.96077071,25.8307404 C5.93635664,25.6537388 5.93635664,25.5133575 5.91194258,25.3424591 C5.81428633,23.9691685 5.75935508,21.6620388 6.10725508,19.2389435 C6.51008789,16.4252232 7.62092696,13.617606 9.57405196,11.5729279 Z M31.058427,11.5729279 C33.011552,13.617606 34.1223926,16.4252232 34.5252238,19.2389435 C34.921952,22.0099404 34.7876754,24.5245888 34.6717082,25.7819122 C34.6717082,25.8002232 34.6717082,25.8124294 34.6717082,25.8307404 C34.4641895,27.5580357 33.4998332,32.5201935 33.4998332,32.5201935 L33.4510051,32.5690216 L33.4510051,32.6178497 C33.2984176,33.7592075 32.9383098,35.2423622 32.230302,36.1823029 C31.5222941,37.122245 30.6616988,37.750906 28.4217082,37.4518341 C26.6944129,37.2260044 26.0840613,36.4813747 25.589677,35.2057404 C25.0952926,33.930106 25.0037395,32.0990513 25.0037395,30.5182404 C25.0037395,30.5182404 24.9976363,24.7931435 25.0037395,22.0221466 L25.0525676,22.0221466 C25.284502,19.7333279 26.4685832,15.1129669 31.058427,11.5729279 Z" id="Shape"></path>
        </g>
    </g>
</svg>