<?xml version="1.0" encoding="UTF-8"?>
<svg width="48px" height="48px" viewBox="0 0 48 48" version="1.1" xmlns="http://www.w3.org/2000/svg" xmlns:xlink="http://www.w3.org/1999/xlink">
    <!-- Generator: Sketch 63.1 (92452) - https://sketch.com -->
    <title>Icons/icons-category/hotel</title>
    <desc>Created with Sketch.</desc>
    <g id="Icons/icons-category/hotel" stroke="none" stroke-width="1" fill="none" fill-rule="evenodd">
        <g id="icon-sleeper-chair" transform="translate(3.000000, 5.000000)" fill="#0D6EFD">
            <path d="M10.9375,0 C8.36647734,0 6.25,2.11647734 6.25,4.6875 L6.25,14.0625 C2.81666578,14.0625 0,16.8791656 0,20.3125 C0,22.5476406 1.34771359,24.3032953 3.125,25.4028313 L3.125,32.8125 L3.125,34.375 L3.125,37.5 L6.25,37.5 L6.25,34.375 L34.375,34.375 L34.375,37.5 L37.5,37.5 L37.5,34.375 L37.5,32.8125 L37.5,25.4028313 C39.2772859,24.3032953 40.625,22.5476406 40.625,20.3125 C40.625,16.8791656 37.8083344,14.0625 34.375,14.0625 L34.375,4.6875 C34.375,2.11647734 32.2585234,0 29.6875,0 L10.9375,0 Z M10.9375,3.125 L29.6875,3.125 C30.5539766,3.125 31.25,3.82102266 31.25,4.6875 L31.25,15.0299078 C29.4193984,16.1239938 28.125,18.0395688 28.125,20.3125 L28.125,21.875 L12.5,21.875 L12.5,20.3125 C12.5,18.0395688 11.2056016,16.1239938 9.375,15.0299078 L9.375,4.6875 C9.375,3.82102266 10.0710227,3.125 10.9375,3.125 Z M6.25,17.1875 C7.99479078,17.1875 9.375,18.5677094 9.375,20.3125 L9.375,25 L31.25,25 L31.25,20.3125 C31.25,18.5677094 32.6302094,17.1875 34.375,17.1875 C36.1197906,17.1875 37.5,18.5677094 37.5,20.3125 C37.5,21.6813844 36.6319016,22.807225 35.41565,23.2391359 L34.375,23.6083984 L34.375,31.25 L6.25,31.25 L6.25,23.6083984 L5.20935063,23.2391359 C3.99309875,22.807225 3.125,21.6813844 3.125,20.3125 C3.125,18.5677094 4.50520922,17.1875 6.25,17.1875 Z" id="Shape"></path>
        </g>
    </g>
</svg>