<?xml version="1.0" encoding="UTF-8"?>
<svg width="48px" height="48px" viewBox="0 0 48 48" version="1.1" xmlns="http://www.w3.org/2000/svg" xmlns:xlink="http://www.w3.org/1999/xlink">
    <!-- Generator: Sketch 63.1 (92452) - https://sketch.com -->
    <title>Icons/icons-category/spa</title>
    <desc>Created with Sketch.</desc>
    <g id="Icons/icons-category/spa" stroke="none" stroke-width="1" fill="none" fill-rule="evenodd">
        <g id="icon-oak-tree" transform="translate(5.000000, 5.000000)" fill="#0D6EFD">
            <path d="M18.75,0 C17.1752938,0 15.8386234,0.695801562 14.7460938,1.66015625 C14.5141609,1.62963906 14.3127438,1.5625 14.0625,1.5625 C11.7797859,1.5625 9.97314531,2.94799844 8.88671875,4.78515625 C5.859375,5.0354 3.4729,7.421875 3.22265625,10.4492188 C1.38549844,11.5356453 0,13.3422859 0,15.625 C0,16.7907719 0.415039062,17.8222656 0.9765625,18.75 C0.415039062,19.6777344 0,20.7092281 0,21.875 C0,25.1342781 2.56347656,27.7648922 5.76171875,28.0273438 C6.84814531,29.8645016 8.65478594,31.25 10.9375,31.25 C12.0971688,31.25 13.1469734,30.8654781 14.0625,30.2734375 L14.0625,31.25 C14.0625,32.073975 13.8916016,32.3120125 13.5742188,32.6171875 C13.2568359,32.9223641 12.6892094,33.2214359 11.9628906,33.4960938 C11.2365719,33.7707516 10.3698734,34.0393063 9.52148438,34.5703125 C8.67309531,35.1013187 7.8125,36.1999516 7.8125,37.5 L10.9375,37.5 C10.9375,37.2497562 10.8581547,37.4084469 11.1816406,37.2070312 C11.5051266,37.0056156 12.2009281,36.7431641 13.0371094,36.4257812 C13.8732906,36.1083984 14.8681641,35.7360844 15.7226562,34.9121094 C16.5771484,34.0881344 17.1875,32.769775 17.1875,31.25 L17.1875,23.4375 L14.0625,23.4375 L14.0625,26.0253906 L13.6230469,26.7089844 C13.0798344,27.5268562 12.0361328,28.125 10.9375,28.125 C9.56420937,28.125 8.43505937,27.2521969 8.0078125,26.0253906 L7.6171875,24.9023438 L6.4453125,24.9511719 C6.17675781,24.9694828 6.10351562,25 6.25,25 C4.50439531,25 3.125,23.6206062 3.125,21.875 C3.125,21.0754391 3.44238281,20.3430172 3.95507812,19.7753906 L4.8828125,18.75 L3.95507812,17.7246094 C3.44238281,17.1569828 3.125,16.4245609 3.125,15.625 C3.125,14.2517094 3.99780313,13.1225594 5.22460938,12.6953125 L6.34765625,12.3046875 L6.29882812,11.1328125 C6.28051719,10.8642578 6.25,10.7910156 6.25,10.9375 C6.25,9.19189531 7.62939531,7.8125 9.375,7.8125 C9.22851562,7.8125 9.30175781,7.84301719 9.5703125,7.86132812 L10.7421875,7.91015625 L11.1328125,6.78710938 C11.5600594,5.56030313 12.6892094,4.6875 14.0625,4.6875 C14.2822266,4.6875 14.5263672,4.71801719 14.7949219,4.78515625 L15.7226562,5.02929688 L16.3574219,4.24804688 C16.9433594,3.54614219 17.7856453,3.125 18.75,3.125 C19.7143562,3.125 20.5566406,3.54614219 21.1425781,4.24804688 L21.7773438,5.02929688 L22.7050781,4.78515625 C22.9736328,4.71801719 23.2177734,4.6875 23.4375,4.6875 C24.8107906,4.6875 25.9399422,5.56030313 26.3671875,6.78710938 L26.7578125,7.91015625 L27.9296875,7.86132812 C28.1982422,7.84301719 28.2714844,7.8125 28.125,7.8125 C29.8706062,7.8125 31.25,9.19189531 31.25,10.9375 C31.25,10.7910156 31.2194828,10.8642578 31.2011719,11.1328125 L31.1523438,12.3046875 L32.2753906,12.6953125 C33.5021969,13.1225594 34.375,14.2517094 34.375,15.625 C34.375,16.4245609 34.0576172,17.1569828 33.5449219,17.7246094 L32.6171875,18.75 L33.5449219,19.7753906 C34.0576172,20.3430172 34.375,21.0754391 34.375,21.875 C34.375,23.6206062 32.9956062,25 31.25,25 C31.3964844,25 31.3232422,24.9694828 31.0546875,24.9511719 L29.8828125,24.9023438 L29.4921875,26.0253906 C29.0649422,27.2521969 27.9357906,28.125 26.5625,28.125 C25.4638672,28.125 24.3469234,27.4963375 23.828125,26.7089844 L23.4375,26.1230469 L23.4375,23.4375 L20.3125,23.4375 L20.3125,31.25 C20.3125,32.769775 20.9228516,34.0881344 21.7773438,34.9121094 C22.6318359,35.7360844 23.6267094,36.1083984 24.4628906,36.4257812 C25.2990719,36.7431641 25.9948734,37.0056156 26.3183594,37.2070312 C26.6418453,37.4084469 26.5625,37.2497562 26.5625,37.5 L29.6875,37.5 C29.6875,36.1999516 28.8269047,35.1013187 27.9785156,34.5703125 C27.1301266,34.0393063 26.2634281,33.7707516 25.5371094,33.4960938 C24.8107906,33.2214359 24.2431641,32.9223641 23.9257812,32.6171875 C23.6083984,32.3120125 23.4375,32.073975 23.4375,31.25 L23.4375,30.2734375 C24.3652344,30.8654781 25.390625,31.25 26.5625,31.25 C28.8452156,31.25 30.6518562,29.8645016 31.7382812,28.0273438 C34.9365234,27.7648922 37.5,25.1342781 37.5,21.875 C37.5,20.7092281 37.0849609,19.6777344 36.5234375,18.75 C37.0849609,17.8222656 37.5,16.7907719 37.5,15.625 C37.5,13.3422859 36.1145016,11.5356453 34.2773438,10.4492188 C34.0271,7.421875 31.640625,5.0354 28.6132812,4.78515625 C27.5268562,2.94799844 25.7202156,1.5625 23.4375,1.5625 C23.1872562,1.5625 22.9858406,1.62963906 22.7539062,1.66015625 C21.6613766,0.695801562 20.3247078,0 18.75,0 Z" id="Path"></path>
        </g>
    </g>
</svg>