<?xml version="1.0" encoding="UTF-8"?>
<svg width="48px" height="48px" viewBox="0 0 48 48" version="1.1" xmlns="http://www.w3.org/2000/svg" xmlns:xlink="http://www.w3.org/1999/xlink">
    <!-- Generator: Sketch 63.1 (92452) - https://sketch.com -->
    <title>Icons/icons-category/sport</title>
    <desc>Created with Sketch.</desc>
    <g id="Icons/icons-category/sport" stroke="none" stroke-width="1" fill="none" fill-rule="evenodd">
        <g id="icon-ping-pong" transform="translate(5.000000, 5.000000)" fill="#0D6EFD">
            <path d="M4.6875,0 C2.11792031,0 0,2.11792031 0,4.6875 C0,7.25707969 2.11792031,9.375 4.6875,9.375 C7.25707969,9.375 9.375,7.25707969 9.375,4.6875 C9.375,2.11792031 7.25707969,0 4.6875,0 Z M23.3398438,1.41567838 C22.8515625,1.42211875 22.3571781,1.45874062 21.875,1.51367187 C18.0175781,1.96533281 14.4165047,3.94287187 11.6699219,6.68945312 C9.74121094,8.61206094 8.14209063,11.3769531 7.6171875,16.5039062 C7.59887656,16.5527344 7.58056719,16.6015625 7.56835938,16.6503906 C7.56835938,16.6687016 7.56835938,16.6809078 7.56835938,16.6992188 C7.53173906,16.7785641 7.49511719,16.8579109 7.47070313,16.9433594 C7.4646,16.9799813 7.47680625,16.9982906 7.47070313,17.0410156 C7.47070313,17.0898438 7.47070313,17.1386719 7.47070313,17.1875 C7.47070313,17.2058109 7.47070313,17.2180172 7.47070313,17.2363281 C7.47680625,17.3339844 7.49511719,17.4316406 7.51953125,17.5292969 C7.54394531,17.6269531 7.5744625,17.7307125 7.6171875,17.8222656 C7.69653281,19.226075 7.89184531,20.6604 8.3984375,22.0214844 L8.34960938,22.0214844 C8.37402344,22.1557625 8.53271563,22.8271484 8.54492188,23.4863281 C8.551025,23.9807125 8.37402344,24.4323734 8.34960938,24.5605469 C7.39746094,25.5065922 6.25610313,26.4953609 5.17578125,27.34375 C4.09545938,28.1921391 3.16162187,28.9245609 2.49023438,29.5898438 L2.44140625,29.5898438 C1.61132813,30.4382328 1.27563438,31.7321781 1.51367188,32.8125 C1.75170938,33.9050297 2.38037187,34.851075 3.22265625,35.6933594 C4.0588375,36.5295406 5.01098594,37.1521 6.10351563,37.4023438 C7.19604531,37.6525875 8.52050781,37.3291016 9.375,36.4746094 C10.0585938,35.7910156 10.7177734,34.8266609 11.5722656,33.7402344 C12.4267578,32.6538094 13.3972172,31.4758297 14.3554688,30.5175781 C14.2456063,30.6274422 14.7216797,30.3710938 15.3320313,30.3710938 C15.8264156,30.3710938 16.2353516,30.4199219 16.5527344,30.46875 C16.6320797,30.4809578 16.796875,30.511475 16.8457031,30.5175781 C18.2067875,31.0241703 19.6411141,31.2133797 21.0449219,31.2988281 C21.0632328,31.2988281 21.0754391,31.3476562 21.09375,31.3476562 C21.2036141,31.3781734 21.3195797,31.3903812 21.4355469,31.3964844 C21.484375,31.4147953 21.5332031,31.4331062 21.5820313,31.4453125 C21.6308594,31.4453125 21.6796875,31.4453125 21.7285156,31.4453125 C21.7590328,31.4453125 21.7956547,31.4453125 21.8261719,31.4453125 C21.8444828,31.4453125 21.8566891,31.4453125 21.875,31.4453125 C21.9726563,31.4392094 22.0703125,31.4208984 22.1679688,31.3964844 C22.2290047,31.3903812 22.2534188,31.3537594 22.3144531,31.3476562 C22.3327641,31.3476562 22.3449703,31.3476562 22.3632813,31.3476562 C27.0690922,30.9570312 30.2246094,29.25415 32.2265625,27.2460938 C34.9731453,24.4995125 36.9506844,20.8984375 37.4023438,17.0410156 C37.8540047,13.1835938 36.6516109,9.06372031 33.2519531,5.6640625 C30.2795406,2.69165 26.7578125,1.39160156 23.3398438,1.41567838 Z M4.6875,3.125 C5.56640625,3.125 6.25,3.80859375 6.25,4.6875 C6.25,5.56640625 5.56640625,6.25 4.6875,6.25 C3.80859375,6.25 3.125,5.56640625 3.125,4.6875 C3.125,3.80859375 3.80859375,3.125 4.6875,3.125 Z M23.3398438,4.54101563 C25.9765625,4.4921875 28.6193844,5.426025 31.0546875,7.86132813 C33.8439938,10.6445313 34.6313484,13.6901859 34.2773438,16.6992188 C33.9233406,19.7082516 32.3425297,22.7355953 30.0292969,25.0488281 C28.4729,26.605225 26.2146,27.819825 22.265625,28.1738281 L10.7421875,16.6503906 C11.1999516,12.2436531 12.2863766,10.5651859 13.9160156,8.93554688 C16.2292484,6.62231406 19.2016609,4.99267656 22.2167969,4.63867188 C22.5952156,4.59594688 22.9614266,4.54711875 23.3398438,4.54101563 Z M11.4746094,21.875 L17.0410156,27.3925781 C16.6259766,27.3254391 16.1071781,27.2460938 15.3320313,27.2460938 C14.3798828,27.2521969 13.1713875,27.3071297 12.1582031,28.3203125 C11.0351563,29.4433594 10.0036625,30.6762703 9.13085938,31.7871094 C8.25805625,32.89795 7.48291094,33.9233406 7.12890625,34.2773438 C6.94580156,34.46045 7.03735313,34.4299312 6.78710938,34.375 C6.53686563,34.3200687 6.03027344,34.0087891 5.46875,33.4472656 C4.91943438,32.89795 4.644775,32.3913578 4.58984375,32.1289062 C4.5349125,31.8664547 4.47998125,31.9396969 4.63867188,31.7871094 C4.9682625,31.4575203 5.96313438,30.6640625 7.08007813,29.7851562 C8.19702188,28.90625 9.47265625,27.8808594 10.5957031,26.7578125 C11.676025,25.6774906 11.6882328,24.4262703 11.6699219,23.4375 C11.6577156,22.6867672 11.5417484,22.2473141 11.4746094,21.875 Z" id="Shape"></path>
        </g>
    </g>
</svg>