<?xml version="1.0" encoding="UTF-8"?>
<svg width="48px" height="48px" viewBox="0 0 48 48" version="1.1" xmlns="http://www.w3.org/2000/svg" xmlns:xlink="http://www.w3.org/1999/xlink">
    <!-- Generator: Sketch 63.1 (92452) - https://sketch.com -->
    <title>Icons/icons-category/watch</title>
    <desc>Created with Sketch.</desc>
    <g id="Icons/icons-category/watch" stroke="none" stroke-width="1" fill="none" fill-rule="evenodd">
        <g id="icon-women`s-watch" transform="translate(5.000000, 2.000000)" fill="#0D6EFD">
            <path d="M8.15124516,0 L4.06494141,16.5954594 C3.81233297,17.2948812 3.59062969,18.0087328 3.43933109,18.75 L0,18.75 L0,25 L3.43933109,25 C3.59062969,25.7412672 3.81233297,26.4551188 4.06494141,27.1545406 L8.15124516,43.75 L29.3487547,43.75 L33.4381109,27.1484375 C33.7996328,26.1460781 34.0603734,25.0988469 34.2102047,24.0142828 L34.2285156,23.9379875 L34.2224125,23.9349359 C34.3122672,23.258725 34.375,22.5752453 34.375,21.875 C34.375,21.1747547 34.3122672,20.491275 34.2224125,19.8150641 L34.2285156,19.8120125 L34.2102047,19.7357172 C34.0603734,18.6511531 33.7996328,17.6039219 33.4381109,16.6015625 L29.3487547,0 L8.15124516,0 Z M10.5987547,3.125 L26.9012453,3.125 L28.5217281,9.70458984 C25.8424156,7.54831875 22.4462172,6.25 18.75,6.25 C15.0537828,6.25 11.6575844,7.54831875 8.97827156,9.70458984 L10.5987547,3.125 Z M18.75,9.375 C24.0988484,9.375 28.6327516,12.7116984 30.4229734,17.4194344 L31.1553953,20.4010016 C31.2119313,20.8850609 31.25,21.3753406 31.25,21.875 C31.25,22.3746594 31.2119313,22.8649391 31.1553953,23.3489984 L30.4229734,26.3305656 C28.6327516,31.0383016 24.0988484,34.375 18.75,34.375 C13.4093531,34.375 8.88209203,31.048225 7.08618156,26.3519281 L6.33850094,23.3184813 C6.28432984,22.8444328 6.25,22.3639547 6.25,21.875 C6.25,21.3860453 6.28432984,20.9055672 6.33850094,20.4315187 L7.08618156,17.3980719 C8.88209203,12.701775 13.4093531,9.375 18.75,9.375 Z M17.1875,14.0625 L17.1875,22.5219719 L22.3327641,27.6672359 L24.5422359,25.4577641 L20.3125,21.2280281 L20.3125,14.0625 L17.1875,14.0625 Z M8.97827156,34.0454094 C11.6575844,36.2016813 15.0537828,37.5 18.75,37.5 C22.4462172,37.5 25.8424156,36.2016813 28.5217281,34.0454094 L26.9012453,40.625 L10.5987547,40.625 L8.97827156,34.0454094 Z" id="Shape"></path>
        </g>
    </g>
</svg>