<svg xml:space="preserve" viewBox="8.64 371.52 550.8 168.48" version="1.1" xmlns:xlink="http://www.w3.org/1999/xlink" xmlns="http://www.w3.org/2000/svg" style="max-height: 500px" width="550.8" height="168.48">
<desc>Created with Fabric.js 5.2.4</desc>
<defs>
</defs>
<g id="29e3d861-ec6d-4a5b-9ec0-585ef97d7c55" transform="matrix(1 0 0 1 540 540)">
<rect height="1080" width="1080" ry="0" rx="0" y="-540" x="-540" style="stroke: none; stroke-width: 1; stroke-dasharray: none; stroke-linecap: butt; stroke-dashoffset: 0; stroke-linejoin: miter; stroke-miterlimit: 4; fill: rgb(255,255,255); fill-rule: nonzero; opacity: 1; visibility: hidden;"/>
</g>
<g id="78c15278-c137-4307-9945-2cd20c8b694f" transform="matrix(1 0 0 1 540 540)">
</g>
<g transform="matrix(9.29 0 0 9.29 93.85 456)">
<path stroke-linecap="round" d="M 0 1.5 C 0 1.2238576250846034 0.22385762508460327 1 0.5 1 L 2 1 C 2.229485234054063 1.0000633973270516 2.42946457999675 1.1563359171461822 2.485 1.379 L 2.89 3 L 14.5 3 C 14.649733332979414 3.000090417855809 14.791544927070015 3.0672811878956416 14.886446097772083 3.183099351323878 C 14.98134726847415 3.2989175147521146 15.019347765914556 3.4511708890705353 14.99 3.5979999999999994 L 13.99 8.597999999999999 C 13.944993370080658 8.822307390970845 13.75348663692002 8.98745620816959 13.525 8.998999999999999 L 4.128 9.470999999999998 L 4.415 11 L 13 11 C 13.276142374915397 11 13.5 11.223857625084603 13.5 11.5 C 13.5 11.776142374915397 13.276142374915397 12 13 12 L 4 12 C 3.7595116776677115 11.99977722986412 3.55324976711536 11.828382403987625 3.509 11.592 L 2.01 3.607 L 1.61 2 L 0.5 2 C 0.22385762508460327 2 0 1.7761423749153966 0 1.5 M 3.102 4 L 3.9419999999999997 8.479 L 13.086 8.02 L 13.89 4 z M 5 12 C 3.895430500338413 12 3 12.895430500338414 3 14 C 3 15.104569499661586 3.895430500338413 16 5 16 C 6.1045694996615865 16 7 15.104569499661586 7 14 C 7 12.895430500338414 6.1045694996615865 12 5 12 M 12 12 C 10.895430500338414 12 10 12.895430500338414 10 14 C 10 15.104569499661586 10.895430500338414 16 12 16 C 13.104569499661586 16 14 15.104569499661586 14 14 C 14 12.895430500338414 13.104569499661586 12 12 12 M 5 13 C 5.552284749830793 13 6 13.447715250169207 6 14 C 6 14.552284749830793 5.552284749830794 15 5 15 C 4.447715250169207 15 4 14.552284749830793 4 14 C 4 13.447715250169207 4.447715250169207 13 5 13 M 12 13 C 12.552284749830793 13 13 13.447715250169207 13 14 C 13 14.552284749830793 12.552284749830793 15 12 15 C 11.447715250169207 15 11 14.552284749830793 11 14 C 11 13.447715250169207 11.447715250169207 13 12 13" transform="translate(-7.5, -8.5)" style="stroke: rgb(0,0,0); stroke-width: 0; stroke-dasharray: none; stroke-linecap: butt; stroke-dashoffset: 0; stroke-linejoin: miter; stroke-miterlimit: 4; fill: rgb(201,228,202); fill-rule: nonzero; opacity: 1;"/>
</g>
<g transform="matrix(0 0 0 0 0 0)">
<g style="">
</g>
</g>
<g transform="matrix(0 0 0 0 0 0)">
<g style="">
</g>
</g>
<g transform="matrix(8.45 0 0 8.45 234.94 458.95)">
<path stroke-linecap="round" d="M 5 11.5 C 5 11.223857625084603 5.223857625084603 11 5.5 11 L 14.5 11 C 14.776142374915397 11 15 11.223857625084603 15 11.5 C 15 11.776142374915397 14.776142374915397 12 14.5 12 L 5.5 12 C 5.223857625084603 12 5 11.776142374915397 5 11.5 M 5 7.5 C 5 7.223857625084603 5.223857625084603 7 5.5 7 L 14.5 7 C 14.776142374915397 7 15 7.223857625084603 15 7.5 C 15 7.776142374915397 14.776142374915397 8 14.5 8 L 5.5 8 C 5.223857625084603 8 5 7.776142374915397 5 7.5 M 5 3.5 C 5 3.2238576250846034 5.223857625084603 3 5.5 3 L 14.5 3 C 14.776142374915397 3 15 3.2238576250846034 15 3.5 C 15 3.7761423749153966 14.776142374915397 4 14.5 4 L 5.5 4 C 5.223857625084603 4 5 3.7761423749153966 5 3.5 M 3.854 2.146 C 3.948041700687635 2.239804263010167 4.000893783685418 2.3671727391417585 4.000893783685418 2.5 C 4.000893783685418 2.632827260858241 3.948041700687635 2.760195736989833 3.854 2.854 L 2.354 4.354 C 2.260195736989833 4.448041700687635 2.1328272608582415 4.500893783685418 2 4.500893783685418 C 1.867172739141759 4.500893783685418 1.739804263010167 4.448041700687635 1.6460000000000001 4.354 L 1.1460000000000001 3.854 C 0.9504911985598992 3.6584911985598993 0.950491198559899 3.341508801440101 1.146 3.146 C 1.3415088014401009 2.9504911985598987 1.6584911985598991 2.950491198559899 1.854 3.146 L 2 3.293 L 3.146 2.146 C 3.239804263010167 2.051958299312365 3.3671727391417585 1.9991062163145812 3.5 1.9991062163145812 C 3.6328272608582415 1.9991062163145812 3.760195736989833 2.051958299312365 3.854 2.146 M 3.854 6.146 C 3.948041700687635 6.239804263010167 4.000893783685418 6.3671727391417585 4.000893783685418 6.5 C 4.000893783685418 6.6328272608582415 3.948041700687635 6.760195736989833 3.854 6.854 L 2.354 8.354 C 2.260195736989833 8.448041700687634 2.1328272608582415 8.500893783685418 2 8.500893783685418 C 1.867172739141759 8.500893783685418 1.739804263010167 8.448041700687634 1.6460000000000001 8.354 L 1.1460000000000001 7.853999999999999 C 0.9504911985598992 7.658491198559898 0.950491198559899 7.3415088014401 1.146 7.145999999999999 C 1.3415088014401009 6.950491198559898 1.6584911985598991 6.950491198559898 1.854 7.145999999999999 L 2 7.293 L 3.146 6.146 C 3.239804263010167 6.051958299312365 3.3671727391417585 5.999106216314582 3.5 5.999106216314582 C 3.6328272608582415 5.999106216314582 3.760195736989833 6.051958299312365 3.854 6.146 M 3.854 10.146 C 3.948041700687635 10.239804263010168 4.000893783685418 10.36717273914176 4.000893783685418 10.5 C 4.000893783685418 10.632827260858242 3.948041700687635 10.760195736989834 3.854 10.854000000000001 L 2.354 12.354000000000001 C 2.260195736989833 12.448041700687636 2.1328272608582415 12.50089378368542 2 12.50089378368542 C 1.867172739141759 12.50089378368542 1.739804263010167 12.448041700687636 1.6460000000000001 12.354000000000001 L 1.1460000000000001 11.854000000000001 C 0.9504911985598992 11.6584911985599 0.950491198559899 11.341508801440101 1.146 11.146 C 1.3415088014401009 10.9504911985599 1.6584911985598991 10.9504911985599 1.854 11.146 L 2 11.293000000000001 L 3.146 10.146 C 3.239804263010167 10.051958299312366 3.3671727391417585 9.999106216314582 3.5 9.999106216314582 C 3.6328272608582415 9.999106216314582 3.760195736989833 10.051958299312366 3.854 10.146" transform="translate(-8, -7.25)" style="stroke: rgb(0,0,0); stroke-width: 0; stroke-dasharray: none; stroke-linecap: butt; stroke-dashoffset: 0; stroke-linejoin: miter; stroke-miterlimit: 4; fill: rgb(234,191,159); fill-rule: nonzero; opacity: 1;"/>
</g>
<g transform="matrix(0 0 0 0 0 0)">
<g style="">
</g>
</g>
<g transform="matrix(0 0 0 0 0 0)">
<g style="">
</g>
</g>
<g transform="matrix(0 0 0 0 0 0)">
<g style="">
</g>
</g>
<g transform="matrix(0 0 0 0 0 0)">
<g style="">
</g>
</g>
<g transform="matrix(0 0 0 0 0 0)">
<g style="">
</g>
</g>
<g transform="matrix(0 0 0 0 0 0)">
<g style="">
</g>
</g>
<g transform="matrix(0 0 0 0 0 0)">
<g style="">
</g>
</g>
<g transform="matrix(0 0 0 0 0 0)">
<g style="">
</g>
</g>
<g transform="matrix(7.59 0 0 7.59 374.73 458.37)">
<path stroke-linecap="round" d="M 1 8 C 1 7.723857625084603 1.2238576250846034 7.5 1.5 7.5 L 13.293 7.5 L 10.145999999999999 4.354 C 9.950491198559899 4.158491198559899 9.950491198559899 3.841508801440101 10.145999999999999 3.646 C 10.3415088014401 3.4504911985598987 10.658491198559899 3.450491198559899 10.854 3.646 L 14.854 7.646 C 14.948041700687634 7.739804263010167 15.000893783685417 7.8671727391417585 15.000893783685417 7.999999999999999 C 15.000893783685417 8.13282726085824 14.948041700687634 8.260195736989832 14.854 8.354 L 10.854 12.354 C 10.658491198559899 12.5495088014401 10.3415088014401 12.5495088014401 10.145999999999999 12.354 C 9.950491198559899 12.158491198559899 9.950491198559899 11.8415088014401 10.145999999999999 11.645999999999999 L 13.293 8.5 L 1.5 8.5 C 1.2238576250846034 8.5 1 8.276142374915397 1 8" transform="translate(-8, -8)" style="stroke: rgb(0,0,0); stroke-width: 0; stroke-dasharray: none; stroke-linecap: butt; stroke-dashoffset: 0; stroke-linejoin: miter; stroke-miterlimit: 4; fill: rgb(224,122,95); fill-rule: nonzero; opacity: 1;"/>
</g>
<g transform="matrix(0 0 0 0 0 0)">
<g style="">
</g>
</g>
<g transform="matrix(0 0 0 0 0 0)">
<g style="">
</g>
</g>
<g transform="matrix(6.44 0 0 6.44 486.72 444.56)">
<g style="">
		<g transform="matrix(1 0 0 1 0 0)">
<path stroke-linecap="round" d="M 0 4 C 0 2.895430500338413 0.8954305003384131 2 2 2 L 14 2 C 15.104569499661586 2 16 2.8954305003384126 16 3.9999999999999996 L 16 12 C 16 13.104569499661586 15.104569499661586 14 14 14 L 2 14 C 0.8954305003384131 14 0 13.104569499661586 0 12 z M 2 3 C 1.4477152501692065 3 1 3.4477152501692068 1 4 L 1 5 L 15 5 L 15 4 C 15 3.4477152501692068 14.552284749830793 3 14 3 z M 15 7 L 1 7 L 1 12 C 1 12.552284749830793 1.4477152501692065 13 2 13 L 14 13 C 14.552284749830793 13 15 12.552284749830793 15 12 z" transform="translate(-8, -8)" style="stroke: none; stroke-width: 1; stroke-dasharray: none; stroke-linecap: butt; stroke-dashoffset: 0; stroke-linejoin: miter; stroke-miterlimit: 4; fill: rgb(178,58,72); fill-rule: nonzero; opacity: 1;"/>
</g>
		<g transform="matrix(1 0 0 1 -4.5 2.5)">
<path stroke-linecap="round" d="M 2 10 C 2 9.447715250169207 2.4477152501692068 9 3 9 L 4 9 C 4.552284749830793 9 5 9.447715250169207 5 10 L 5 11 C 5 11.552284749830793 4.552284749830793 12 4 12 L 3 12 C 2.4477152501692068 12 2 11.552284749830793 2 11 z" transform="translate(-3.5, -10.5)" style="stroke: none; stroke-width: 1; stroke-dasharray: none; stroke-linecap: butt; stroke-dashoffset: 0; stroke-linejoin: miter; stroke-miterlimit: 4; fill: rgb(178,58,72); fill-rule: nonzero; opacity: 1;"/>
</g>
</g>
</g>
<g transform="matrix(0 0 0 0 0 0)">
<g style="">
</g>
</g>
<g transform="matrix(0 0 0 0 0 0)">
<g style="">
</g>
</g>
<g transform="matrix(1.27 0 0 1.43 513.98 480.59)">
<path stroke-linecap="round" d="M 25 3 C 18.363281 3 13 8.363281 13 15 L 13 20 L 9 20 C 7.300781 20 6 21.300781 6 23 L 6 47 C 6 48.699219 7.300781 50 9 50 L 41 50 C 42.699219 50 44 48.699219 44 47 L 44 23 C 44 21.300781 42.699219 20 41 20 L 37 20 L 37 15 C 37 8.363281 31.636719 3 25 3 Z M 25 5 C 30.566406 5 35 9.433594 35 15 L 35 20 L 15 20 L 15 15 C 15 9.433594 19.433594 5 25 5 Z M 25 30 C 26.699219 30 28 31.300781 28 33 C 28 33.898438 27.601563 34.6875 27 35.1875 L 27 38 C 27 39.101563 26.101563 40 25 40 C 23.898438 40 23 39.101563 23 38 L 23 35.1875 C 22.398438 34.6875 22 33.898438 22 33 C 22 31.300781 23.300781 30 25 30 Z" transform="translate(-25, -26.5)" style="stroke: rgb(0,0,0); stroke-width: 0; stroke-dasharray: none; stroke-linecap: butt; stroke-dashoffset: 0; stroke-linejoin: miter; stroke-miterlimit: 4; fill: rgb(178,58,72); fill-rule: nonzero; opacity: 1;"/>
</g>
<g transform="matrix(NaN NaN NaN NaN 0 0)">
<g style="">
</g>
</g>
<g transform="matrix(NaN NaN NaN NaN 0 0)">
<g style="">
</g>
</g>
</svg>