<?xml version="1.0" encoding="UTF-8"?>
<svg width="48px" height="48px" viewBox="0 0 48 48" version="1.1" xmlns="http://www.w3.org/2000/svg" xmlns:xlink="http://www.w3.org/1999/xlink">
    <!-- Generator: Sketch 63.1 (92452) - https://sketch.com -->
    <title>Icons/icons-food/thanksgiving</title>
    <desc>Created with Sketch.</desc>
    <g id="Icons/icons-food/thanksgiving" stroke="none" stroke-width="1" fill="none" fill-rule="evenodd">
        <g id="icon-thanksgiving" transform="translate(3.000000, 5.097274)" fill="#0D6EFD">
            <path d="M30.0292969,0.00038186357 C29.6630859,-0.00572126143 29.2846687,0.0614178011 28.90625,0.195694364 C28.1494141,0.464249051 27.4963375,1.02577249 27.1484375,1.61170999 C26.8005375,2.19764749 26.6967781,2.77748186 26.6601562,3.27186624 C26.6174312,3.83338968 26.6967781,3.9676678 26.7578125,4.29725686 C26.5075688,4.97474749 25.2807625,6.41517718 23.8769531,6.98280374 C22.7722172,7.43446468 20.8374031,7.71522561 16.5527344,7.71522561 C13.4277344,7.71522561 9.30786094,8.7650303 5.90820312,12.0121006 C2.50854531,15.2591709 0,20.6424725 0,28.9066319 L0,29.5902256 L0.48828125,30.0296787 C0.48828125,30.0296787 2.13012656,31.5799725 5.17578125,33.0081944 C8.22143594,34.4364178 12.7685547,35.8402256 18.75,35.8402256 C25.8117672,35.8402256 30.5236812,33.7772381 33.4472656,31.1527256 C36.37085,28.5282147 37.5,25.5191803 37.5,23.3402256 C37.5,22.1561444 37.2497562,21.0941319 36.8652344,20.1663975 C36.7065438,20.2579506 36.5173344,20.3495037 36.328125,20.4593662 C35.6750484,20.8255772 34.9853516,21.4298256 34.2285156,22.1195225 C34.3261719,22.4979412 34.375,22.9190834 34.375,23.3402256 C34.375,24.310685 33.6853031,26.7520912 31.3964844,28.8089756 C29.1076656,30.86586 25.2136234,32.7152256 18.75,32.7152256 C13.2507328,32.7152256 9.17358438,31.4334881 6.49414062,30.1761631 C4.19311562,29.0958412 3.46679688,28.3878334 3.17382813,28.1253819 C3.33252031,21.0025787 5.44433594,16.7545319 8.05664062,14.2581944 C10.7727047,11.6642006 14.1235359,10.8402256 16.5527344,10.8402256 C18.8903812,10.8402256 21.7773438,11.8839272 24.4140625,13.0374912 C27.0507812,14.1910553 29.2724609,15.5277256 31.5917969,15.5277256 C32.9711922,15.5277256 34.2407234,15.0821694 35.3515625,14.502335 C36.4624031,13.9225006 37.3840328,13.2511147 38.0371094,12.4027256 L38.3300781,11.9632725 L38.3789062,11.4749912 C38.3789062,11.4749912 38.3972172,11.2125397 38.4765625,11.0355381 C38.5559078,10.8585366 38.3300781,10.8890537 38.671875,10.8890537 C38.9343266,10.8890537 38.9587406,10.9378819 38.9648438,10.9378819 C38.9709469,10.9378819 38.9770516,10.9745037 39.0136719,11.0843662 C39.0930172,11.3040928 39.1113281,11.6703037 39.1113281,11.6703037 L38.9648438,12.7933506 L40.0390625,13.2328037 C40.0390625,13.2328037 40.625,13.5623944 40.625,13.9163975 C40.5700687,13.9408116 40.4663094,13.9652256 40.234375,13.9652256 C39.8315437,13.9652256 39.2028812,13.7332928 38.0859375,13.8675694 C36.9689938,14.0018475 35.7055672,14.4718178 33.59375,15.7230381 C31.2866219,17.0291912 29.6752938,19.0494537 27.734375,20.6058506 C25.7934578,22.1622475 23.6755375,23.3402256 20.3125,23.3402256 C17.2912594,23.3402256 15.2832031,20.1663975 15.2832031,20.1663975 L13.9160156,20.9476475 L12.5976562,21.7777256 C12.5976562,21.7777256 15.2587891,26.4652256 20.3125,26.4652256 C24.4567875,26.4652256 27.4475094,24.8477944 29.6875,23.0472569 C31.9274906,21.2467194 33.5693359,19.3546303 35.15625,18.4574131 C37.0971687,17.3099522 38.0432125,16.9925694 38.4765625,16.9437412 C38.9099125,16.8949131 39.2211922,17.0902256 40.234375,17.0902256 C42.2607422,17.0902256 43.75,15.5399334 43.75,13.9163975 C43.75,12.1952069 42.8222656,11.3651287 42.0898438,10.8890537 C42.0654297,10.5594647 42.144775,10.4984287 41.9921875,10.0589756 C41.8151859,9.55238343 41.4917,8.95423968 40.9179688,8.49647561 C40.3442391,8.03871155 39.5141609,7.76405374 38.671875,7.76405374 C37.1582031,7.76405374 36.0412594,8.84437561 35.6445312,9.71717874 C35.4492188,10.1383209 35.4980469,10.2420819 35.4492188,10.5472569 C35.1928719,10.8524334 34.6130375,11.3407147 33.8867188,11.7191319 C33.1176766,12.1219647 32.2631844,12.4027256 31.5917969,12.4027256 C31.1645516,12.4027256 29.9865719,12.0182037 28.6132812,11.4749912 C28.863525,11.0172272 29.0832516,10.5838787 29.3457031,10.2542881 C31.1767578,7.93495218 31.5185547,9.1556553 33.7402344,8.25233499 C35.6140141,7.48939593 36.4501953,5.50575374 35.8398438,4.00428811 C35.1684578,2.35633968 33.9050297,2.00233499 33.0566406,1.85585061 C32.8918453,1.56898499 32.9528812,1.47132874 32.6171875,1.12342874 C32.0861813,0.574113114 31.1218266,0.0125896761 30.0292969,0.00038186357 Z M30.2246094,3.07655374 C30.2612312,3.1009678 30.2734375,3.16810686 30.3710938,3.27186624 C30.5725094,3.47938655 30.7128906,3.76014749 30.7128906,3.76014749 L31.1035156,4.73670999 L32.1289062,4.78553811 C32.1289062,4.78553811 32.7758797,4.84657405 32.9101562,5.17616311 C32.8735359,5.22499124 32.8002937,5.27992249 32.5683594,5.37147561 C32.2753906,5.4874428 30.7495125,5.38978655 29.0039062,6.44569436 C29.2846687,5.97572405 29.6875,5.55458186 29.8339844,5.02967874 L29.9804688,4.59022561 L29.8339844,4.19960061 C29.8339844,4.19960061 29.7607422,3.79066468 29.7851562,3.46717874 C29.7973641,3.30238343 29.8217781,3.19862405 29.8339844,3.17420999 C29.8461922,3.14979593 29.8156734,3.16810686 29.9316406,3.12538186 C30.1147469,3.0582428 30.1879891,3.05213968 30.2246094,3.07655374 Z M26.5625,8.93592874 C26.2695312,9.36927874 25.9826656,9.80262874 25.7324219,10.2542881 C25.6958016,10.2359772 25.6713875,10.2237709 25.6347656,10.20546 C25.4150391,10.1078037 25.1770016,10.0101475 24.9511719,9.91249124 C25,9.8941803 25.0549313,9.88197405 25.0976562,9.86366311 C25.6591797,9.6317303 26.0681156,9.25331155 26.5625,8.93592874 Z" id="Shape"></path>
        </g>
    </g>
</svg>