<?xml version="1.0" encoding="UTF-8"?>
<svg width="48px" height="48px" viewBox="0 0 48 48" version="1.1" xmlns="http://www.w3.org/2000/svg" xmlns:xlink="http://www.w3.org/1999/xlink">
    <!-- Generator: Sketch 63.1 (92452) - https://sketch.com -->
    <title>Icons/icons-food/cafe</title>
    <desc>Created with Sketch.</desc>
    <g id="Icons/icons-food/cafe" stroke="none" stroke-width="1" fill="none" fill-rule="evenodd">
        <g id="icon-cafe" transform="translate(6.000000, 6.000000)" fill="#0D6EFD">
            <path d="M12.5,0 L12.5,6.25 L15.625,6.25 L15.625,0 L12.5,0 Z M18.75,1.5625 L18.75,6.25 L21.875,6.25 L21.875,1.5625 L18.75,1.5625 Z M1.5625,7.8125 L1.5625,21.875 C1.5625,26.171875 5.078125,29.6875 9.375,29.6875 L25,29.6875 C29.296875,29.6875 32.8125,26.171875 32.8125,21.875 L34.375,21.875 C36.9445797,21.875 39.0625,19.7570797 39.0625,17.1875 L39.0625,7.8125 L1.5625,7.8125 Z M4.6875,10.9375 L29.6875,10.9375 L29.6875,21.875 C29.6875,24.4812016 27.6062016,26.5625 25,26.5625 L9.375,26.5625 C6.76879844,26.5625 4.6875,24.4812016 4.6875,21.875 L4.6875,10.9375 Z M32.8125,10.9375 L35.9375,10.9375 L35.9375,17.1875 C35.9375,18.0725094 35.2600094,18.75 34.375,18.75 L32.8125,18.75 L32.8125,10.9375 Z M0,31.25 L0,34.375 L34.375,34.375 L34.375,31.25 L0,31.25 Z" id="Shape"></path>
        </g>
    </g>
</svg>