<?xml version="1.0" encoding="UTF-8"?>
<svg width="48px" height="48px" viewBox="0 0 48 48" version="1.1" xmlns="http://www.w3.org/2000/svg" xmlns:xlink="http://www.w3.org/1999/xlink">
    <!-- Generator: Sketch 63.1 (92452) - https://sketch.com -->
    <title>Icons/icons-food/grill</title>
    <desc>Created with Sketch.</desc>
    <g id="Icons/icons-food/grill" stroke="none" stroke-width="1" fill="none" fill-rule="evenodd">
        <g id="icon-grill" transform="translate(7.000000, 2.097656)" fill="#0D6EFD">
            <path d="M17.1875,0 L16.015625,1.31835938 C15.3381344,2.08740313 10.4309078,7.73925781 8.54492188,12.4023438 L11.9628906,12.4023438 C13.1958016,9.97314531 15.3320312,6.99462969 17.1875,4.73632812 C19.0429688,6.99462969 21.1792,9.97314531 22.4121094,12.4023438 L25.8300781,12.4023438 C23.9440922,7.73925781 19.0368656,2.08740313 18.359375,1.31835938 L17.1875,0 Z M17.1875,9.66796875 L15.9179688,11.5234375 C15.7287594,11.7980953 15.5273438,12.0910641 15.3320312,12.4023438 L19.0429688,12.4023438 C18.8476562,12.0910641 18.6462406,11.7980953 18.4570312,11.5234375 L17.1875,9.66796875 Z M0,13.9648438 L0,15.5273438 C0,21.3989266 2.96020469,26.5869141 7.47070312,29.6875 L1.5625,38.671875 L4.19921875,40.3808594 L10.2050781,31.2011719 C11.8896484,31.9519047 13.7146,32.4462891 15.625,32.6171875 L15.625,43.6523438 L18.75,43.6523438 L18.75,32.6171875 C20.6604,32.4462891 22.4853516,31.9519047 24.1699219,31.2011719 L30.1757812,40.5761719 L32.8125,38.9160156 L26.9042969,29.6875 C31.4147953,26.5869141 34.375,21.3989266 34.375,15.5273438 L34.375,13.9648438 L0,13.9648438 Z M3.46679688,17.0898438 L30.9082031,17.0898438 C30.0964359,24.0966797 24.4140625,29.5898438 17.1875,29.5898438 C9.9609375,29.5898438 4.27856406,24.0966797 3.46679688,17.0898438 Z" id="Shape"></path>
        </g>
    </g>
</svg>