<?xml version="1.0" encoding="UTF-8"?>
<svg width="48px" height="48px" viewBox="0 0 48 48" version="1.1" xmlns="http://www.w3.org/2000/svg" xmlns:xlink="http://www.w3.org/1999/xlink">
    <!-- Generator: Sketch 63.1 (92452) - https://sketch.com -->
    <title>Icons/icons-food/kawaii-cupcake</title>
    <desc>Created with Sketch.</desc>
    <g id="Icons/icons-food/kawaii-cupcake" stroke="none" stroke-width="1" fill="none" fill-rule="evenodd">
        <g id="icon-kawaii-cupcake" transform="translate(5.000000, 1.000000)" fill="#0D6EFD">
            <path d="M14.0625,0 L14.0625,1.5625 C14.0625,2.5109375 13.6418703,3.00415047 12.8387453,3.86352531 C12.2262453,4.51821281 11.5057375,5.28881828 11.154175,6.39038094 C8.1323,7.01538094 5.48078609,9.65668953 4.83703609,12.6770016 C2.29797359,13.3160641 0,15.675 0,19.53125 C0,22.846875 1.40661625,24.8760984 3.30505375,26.1260984 L6.27441406,42.4652094 C6.41035156,43.2089594 7.0578125,43.75 7.8125,43.75 L26.5625,43.75 C27.3171875,43.75 27.9631594,43.21045 28.0975344,42.4682625 L31.1279297,25.8056641 C32.1419922,24.8447266 34.375,22.2715578 34.375,18.1121828 C34.375,12.8762453 30.9904297,8.66752937 26.4404297,7.92846687 C25.5341797,2.74565437 19.834375,0 15.625,0 L14.0625,0 Z M16.9342047,3.24096687 C19.9810797,3.76127937 23.4375,6 23.4375,9.375 L23.4375,10.9375 L25,10.9375 C28.0296875,10.9375 31.25,13.4528078 31.25,18.1121828 C31.25,20.0309328 30.5830563,21.4698484 29.9377437,22.4151609 C29.4596188,22.0807859 28.8515625,21.875 28.125,21.875 C27.0609375,21.875 25.8776125,22.2695562 24.2401125,22.8179937 C21.48855,23.7383063 17.7203125,25 12.5,25 C4.2609375,25 3.125,22.371875 3.125,19.53125 C3.125,17.6765625 3.94594719,16.461425 4.98657219,15.930175 C6.54125969,20.3114266 13.775,20.3125 18.75,20.3125 L18.75,17.1875 C9.671875,17.1875 7.8125,15.9390625 7.8125,14.0625 C7.8125,11.784375 10.221875,9.375 12.5,9.375 L14.0625,9.375 L14.0625,7.8125 C14.0625,7.1578125 14.4073969,6.76076656 15.1214594,5.99670406 C15.7464594,5.32951656 16.5357672,4.48471688 16.9342047,3.24096687 Z M28.0975344,25.0030516 L25.2563469,40.625 L9.1156,40.625 L6.74133297,27.560425 C9.00070781,28.116675 11.259375,28.125 12.5,28.125 C18.2296875,28.125 22.4444328,26.7171141 25.2319344,25.7843016 C26.4709953,25.3702391 27.5365969,25.0124266 28.0975344,25.0030516 Z M12.5,29.6875 C11.6370551,29.6875 10.9375,30.3870551 10.9375,31.25 C10.9375,32.1129449 11.6370551,32.8125 12.5,32.8125 C13.3629449,32.8125 14.0625,32.1129449 14.0625,31.25 C14.0625,30.3870551 13.3629449,29.6875 12.5,29.6875 Z M21.875,29.6875 C21.0120551,29.6875 20.3125,30.3870551 20.3125,31.25 C20.3125,32.1129449 21.0120551,32.8125 21.875,32.8125 C22.7379449,32.8125 23.4375,32.1129449 23.4375,31.25 C23.4375,30.3870551 22.7379449,29.6875 21.875,29.6875 Z M14.0625,34.375 C14.0625,36.1015625 15.4609375,37.5 17.1875,37.5 C18.9140625,37.5 20.3125,36.1015625 20.3125,34.375 L14.0625,34.375 Z" id="Shape"></path>
        </g>
    </g>
</svg>