<?xml version="1.0" encoding="UTF-8"?>
<svg width="48px" height="48px" viewBox="0 0 48 48" version="1.1" xmlns="http://www.w3.org/2000/svg" xmlns:xlink="http://www.w3.org/1999/xlink">
    <!-- Generator: Sketch 63.1 (92452) - https://sketch.com -->
    <title>Icons/icons-food/restaurant</title>
    <desc>Created with Sketch.</desc>
    <g id="Icons/icons-food/restaurant" stroke="none" stroke-width="1" fill="none" fill-rule="evenodd">
        <g id="icon-restaurant" transform="translate(11.000000, 6.000000)" fill="#0D6EFD">
            <path d="M0,0 L0,10.9375 C0,13.5070797 2.11792031,15.625 4.6875,15.625 L4.6875,34.375 L7.8125,34.375 L7.8125,15.625 C10.3820797,15.625 12.5,13.5070797 12.5,10.9375 L12.5,0 L9.375,0 L9.375,10.9375 C9.375,11.8225094 8.69750938,12.5 7.8125,12.5 L7.8125,0 L4.6875,0 L4.6875,12.5 C3.80249062,12.5 3.125,11.8225094 3.125,10.9375 L3.125,0 L0,0 Z M18.75,0 L18.75,34.375 L21.875,34.375 L21.875,22.8515625 L28.125,19.7265625 L28.125,7.8125 C28.125,3.515625 24.609375,0 20.3125,0 L18.75,0 Z M21.875,3.75976562 C23.6145016,4.44335938 25,5.81665 25,7.8125 L25,17.7734375 L21.875,19.3359375 L21.875,3.75976562 Z" id="Shape"></path>
        </g>
    </g>
</svg>