<?xml version="1.0" encoding="UTF-8"?>
<svg width="48px" height="48px" viewBox="0 0 48 48" version="1.1" xmlns="http://www.w3.org/2000/svg" xmlns:xlink="http://www.w3.org/1999/xlink">
    <!-- Generator: Sketch 63.1 (92452) - https://sketch.com -->
    <title>Icons/icons-food/steak</title>
    <desc>Created with Sketch.</desc>
    <g id="Icons/icons-food/steak" stroke="none" stroke-width="1" fill="none" fill-rule="evenodd">
        <g id="icon-steak" transform="translate(5.000000, 5.000000)" fill="#0D6EFD">
            <path d="M19.2871094,0 C17.2424312,0 15.4663094,0.695801562 14.1113281,1.80664062 C12.7563484,2.91748125 11.7980953,4.40673906 11.0839844,6.00585938 C9.66796875,9.17358437 9.10644531,12.8784188 8.59375,15.8203125 C7.73315469,19.3542484 5.87158281,21.4660641 4.00390625,23.4375 C3.07006875,24.4201656 2.13012656,25.3479 1.3671875,26.4160156 C0.604248438,27.4841312 0,28.7902828 0,30.2734375 C0,32.507325 1.54418906,34.3811031 3.7109375,35.5957031 C5.87768594,36.8103031 8.7890625,37.5 12.2070312,37.5 C17.96875,37.5 24.1149906,35.5896 28.9550781,32.5195312 C33.7951656,29.4494625 37.5,25.1159672 37.5,20.1171875 C37.5,16.8640141 35.2233891,13.4216312 30.7128906,10.7910156 C30.1269531,6.64672813 28.6987312,3.73535156 26.6113281,2.09960938 C24.3652344,0.33569375 21.6674812,0 19.2871094,0 Z M19.2871094,3.125 C21.3439938,3.125 23.2116703,3.45459062 24.6582031,4.58984375 C26.1047359,5.72509844 27.3559578,7.75146563 27.7832031,11.9140625 L27.8808594,12.7441406 L28.6132812,13.1347656 C32.9284672,15.4541016 34.375,18.2312016 34.375,20.1171875 C34.375,23.5107422 31.6101078,27.1484375 27.2949219,29.8828125 C22.9797359,32.6171875 17.2546391,34.375 12.2070312,34.375 C9.22851562,34.375 6.8359375,33.7341312 5.2734375,32.8613281 C3.7109375,31.988525 3.125,31.0241703 3.125,30.2734375 C3.125,29.5898438 3.3630375,28.9794922 3.90625,28.2226562 C4.4494625,27.4658203 5.27954062,26.605225 6.25,25.5859375 C8.18481406,23.5473641 10.5773922,20.8435062 11.6210938,16.5527344 L11.6699219,16.5039062 L11.6699219,16.4550781 C12.194825,13.4582516 12.7929688,9.89379844 13.9648438,7.27539062 C14.5507812,5.96923906 15.2648922,4.89502031 16.1132812,4.19921875 C16.9616703,3.50341875 17.8955078,3.125 19.2871094,3.125 Z M19.7753906,7.8125 C18.8781734,7.77587969 17.9565438,8.47167969 17.4804688,9.5703125 C16.8457031,11.2182625 17.2973641,13.0371094 18.4082031,13.7695312 C19.5190438,14.5019531 20.9472656,13.7695312 21.5820313,12.3046875 C22.2167969,10.6567391 21.7651375,8.83789062 20.6542969,8.10546875 C20.3796391,7.92236406 20.0744625,7.82470781 19.7753906,7.8125 Z M24.6582031,17.0410156 L12.8417969,21.4355469 L13.9648438,24.3652344 L25.7324219,19.9707031 L24.6582031,17.0410156 Z M28.125,22.1191406 L11.9140625,28.125 L12.9882812,31.0546875 L29.1992188,25.0488281 L28.125,22.1191406 Z" id="Shape"></path>
        </g>
    </g>
</svg>