<?xml version="1.0" encoding="UTF-8"?>
<svg width="48px" height="48px" viewBox="0 0 48 48" version="1.1" xmlns="http://www.w3.org/2000/svg" xmlns:xlink="http://www.w3.org/1999/xlink">
    <!-- Generator: Sketch 63.1 (92452) - https://sketch.com -->
    <title>Icons/icons-food/tea-cup</title>
    <desc>Created with Sketch.</desc>
    <g id="Icons/icons-food/tea-cup" stroke="none" stroke-width="1" fill="none" fill-rule="evenodd">
        <g id="icon-tea-cup" transform="translate(4.416016, 8.000000)" fill="#0D6EFD">
            <path d="M0,0 L0.146484375,1.70898438 C1.06811562,11.5966797 3.33252031,17.6757812 5.46875,21.3378906 C6.53686563,23.1689453 7.60498125,24.4140625 8.3984375,25.1953125 C8.4411625,25.2380375 8.45947344,25.2563484 8.49609375,25.2929688 C7.86743125,26.2329109 7.04956094,27.5756844 6.49414062,29.1992188 L5.76171875,31.25 L30.4199219,31.25 L29.7363281,29.1992188 C29.2114266,27.5939937 28.4118656,26.2329109 27.7832031,25.2929688 C27.8259281,25.2563484 27.8381344,25.2380375 27.8808594,25.1953125 C28.4729,24.6215828 29.1748047,23.7854 29.9316406,22.65625 C29.9438484,22.6379391 29.9682625,22.6257328 29.9804688,22.6074219 C29.9926766,22.5891109 30.0170906,22.5769047 30.0292969,22.5585938 C31.1279297,20.7763672 33.8806156,20.007325 36.9628906,19.140625 C38.5375984,18.7011719 40.1428219,18.2250984 41.5039062,17.2363281 C42.8649906,16.2475594 43.8964844,14.5629891 43.8964844,12.5 C43.8964844,9.21630937 41.3391109,6.25 37.9394531,6.25 C37.109375,6.25 36.2487797,6.39038125 35.4492188,6.68945312 C35.6933594,5.13305625 35.9252938,3.50952187 36.0839844,1.70898438 L36.2304688,0 L0,0 Z M3.56445312,3.125 L32.6660156,3.125 C31.7077641,11.4196781 29.8095703,16.8151859 28.0761719,19.7753906 C27.9052734,20.0622562 27.7526859,20.3063969 27.5878906,20.5566406 C27.5268562,20.6542969 27.4536141,20.7580562 27.3925781,20.8496094 C27.3376469,20.9411625 27.2521969,21.0021969 27.1972656,21.09375 C26.6113281,21.9299312 26.0864266,22.5524906 25.6835938,22.9492188 C25.4272469,23.1933594 25.2441406,23.3276375 25.0976562,23.4375 L11.1328125,23.4375 C11.0351562,23.3703609 10.9680172,23.3642578 10.546875,22.9492188 C9.95483437,22.3693844 9.1369625,21.3745125 8.203125,19.7753906 C6.47582969,16.8090828 4.55932656,11.4257812 3.56445312,3.125 Z M37.9394531,9.375 C39.4165047,9.375 40.7714844,10.9069828 40.7714844,12.5 C40.7714844,13.7023922 40.4541016,14.14795 39.6972656,14.6972656 C38.9404297,15.2465828 37.6281734,15.7409672 36.1328125,16.1621094 C35.0891109,16.4550781 33.9233406,16.7175297 32.7636719,17.0898438 C33.2153328,15.9362797 33.6303719,14.6667484 34.0332031,13.2324219 L34.0820312,13.2324219 C34.5642094,11.5295406 35.15625,10.5712891 35.7421875,10.0585938 C36.328125,9.54589844 36.9812016,9.375 37.9394531,9.375 Z M25.6347656,23.4375 C25.6347656,23.4375 25.7995609,24.0844734 25.9765625,24.7070312 L25.6347656,25 L25.6347656,23.4375 Z M11.5234375,26.5625 L24.7558594,26.5625 C24.9938969,27.0202641 25.3112797,27.6245125 25.6347656,28.125 L10.5957031,28.125 C10.9741219,27.5390625 11.2976078,26.9714359 11.5234375,26.5625 Z" id="Shape"></path>
        </g>
    </g>
</svg>