<?xml version="1.0" encoding="UTF-8"?>
<svg width="48px" height="48px" viewBox="0 0 48 48" version="1.1" xmlns="http://www.w3.org/2000/svg" xmlns:xlink="http://www.w3.org/1999/xlink">
    <!-- Generator: Sketch 63.1 (92452) - https://sketch.com -->
    <title>Icons/icons-food/waiter</title>
    <desc>Created with Sketch.</desc>
    <g id="Icons/icons-food/waiter" stroke="none" stroke-width="1" fill="none" fill-rule="evenodd">
        <g id="icon-waiter" transform="translate(6.000000, 3.000000)" fill="#0D6EFD">
            <path d="M8.59375,0 C4.730225,0 1.5625,3.167725 1.5625,7.03125 C1.5625,10.894775 4.730225,14.0625 8.59375,14.0625 C12.457275,14.0625 15.625,10.894775 15.625,7.03125 C15.625,3.167725 12.457275,0 8.59375,0 Z M8.59375,3.125 C10.7666016,3.125 12.5,4.85839844 12.5,7.03125 C12.5,9.20410156 10.7666016,10.9375 8.59375,10.9375 C6.42089844,10.9375 4.6875,9.20410156 4.6875,7.03125 C4.6875,4.85839844 6.42089844,3.125 8.59375,3.125 Z M29.6875,6.25 L29.6875,7.95898438 C26.6418453,8.58764687 24.2126469,11.0168453 23.5839844,14.0625 L21.875,14.0625 L21.875,17.1875 L40.625,17.1875 L40.625,14.0625 L38.9160156,14.0625 C38.2873531,11.0168453 35.8581547,8.58764687 32.8125,7.95898438 L32.8125,6.25 L29.6875,6.25 Z M31.25,10.9375 C33.3129891,10.9375 35.0585938,12.2314453 35.6933594,14.0625 L26.8066406,14.0625 C27.4414062,12.2314453 29.1870125,10.9375 31.25,10.9375 Z M0,15.625 L0,18.75 L3.515625,18.75 L6.93359375,30.1269531 L7.27539062,31.25 L9.91210938,31.25 L10.2539062,30.1269531 L13.671875,18.75 L16.4550781,18.75 L20.9472656,26.0253906 L21.9726562,27.734375 L23.3398438,26.3671875 L27.9785156,21.875 L34.375,21.875 L34.375,18.75 L26.7089844,18.75 L26.2695312,19.1894531 L22.5585938,22.7539062 L18.6523438,16.3574219 L18.2128906,15.625 L11.328125,15.625 L10.9863281,16.7480469 L8.59375,24.8046875 L6.20117188,16.7480469 L5.859375,15.625 L0,15.625 Z M15.625,22.265625 L15.625,34.375 L0,34.375 L0,37.5 L18.75,37.5 L18.75,27.5390625 L15.625,22.265625 Z" id="Shape"></path>
        </g>
    </g>
</svg>